<ttFont>
    <TTGlyph name="A" xMin="-31" yMin="-5" xMax="622" yMax="716">
      <contour>
        <pt x="622" y="65" on="1"/>
        <pt x="607" y="-5" on="1"/>
        <pt x="562" y="0" on="0"/>
        <pt x="527" y="0" on="1"/>
        <pt x="324" y="-5" on="1"/>
        <pt x="330" y="68" on="1"/>
        <pt x="388" y="77" on="1"/>
        <pt x="392" y="129" on="1"/>
        <pt x="386" y="179" on="1"/>
        <pt x="205" y="179" on="1"/>
        <pt x="180" y="115" on="1"/>
        <pt x="169" y="77" on="1"/>
        <pt x="223" y="65" on="1"/>
        <pt x="208" y="-5" on="1"/>
        <pt x="151" y="0" on="0"/>
        <pt x="104" y="0" on="1"/>
        <pt x="-31" y="-5" on="1"/>
        <pt x="-26" y="68" on="1"/>
        <pt x="18" y="75" on="1"/>
        <pt x="71" y="161" on="1"/>
        <pt x="332" y="705" on="1"/>
        <pt x="446" y="716" on="1"/>
        <pt x="556" y="128" on="1"/>
        <pt x="569" y="74" on="1"/>
      </contour>
      <contour>
        <pt x="347" y="498" on="1"/>
        <pt x="244" y="261" on="1"/>
        <pt x="373" y="263" on="1"/>
      </contour>
    </TTGlyph>
    <TTGlyph name="AE" xMin="-31" yMin="-5" xMax="920" yMax="715">
      <contour>
        <pt x="587" y="618" on="1"/>
        <pt x="582" y="542" on="1"/>
        <pt x="583" y="400" on="1"/>
        <pt x="591" y="398" on="0"/>
        <pt x="608" y="398" on="1"/>
        <pt x="686" y="398" on="1"/>
        <pt x="707" y="398" on="0"/>
        <pt x="730" y="407" on="1"/>
        <pt x="749" y="471" on="1"/>
        <pt x="808" y="466" on="1"/>
        <pt x="798" y="406" on="0"/>
        <pt x="795" y="386" on="1"/>
        <pt x="780" y="259" on="1"/>
        <pt x="717" y="253" on="1"/>
        <pt x="717" y="313" on="1"/>
        <pt x="675" y="319" on="0"/>
        <pt x="656" y="319" on="1"/>
        <pt x="602" y="319" on="1"/>
        <pt x="589" y="319" on="0"/>
        <pt x="583" y="317" on="1"/>
        <pt x="584" y="193" on="1"/>
        <pt x="588" y="87" on="1"/>
        <pt x="686" y="87" on="1"/>
        <pt x="720" y="87" on="0"/>
        <pt x="762" y="95" on="1"/>
        <pt x="794" y="149" on="0"/>
        <pt x="806" y="195" on="1"/>
        <pt x="874" y="190" on="1"/>
        <pt x="833" y="14" on="1"/>
        <pt x="812" y="-4" on="1"/>
        <pt x="722" y="0" on="0"/>
        <pt x="702" y="0" on="1"/>
        <pt x="439" y="0" on="1"/>
        <pt x="360" y="-5" on="1"/>
        <pt x="365" y="65" on="1"/>
        <pt x="432" y="77" on="1"/>
        <pt x="439" y="117" on="0"/>
        <pt x="438" y="132" on="1"/>
        <pt x="438" y="184" on="1"/>
        <pt x="228" y="184" on="1"/>
        <pt x="180" y="115" on="1"/>
        <pt x="179" y="114" on="0"/>
        <pt x="163" y="84" on="0"/>
        <pt x="158" y="77" on="1"/>
        <pt x="224" y="71" on="1"/>
        <pt x="208" y="-5" on="1"/>
        <pt x="147" y="0" on="0"/>
        <pt x="67" y="0" on="1"/>
        <pt x="-31" y="-5" on="1"/>
        <pt x="-26" y="65" on="1"/>
        <pt x="25" y="74" on="1"/>
        <pt x="72" y="128" on="0"/>
        <pt x="96" y="161" on="1"/>
        <pt x="419" y="623" on="1"/>
        <pt x="359" y="635" on="1"/>
        <pt x="375" y="710" on="1"/>
        <pt x="425" y="705" on="0"/>
        <pt x="471" y="705" on="1"/>
        <pt x="792" y="705" on="1"/>
        <pt x="903" y="715" on="1"/>
        <pt x="920" y="697" on="1"/>
        <pt x="902" y="536" on="1"/>
        <pt x="832" y="531" on="1"/>
        <pt x="834" y="551" on="0"/>
        <pt x="834" y="566" on="1"/>
        <pt x="834" y="588" on="0"/>
        <pt x="826" y="613" on="1"/>
        <pt x="781" y="618" on="0"/>
        <pt x="749" y="618" on="1"/>
      </contour>
      <contour>
        <pt x="284" y="266" on="1"/>
        <pt x="438" y="268" on="1"/>
        <pt x="437" y="479" on="1"/>
        <pt x="436" y="487" on="1"/>
      </contour>
    </TTGlyph>
    <TTGlyph name="AEacute" xMin="-31" yMin="-5" xMax="920" yMax="898">
      <contour>
        <pt x="587" y="618" on="1"/>
        <pt x="582" y="542" on="1"/>
        <pt x="583" y="400" on="1"/>
        <pt x="591" y="398" on="0"/>
        <pt x="608" y="398" on="1"/>
        <pt x="686" y="398" on="1"/>
        <pt x="707" y="398" on="0"/>
        <pt x="730" y="407" on="1"/>
        <pt x="749" y="471" on="1"/>
        <pt x="808" y="466" on="1"/>
        <pt x="798" y="406" on="0"/>
        <pt x="795" y="386" on="1"/>
        <pt x="780" y="259" on="1"/>
        <pt x="717" y="253" on="1"/>
        <pt x="717" y="313" on="1"/>
        <pt x="675" y="319" on="0"/>
        <pt x="656" y="319" on="1"/>
        <pt x="602" y="319" on="1"/>
        <pt x="589" y="319" on="0"/>
        <pt x="583" y="317" on="1"/>
        <pt x="584" y="193" on="1"/>
        <pt x="588" y="87" on="1"/>
        <pt x="686" y="87" on="1"/>
        <pt x="720" y="87" on="0"/>
        <pt x="762" y="95" on="1"/>
        <pt x="794" y="149" on="0"/>
        <pt x="806" y="195" on="1"/>
        <pt x="874" y="190" on="1"/>
        <pt x="833" y="14" on="1"/>
        <pt x="812" y="-4" on="1"/>
        <pt x="722" y="0" on="0"/>
        <pt x="702" y="0" on="1"/>
        <pt x="439" y="0" on="1"/>
        <pt x="360" y="-5" on="1"/>
        <pt x="365" y="65" on="1"/>
        <pt x="432" y="77" on="1"/>
        <pt x="439" y="117" on="0"/>
        <pt x="438" y="132" on="1"/>
        <pt x="438" y="184" on="1"/>
        <pt x="228" y="184" on="1"/>
        <pt x="180" y="115" on="1"/>
        <pt x="179" y="114" on="0"/>
        <pt x="163" y="84" on="0"/>
        <pt x="158" y="77" on="1"/>
        <pt x="224" y="71" on="1"/>
        <pt x="208" y="-5" on="1"/>
        <pt x="147" y="0" on="0"/>
        <pt x="67" y="0" on="1"/>
        <pt x="-31" y="-5" on="1"/>
        <pt x="-26" y="65" on="1"/>
        <pt x="25" y="74" on="1"/>
        <pt x="72" y="128" on="0"/>
        <pt x="96" y="161" on="1"/>
        <pt x="419" y="623" on="1"/>
        <pt x="359" y="635" on="1"/>
        <pt x="375" y="710" on="1"/>
        <pt x="425" y="705" on="0"/>
        <pt x="471" y="705" on="1"/>
        <pt x="792" y="705" on="1"/>
        <pt x="903" y="715" on="1"/>
        <pt x="920" y="697" on="1"/>
        <pt x="902" y="536" on="1"/>
        <pt x="832" y="531" on="1"/>
        <pt x="834" y="551" on="0"/>
        <pt x="834" y="566" on="1"/>
        <pt x="834" y="588" on="0"/>
        <pt x="826" y="613" on="1"/>
        <pt x="781" y="618" on="0"/>
        <pt x="749" y="618" on="1"/>
      </contour>
      <contour>
        <pt x="284" y="266" on="1"/>
        <pt x="438" y="268" on="1"/>
        <pt x="437" y="479" on="1"/>
        <pt x="436" y="487" on="1"/>
      </contour>
      <contour>
        <pt x="728" y="898" on="1"/>
        <pt x="763" y="814" on="1"/>
        <pt x="624" y="774" on="0"/>
        <pt x="605" y="768" on="1"/>
        <pt x="534" y="730" on="1"/>
        <pt x="498" y="794" on="1"/>
      </contour>
    </TTGlyph>
    <TTGlyph name="Aacute" xMin="-31" yMin="-5" xMax="622" yMax="898">
      <contour>
        <pt x="622" y="65" on="1"/>
        <pt x="607" y="-5" on="1"/>
        <pt x="562" y="0" on="0"/>
        <pt x="527" y="0" on="1"/>
        <pt x="324" y="-5" on="1"/>
        <pt x="330" y="68" on="1"/>
        <pt x="388" y="77" on="1"/>
        <pt x="392" y="129" on="1"/>
        <pt x="386" y="179" on="1"/>
        <pt x="205" y="179" on="1"/>
        <pt x="180" y="115" on="1"/>
        <pt x="169" y="77" on="1"/>
        <pt x="223" y="65" on="1"/>
        <pt x="208" y="-5" on="1"/>
        <pt x="151" y="0" on="0"/>
        <pt x="104" y="0" on="1"/>
        <pt x="-31" y="-5" on="1"/>
        <pt x="-26" y="68" on="1"/>
        <pt x="18" y="75" on="1"/>
        <pt x="71" y="161" on="1"/>
        <pt x="332" y="705" on="1"/>
        <pt x="446" y="716" on="1"/>
        <pt x="556" y="128" on="1"/>
        <pt x="569" y="74" on="1"/>
      </contour>
      <contour>
        <pt x="347" y="498" on="1"/>
        <pt x="244" y="261" on="1"/>
        <pt x="373" y="263" on="1"/>
      </contour>
      <contour>
        <pt x="512" y="898" on="1"/>
        <pt x="547" y="814" on="1"/>
        <pt x="408" y="774" on="0"/>
        <pt x="389" y="768" on="1"/>
        <pt x="318" y="730" on="1"/>
        <pt x="282" y="794" on="1"/>
      </contour>
    </TTGlyph>
    <TTGlyph name="Abreve" xMin="-31" yMin="-5" xMax="622" yMax="898">
      <contour>
        <pt x="622" y="65" on="1"/>
        <pt x="607" y="-5" on="1"/>
        <pt x="562" y="0" on="0"/>
        <pt x="527" y="0" on="1"/>
        <pt x="324" y="-5" on="1"/>
        <pt x="330" y="68" on="1"/>
        <pt x="388" y="77" on="1"/>
        <pt x="392" y="129" on="1"/>
        <pt x="386" y="179" on="1"/>
        <pt x="205" y="179" on="1"/>
        <pt x="180" y="115" on="1"/>
        <pt x="169" y="77" on="1"/>
        <pt x="223" y="65" on="1"/>
        <pt x="208" y="-5" on="1"/>
        <pt x="151" y="0" on="0"/>
        <pt x="104" y="0" on="1"/>
        <pt x="-31" y="-5" on="1"/>
        <pt x="-26" y="68" on="1"/>
        <pt x="18" y="75" on="1"/>
        <pt x="71" y="161" on="1"/>
        <pt x="332" y="705" on="1"/>
        <pt x="446" y="716" on="1"/>
        <pt x="556" y="128" on="1"/>
        <pt x="569" y="74" on="1"/>
      </contour>
      <contour>
        <pt x="347" y="498" on="1"/>
        <pt x="244" y="261" on="1"/>
        <pt x="373" y="263" on="1"/>
      </contour>
      <contour>
        <pt x="455" y="743" on="0"/>
        <pt x="317" y="743" on="0"/>
        <pt x="282" y="784" on="1"/>
        <pt x="256" y="815" on="0"/>
        <pt x="256" y="866" on="1"/>
        <pt x="256" y="881" on="0"/>
        <pt x="258" y="898" on="1"/>
        <pt x="322" y="898" on="1"/>
        <pt x="321" y="891" on="0"/>
        <pt x="321" y="884" on="1"/>
        <pt x="321" y="857" on="0"/>
        <pt x="359" y="819" on="0"/>
        <pt x="434" y="819" on="0"/>
        <pt x="488" y="861" on="0"/>
        <pt x="493" y="898" on="1"/>
        <pt x="557" y="898" on="1"/>
        <pt x="547" y="824" on="0"/>
      </contour>
    </TTGlyph>
    <TTGlyph name="Acircumflex" xMin="-31" yMin="-5" xMax="622" yMax="903">
      <contour>
        <pt x="622" y="65" on="1"/>
        <pt x="607" y="-5" on="1"/>
        <pt x="562" y="0" on="0"/>
        <pt x="527" y="0" on="1"/>
        <pt x="324" y="-5" on="1"/>
        <pt x="330" y="68" on="1"/>
        <pt x="388" y="77" on="1"/>
        <pt x="392" y="129" on="1"/>
        <pt x="386" y="179" on="1"/>
        <pt x="205" y="179" on="1"/>
        <pt x="180" y="115" on="1"/>
        <pt x="169" y="77" on="1"/>
        <pt x="223" y="65" on="1"/>
        <pt x="208" y="-5" on="1"/>
        <pt x="151" y="0" on="0"/>
        <pt x="104" y="0" on="1"/>
        <pt x="-31" y="-5" on="1"/>
        <pt x="-26" y="68" on="1"/>
        <pt x="18" y="75" on="1"/>
        <pt x="71" y="161" on="1"/>
        <pt x="332" y="705" on="1"/>
        <pt x="446" y="716" on="1"/>
        <pt x="556" y="128" on="1"/>
        <pt x="569" y="74" on="1"/>
      </contour>
      <contour>
        <pt x="347" y="498" on="1"/>
        <pt x="244" y="261" on="1"/>
        <pt x="373" y="263" on="1"/>
      </contour>
      <contour>
        <pt x="409" y="903" on="1"/>
        <pt x="580" y="770" on="1"/>
        <pt x="525" y="712" on="1"/>
        <pt x="468" y="760" on="1"/>
        <pt x="393" y="802" on="1"/>
        <pt x="305" y="760" on="1"/>
        <pt x="232" y="712" on="1"/>
        <pt x="196" y="770" on="1"/>
      </contour>
    </TTGlyph>
    <TTGlyph name="Adieresis" xMin="-31" yMin="-5" xMax="622" yMax="896">
      <contour>
        <pt x="622" y="65" on="1"/>
        <pt x="607" y="-5" on="1"/>
        <pt x="562" y="0" on="0"/>
        <pt x="527" y="0" on="1"/>
        <pt x="324" y="-5" on="1"/>
        <pt x="330" y="68" on="1"/>
        <pt x="388" y="77" on="1"/>
        <pt x="392" y="129" on="1"/>
        <pt x="386" y="179" on="1"/>
        <pt x="205" y="179" on="1"/>
        <pt x="180" y="115" on="1"/>
        <pt x="169" y="77" on="1"/>
        <pt x="223" y="65" on="1"/>
        <pt x="208" y="-5" on="1"/>
        <pt x="151" y="0" on="0"/>
        <pt x="104" y="0" on="1"/>
        <pt x="-31" y="-5" on="1"/>
        <pt x="-26" y="68" on="1"/>
        <pt x="18" y="75" on="1"/>
        <pt x="71" y="161" on="1"/>
        <pt x="332" y="705" on="1"/>
        <pt x="446" y="716" on="1"/>
        <pt x="556" y="128" on="1"/>
        <pt x="569" y="74" on="1"/>
      </contour>
      <contour>
        <pt x="347" y="498" on="1"/>
        <pt x="244" y="261" on="1"/>
        <pt x="373" y="263" on="1"/>
      </contour>
      <contour>
        <pt x="293" y="896" on="1"/>
        <pt x="349" y="896" on="0"/>
        <pt x="349" y="839" on="1"/>
        <pt x="349" y="803" on="0"/>
        <pt x="309" y="757" on="0"/>
        <pt x="245" y="757" on="0"/>
        <pt x="216" y="788" on="0"/>
        <pt x="216" y="850" on="0"/>
        <pt x="257" y="896" on="0"/>
      </contour>
      <contour>
        <pt x="523" y="896" on="1"/>
        <pt x="579" y="896" on="0"/>
        <pt x="579" y="839" on="1"/>
        <pt x="579" y="803" on="0"/>
        <pt x="539" y="757" on="0"/>
        <pt x="503" y="757" on="1"/>
        <pt x="447" y="757" on="0"/>
        <pt x="447" y="814" on="1"/>
        <pt x="447" y="850" on="0"/>
        <pt x="487" y="896" on="0"/>
      </contour>
    </TTGlyph>
    <TTGlyph name="Agrave" xMin="-31" yMin="-5" xMax="622" yMax="908">
      <contour>
        <pt x="622" y="65" on="1"/>
        <pt x="607" y="-5" on="1"/>
        <pt x="562" y="0" on="0"/>
        <pt x="527" y="0" on="1"/>
        <pt x="324" y="-5" on="1"/>
        <pt x="330" y="68" on="1"/>
        <pt x="388" y="77" on="1"/>
        <pt x="392" y="129" on="1"/>
        <pt x="386" y="179" on="1"/>
        <pt x="205" y="179" on="1"/>
        <pt x="180" y="115" on="1"/>
        <pt x="169" y="77" on="1"/>
        <pt x="223" y="65" on="1"/>
        <pt x="208" y="-5" on="1"/>
        <pt x="151" y="0" on="0"/>
        <pt x="104" y="0" on="1"/>
        <pt x="-31" y="-5" on="1"/>
        <pt x="-26" y="68" on="1"/>
        <pt x="18" y="75" on="1"/>
        <pt x="71" y="161" on="1"/>
        <pt x="332" y="705" on="1"/>
        <pt x="446" y="716" on="1"/>
        <pt x="556" y="128" on="1"/>
        <pt x="569" y="74" on="1"/>
      </contour>
      <contour>
        <pt x="347" y="498" on="1"/>
        <pt x="244" y="261" on="1"/>
        <pt x="373" y="263" on="1"/>
      </contour>
      <contour>
        <pt x="510" y="804" on="1"/>
        <pt x="474" y="740" on="1"/>
        <pt x="402" y="778" on="1"/>
        <pt x="245" y="824" on="1"/>
        <pt x="280" y="908" on="1"/>
      </contour>
    </TTGlyph>
    <TTGlyph name="Amacron" xMin="-31" yMin="-5" xMax="622" yMax="844">
      <contour>
        <pt x="622" y="65" on="1"/>
        <pt x="607" y="-5" on="1"/>
        <pt x="562" y="0" on="0"/>
        <pt x="527" y="0" on="1"/>
        <pt x="324" y="-5" on="1"/>
        <pt x="330" y="68" on="1"/>
        <pt x="388" y="77" on="1"/>
        <pt x="392" y="129" on="1"/>
        <pt x="386" y="179" on="1"/>
        <pt x="205" y="179" on="1"/>
        <pt x="180" y="115" on="1"/>
        <pt x="169" y="77" on="1"/>
        <pt x="223" y="65" on="1"/>
        <pt x="208" y="-5" on="1"/>
        <pt x="151" y="0" on="0"/>
        <pt x="104" y="0" on="1"/>
        <pt x="-31" y="-5" on="1"/>
        <pt x="-26" y="68" on="1"/>
        <pt x="18" y="75" on="1"/>
        <pt x="71" y="161" on="1"/>
        <pt x="332" y="705" on="1"/>
        <pt x="446" y="716" on="1"/>
        <pt x="556" y="128" on="1"/>
        <pt x="569" y="74" on="1"/>
      </contour>
      <contour>
        <pt x="347" y="498" on="1"/>
        <pt x="244" y="261" on="1"/>
        <pt x="373" y="263" on="1"/>
      </contour>
      <contour>
        <pt x="567" y="771" on="1"/>
        <pt x="241" y="771" on="1"/>
        <pt x="252" y="844" on="1"/>
        <pt x="585" y="844" on="1"/>
      </contour>
    </TTGlyph>
    <TTGlyph name="Aogonek" xMin="-33" yMin="-197" xMax="619" yMax="716">
      <contour>
        <pt x="354" y="-93" on="1"/>
        <pt x="354" y="-133" on="0"/>
        <pt x="392" y="-133" on="1"/>
        <pt x="406" y="-133" on="0"/>
        <pt x="426" y="-126" on="1"/>
        <pt x="437" y="-174" on="1"/>
        <pt x="386" y="-197" on="0"/>
        <pt x="297" y="-197" on="0"/>
        <pt x="247" y="-158" on="0"/>
        <pt x="247" y="-94" on="0"/>
        <pt x="277" y="-47" on="0"/>
        <pt x="320" y="-9" on="0"/>
        <pt x="341" y="10" on="1"/>
        <pt x="392" y="58" on="0"/>
        <pt x="392" y="120" on="1"/>
        <pt x="392" y="129" on="1"/>
        <pt x="386" y="179" on="1"/>
        <pt x="202" y="179" on="1"/>
        <pt x="177" y="115" on="1"/>
        <pt x="165" y="77" on="1"/>
        <pt x="219" y="65" on="1"/>
        <pt x="204" y="-5" on="1"/>
        <pt x="148" y="0" on="0"/>
        <pt x="103" y="0" on="1"/>
        <pt x="-33" y="-5" on="1"/>
        <pt x="-27" y="68" on="1"/>
        <pt x="18" y="75" on="1"/>
        <pt x="70" y="161" on="1"/>
        <pt x="334" y="705" on="1"/>
        <pt x="443" y="716" on="1"/>
        <pt x="552" y="128" on="1"/>
        <pt x="567" y="74" on="1"/>
        <pt x="619" y="65" on="1"/>
        <pt x="604" y="-5" on="1"/>
        <pt x="558" y="0" on="0"/>
        <pt x="524" y="0" on="1"/>
        <pt x="440" y="0" on="1"/>
        <pt x="402" y="-6" on="0"/>
        <pt x="354" y="-63" on="0"/>
      </contour>
      <contour>
        <pt x="345" y="498" on="1"/>
        <pt x="241" y="261" on="1"/>
        <pt x="372" y="263" on="1"/>
      </contour>
    </TTGlyph>
    <TTGlyph name="Aring" xMin="-31" yMin="-5" xMax="622" yMax="926">
      <contour>
        <pt x="622" y="65" on="1"/>
        <pt x="607" y="-5" on="1"/>
        <pt x="562" y="0" on="0"/>
        <pt x="527" y="0" on="1"/>
        <pt x="324" y="-5" on="1"/>
        <pt x="330" y="68" on="1"/>
        <pt x="388" y="77" on="1"/>
        <pt x="392" y="129" on="1"/>
        <pt x="386" y="179" on="1"/>
        <pt x="205" y="179" on="1"/>
        <pt x="180" y="115" on="1"/>
        <pt x="169" y="77" on="1"/>
        <pt x="223" y="65" on="1"/>
        <pt x="208" y="-5" on="1"/>
        <pt x="151" y="0" on="0"/>
        <pt x="104" y="0" on="1"/>
        <pt x="-31" y="-5" on="1"/>
        <pt x="-26" y="68" on="1"/>
        <pt x="18" y="75" on="1"/>
        <pt x="71" y="161" on="1"/>
        <pt x="332" y="705" on="1"/>
        <pt x="446" y="716" on="1"/>
        <pt x="556" y="128" on="1"/>
        <pt x="569" y="74" on="1"/>
      </contour>
      <contour>
        <pt x="347" y="498" on="1"/>
        <pt x="244" y="261" on="1"/>
        <pt x="373" y="263" on="1"/>
      </contour>
      <contour>
        <pt x="307" y="864" on="0"/>
        <pt x="366" y="926" on="0"/>
        <pt x="413" y="926" on="1"/>
        <pt x="503" y="926" on="0"/>
        <pt x="503" y="846" on="1"/>
        <pt x="503" y="796" on="0"/>
        <pt x="444" y="735" on="0"/>
        <pt x="350" y="735" on="0"/>
        <pt x="307" y="778" on="0"/>
      </contour>
      <contour>
        <pt x="411" y="868" on="1"/>
        <pt x="392" y="868" on="0"/>
        <pt x="374" y="841" on="0"/>
        <pt x="374" y="823" on="1"/>
        <pt x="374" y="793" on="0"/>
        <pt x="400" y="793" on="1"/>
        <pt x="418" y="793" on="0"/>
        <pt x="437" y="820" on="0"/>
        <pt x="437" y="837" on="1"/>
        <pt x="437" y="868" on="0"/>
      </contour>
    </TTGlyph>
    <TTGlyph name="Aringacute" xMin="-31" yMin="-5" xMax="622" yMax="1039">
      <contour>
        <pt x="622" y="65" on="1"/>
        <pt x="607" y="-5" on="1"/>
        <pt x="562" y="0" on="0"/>
        <pt x="527" y="0" on="1"/>
        <pt x="324" y="-5" on="1"/>
        <pt x="330" y="68" on="1"/>
        <pt x="388" y="77" on="1"/>
        <pt x="392" y="129" on="1"/>
        <pt x="386" y="179" on="1"/>
        <pt x="205" y="179" on="1"/>
        <pt x="180" y="115" on="1"/>
        <pt x="169" y="77" on="1"/>
        <pt x="223" y="65" on="1"/>
        <pt x="208" y="-5" on="1"/>
        <pt x="151" y="0" on="0"/>
        <pt x="104" y="0" on="1"/>
        <pt x="-31" y="-5" on="1"/>
        <pt x="-26" y="68" on="1"/>
        <pt x="18" y="75" on="1"/>
        <pt x="71" y="161" on="1"/>
        <pt x="332" y="705" on="1"/>
        <pt x="446" y="716" on="1"/>
        <pt x="556" y="128" on="1"/>
        <pt x="569" y="74" on="1"/>
      </contour>
      <contour>
        <pt x="347" y="498" on="1"/>
        <pt x="244" y="261" on="1"/>
        <pt x="373" y="263" on="1"/>
      </contour>
      <contour>
        <pt x="310" y="850" on="0"/>
        <pt x="360" y="902" on="0"/>
        <pt x="400" y="902" on="1"/>
        <pt x="477" y="902" on="0"/>
        <pt x="477" y="834" on="1"/>
        <pt x="477" y="791" on="0"/>
        <pt x="427" y="739" on="0"/>
        <pt x="347" y="739" on="0"/>
        <pt x="310" y="776" on="0"/>
      </contour>
      <contour>
        <pt x="399" y="853" on="1"/>
        <pt x="383" y="853" on="0"/>
        <pt x="367" y="829" on="0"/>
        <pt x="367" y="814" on="1"/>
        <pt x="367" y="789" on="0"/>
        <pt x="389" y="789" on="1"/>
        <pt x="404" y="789" on="0"/>
        <pt x="421" y="811" on="0"/>
        <pt x="421" y="826" on="1"/>
        <pt x="421" y="853" on="0"/>
      </contour>
      <contour>
        <pt x="464" y="1039" on="1"/>
        <pt x="495" y="964" on="1"/>
        <pt x="370" y="928" on="0"/>
        <pt x="353" y="922" on="1"/>
        <pt x="289" y="888" on="1"/>
        <pt x="257" y="946" on="1"/>
      </contour>
    </TTGlyph>
    <TTGlyph name="Atilde" xMin="-31" yMin="-5" xMax="622" yMax="883">
      <contour>
        <pt x="622" y="65" on="1"/>
        <pt x="607" y="-5" on="1"/>
        <pt x="562" y="0" on="0"/>
        <pt x="527" y="0" on="1"/>
        <pt x="324" y="-5" on="1"/>
        <pt x="330" y="68" on="1"/>
        <pt x="388" y="77" on="1"/>
        <pt x="392" y="129" on="1"/>
        <pt x="386" y="179" on="1"/>
        <pt x="205" y="179" on="1"/>
        <pt x="180" y="115" on="1"/>
        <pt x="169" y="77" on="1"/>
        <pt x="223" y="65" on="1"/>
        <pt x="208" y="-5" on="1"/>
        <pt x="151" y="0" on="0"/>
        <pt x="104" y="0" on="1"/>
        <pt x="-31" y="-5" on="1"/>
        <pt x="-26" y="68" on="1"/>
        <pt x="18" y="75" on="1"/>
        <pt x="71" y="161" on="1"/>
        <pt x="332" y="705" on="1"/>
        <pt x="446" y="716" on="1"/>
        <pt x="556" y="128" on="1"/>
        <pt x="569" y="74" on="1"/>
      </contour>
      <contour>
        <pt x="347" y="498" on="1"/>
        <pt x="244" y="261" on="1"/>
        <pt x="373" y="263" on="1"/>
      </contour>
      <contour>
        <pt x="558" y="810" on="0"/>
        <pt x="502" y="754" on="0"/>
        <pt x="460" y="754" on="0"/>
        <pt x="342" y="792" on="0"/>
        <pt x="325" y="792" on="1"/>
        <pt x="298" y="792" on="0"/>
        <pt x="271" y="760" on="1"/>
        <pt x="262" y="750" on="1"/>
        <pt x="219" y="778" on="1"/>
        <pt x="243" y="819" on="0"/>
        <pt x="306" y="883" on="0"/>
        <pt x="347" y="883" on="0"/>
        <pt x="467" y="845" on="0"/>
        <pt x="484" y="845" on="1"/>
        <pt x="511" y="845" on="0"/>
        <pt x="535" y="874" on="1"/>
        <pt x="543" y="883" on="1"/>
        <pt x="588" y="855" on="1"/>
        <pt x="581" y="844" on="0"/>
      </contour>
    </TTGlyph>
    <TTGlyph name="B" xMin="18" yMin="-5" xMax="623" yMax="715">
      <contour>
        <pt x="218" y="705" on="1"/>
        <pt x="421" y="715" on="1"/>
        <pt x="508" y="715" on="0"/>
        <pt x="623" y="633" on="0"/>
        <pt x="623" y="493" on="0"/>
        <pt x="528" y="388" on="0"/>
        <pt x="456" y="371" on="1"/>
        <pt x="455" y="364" on="1"/>
        <pt x="522" y="354" on="0"/>
        <pt x="601" y="277" on="0"/>
        <pt x="601" y="214" on="1"/>
        <pt x="601" y="108" on="0"/>
        <pt x="445" y="-5" on="0"/>
        <pt x="331" y="-5" on="1"/>
        <pt x="111" y="0" on="1"/>
        <pt x="18" y="-5" on="1"/>
        <pt x="23" y="65" on="1"/>
        <pt x="85" y="77" on="1"/>
        <pt x="102" y="125" on="0"/>
        <pt x="106" y="163" on="1"/>
        <pt x="160" y="512" on="1"/>
        <pt x="168" y="563" on="0"/>
        <pt x="168" y="612" on="0"/>
        <pt x="167" y="623" on="1"/>
        <pt x="110" y="635" on="1"/>
        <pt x="126" y="710" on="1"/>
        <pt x="171" y="705" on="0"/>
      </contour>
      <contour>
        <pt x="307" y="77" on="1"/>
        <pt x="369" y="77" on="0"/>
        <pt x="449" y="157" on="0"/>
        <pt x="449" y="274" on="0"/>
        <pt x="386" y="320" on="0"/>
        <pt x="337" y="320" on="1"/>
        <pt x="328" y="320" on="1"/>
        <pt x="347" y="407" on="1"/>
        <pt x="353" y="407" on="1"/>
        <pt x="406" y="407" on="0"/>
        <pt x="475" y="481" on="0"/>
        <pt x="475" y="545" on="1"/>
        <pt x="475" y="583" on="0"/>
        <pt x="425" y="633" on="0"/>
        <pt x="385" y="633" on="1"/>
        <pt x="367" y="633" on="0"/>
        <pt x="335" y="629" on="1"/>
        <pt x="329" y="604" on="0"/>
        <pt x="319" y="542" on="1"/>
        <pt x="266" y="193" on="1"/>
        <pt x="255" y="125" on="0"/>
        <pt x="252" y="80" on="1"/>
        <pt x="279" y="77" on="0"/>
      </contour>
    </TTGlyph>
    <TTGlyph name="C" xMin="34" yMin="-15" xMax="641" yMax="720">
      <contour>
        <pt x="332" y="-15" on="1"/>
        <pt x="187" y="-15" on="0"/>
        <pt x="34" y="148" on="0"/>
        <pt x="34" y="287" on="1"/>
        <pt x="34" y="478" on="0"/>
        <pt x="244" y="720" on="0"/>
        <pt x="433" y="720" on="1"/>
        <pt x="511" y="720" on="0"/>
        <pt x="641" y="686" on="1"/>
        <pt x="603" y="507" on="1"/>
        <pt x="528" y="511" on="1"/>
        <pt x="534" y="572" on="1"/>
        <pt x="535" y="581" on="0"/>
        <pt x="528" y="613" on="1"/>
        <pt x="467" y="627" on="0"/>
        <pt x="367" y="627" on="0"/>
        <pt x="283" y="565" on="0"/>
        <pt x="260" y="514" on="1"/>
        <pt x="213" y="412" on="0"/>
        <pt x="213" y="277" on="1"/>
        <pt x="213" y="187" on="0"/>
        <pt x="275" y="78" on="0"/>
        <pt x="396" y="78" on="0"/>
        <pt x="463" y="93" on="1"/>
        <pt x="464" y="95" on="0"/>
        <pt x="470" y="106" on="1"/>
        <pt x="486" y="137" on="0"/>
        <pt x="486" y="142" on="1"/>
        <pt x="496" y="189" on="1"/>
        <pt x="570" y="191" on="1"/>
        <pt x="553" y="19" on="1"/>
        <pt x="413" y="-15" on="0"/>
      </contour>
    </TTGlyph>
    <TTGlyph name="Cacute" xMin="34" yMin="-15" xMax="641" yMax="908">
      <contour>
        <pt x="332" y="-15" on="1"/>
        <pt x="187" y="-15" on="0"/>
        <pt x="34" y="148" on="0"/>
        <pt x="34" y="287" on="1"/>
        <pt x="34" y="478" on="0"/>
        <pt x="244" y="720" on="0"/>
        <pt x="433" y="720" on="1"/>
        <pt x="511" y="720" on="0"/>
        <pt x="641" y="686" on="1"/>
        <pt x="603" y="507" on="1"/>
        <pt x="528" y="511" on="1"/>
        <pt x="534" y="572" on="1"/>
        <pt x="535" y="581" on="0"/>
        <pt x="528" y="613" on="1"/>
        <pt x="467" y="627" on="0"/>
        <pt x="367" y="627" on="0"/>
        <pt x="283" y="565" on="0"/>
        <pt x="260" y="514" on="1"/>
        <pt x="213" y="412" on="0"/>
        <pt x="213" y="277" on="1"/>
        <pt x="213" y="187" on="0"/>
        <pt x="275" y="78" on="0"/>
        <pt x="396" y="78" on="0"/>
        <pt x="463" y="93" on="1"/>
        <pt x="464" y="95" on="0"/>
        <pt x="470" y="106" on="1"/>
        <pt x="486" y="137" on="0"/>
        <pt x="486" y="142" on="1"/>
        <pt x="496" y="189" on="1"/>
        <pt x="570" y="191" on="1"/>
        <pt x="553" y="19" on="1"/>
        <pt x="413" y="-15" on="0"/>
      </contour>
      <contour>
        <pt x="525" y="908" on="1"/>
        <pt x="560" y="824" on="1"/>
        <pt x="421" y="784" on="0"/>
        <pt x="402" y="778" on="1"/>
        <pt x="331" y="740" on="1"/>
        <pt x="295" y="804" on="1"/>
      </contour>
    </TTGlyph>
    <TTGlyph name="Ccaron" xMin="34" yMin="-15" xMax="648" yMax="939">
      <contour>
        <pt x="332" y="-15" on="1"/>
        <pt x="187" y="-15" on="0"/>
        <pt x="34" y="148" on="0"/>
        <pt x="34" y="287" on="1"/>
        <pt x="34" y="478" on="0"/>
        <pt x="244" y="720" on="0"/>
        <pt x="433" y="720" on="1"/>
        <pt x="511" y="720" on="0"/>
        <pt x="641" y="686" on="1"/>
        <pt x="603" y="507" on="1"/>
        <pt x="528" y="511" on="1"/>
        <pt x="534" y="572" on="1"/>
        <pt x="535" y="581" on="0"/>
        <pt x="528" y="613" on="1"/>
        <pt x="467" y="627" on="0"/>
        <pt x="367" y="627" on="0"/>
        <pt x="283" y="565" on="0"/>
        <pt x="260" y="514" on="1"/>
        <pt x="213" y="412" on="0"/>
        <pt x="213" y="277" on="1"/>
        <pt x="213" y="187" on="0"/>
        <pt x="275" y="78" on="0"/>
        <pt x="396" y="78" on="0"/>
        <pt x="463" y="93" on="1"/>
        <pt x="464" y="95" on="0"/>
        <pt x="470" y="106" on="1"/>
        <pt x="486" y="137" on="0"/>
        <pt x="486" y="142" on="1"/>
        <pt x="496" y="189" on="1"/>
        <pt x="570" y="191" on="1"/>
        <pt x="553" y="19" on="1"/>
        <pt x="413" y="-15" on="0"/>
      </contour>
      <contour>
        <pt x="610" y="939" on="1"/>
        <pt x="648" y="881" on="1"/>
        <pt x="436" y="748" on="1"/>
        <pt x="264" y="881" on="1"/>
        <pt x="317" y="939" on="1"/>
        <pt x="375" y="890" on="1"/>
        <pt x="451" y="849" on="1"/>
        <pt x="538" y="890" on="1"/>
      </contour>
    </TTGlyph>
    <TTGlyph name="Ccedilla" xMin="34" yMin="-235" xMax="641" yMax="720">
      <contour>
        <pt x="427" y="-134" on="1"/>
        <pt x="427" y="-184" on="0"/>
        <pt x="356" y="-235" on="0"/>
        <pt x="247" y="-235" on="0"/>
        <pt x="211" y="-217" on="1"/>
        <pt x="236" y="-168" on="1"/>
        <pt x="269" y="-179" on="0"/>
        <pt x="288" y="-179" on="1"/>
        <pt x="339" y="-179" on="0"/>
        <pt x="339" y="-141" on="1"/>
        <pt x="339" y="-115" on="0"/>
        <pt x="302" y="-115" on="1"/>
        <pt x="282" y="-116" on="1"/>
        <pt x="273" y="-102" on="1"/>
        <pt x="294" y="-13" on="1"/>
        <pt x="167" y="-3" on="0"/>
        <pt x="34" y="157" on="0"/>
        <pt x="34" y="287" on="1"/>
        <pt x="34" y="478" on="0"/>
        <pt x="244" y="720" on="0"/>
        <pt x="433" y="720" on="1"/>
        <pt x="511" y="720" on="0"/>
        <pt x="641" y="686" on="1"/>
        <pt x="603" y="507" on="1"/>
        <pt x="528" y="511" on="1"/>
        <pt x="534" y="572" on="1"/>
        <pt x="535" y="581" on="0"/>
        <pt x="528" y="613" on="1"/>
        <pt x="467" y="627" on="0"/>
        <pt x="367" y="627" on="0"/>
        <pt x="283" y="565" on="0"/>
        <pt x="260" y="514" on="1"/>
        <pt x="213" y="412" on="0"/>
        <pt x="213" y="277" on="1"/>
        <pt x="213" y="187" on="0"/>
        <pt x="275" y="78" on="0"/>
        <pt x="396" y="78" on="0"/>
        <pt x="463" y="93" on="1"/>
        <pt x="464" y="95" on="0"/>
        <pt x="470" y="106" on="1"/>
        <pt x="486" y="137" on="0"/>
        <pt x="486" y="142" on="1"/>
        <pt x="496" y="189" on="1"/>
        <pt x="570" y="191" on="1"/>
        <pt x="553" y="19" on="1"/>
        <pt x="434" y="-11" on="0"/>
        <pt x="355" y="-14" on="1"/>
        <pt x="340" y="-59" on="1"/>
        <pt x="379" y="-60" on="0"/>
        <pt x="427" y="-100" on="0"/>
      </contour>
    </TTGlyph>
    <TTGlyph name="Ccircumflex" xMin="34" yMin="-15" xMax="641" yMax="943">
      <contour>
        <pt x="332" y="-15" on="1"/>
        <pt x="187" y="-15" on="0"/>
        <pt x="34" y="148" on="0"/>
        <pt x="34" y="287" on="1"/>
        <pt x="34" y="478" on="0"/>
        <pt x="244" y="720" on="0"/>
        <pt x="433" y="720" on="1"/>
        <pt x="511" y="720" on="0"/>
        <pt x="641" y="686" on="1"/>
        <pt x="603" y="507" on="1"/>
        <pt x="528" y="511" on="1"/>
        <pt x="534" y="572" on="1"/>
        <pt x="535" y="581" on="0"/>
        <pt x="528" y="613" on="1"/>
        <pt x="467" y="627" on="0"/>
        <pt x="367" y="627" on="0"/>
        <pt x="283" y="565" on="0"/>
        <pt x="260" y="514" on="1"/>
        <pt x="213" y="412" on="0"/>
        <pt x="213" y="277" on="1"/>
        <pt x="213" y="187" on="0"/>
        <pt x="275" y="78" on="0"/>
        <pt x="396" y="78" on="0"/>
        <pt x="463" y="93" on="1"/>
        <pt x="464" y="95" on="0"/>
        <pt x="470" y="106" on="1"/>
        <pt x="486" y="137" on="0"/>
        <pt x="486" y="142" on="1"/>
        <pt x="496" y="189" on="1"/>
        <pt x="570" y="191" on="1"/>
        <pt x="553" y="19" on="1"/>
        <pt x="413" y="-15" on="0"/>
      </contour>
      <contour>
        <pt x="462" y="943" on="1"/>
        <pt x="633" y="810" on="1"/>
        <pt x="578" y="752" on="1"/>
        <pt x="521" y="800" on="1"/>
        <pt x="446" y="842" on="1"/>
        <pt x="358" y="800" on="1"/>
        <pt x="285" y="752" on="1"/>
        <pt x="249" y="810" on="1"/>
      </contour>
    </TTGlyph>
    <TTGlyph name="Cdotaccent" xMin="34" yMin="-15" xMax="641" yMax="905">
      <contour>
        <pt x="332" y="-15" on="1"/>
        <pt x="187" y="-15" on="0"/>
        <pt x="34" y="148" on="0"/>
        <pt x="34" y="287" on="1"/>
        <pt x="34" y="478" on="0"/>
        <pt x="244" y="720" on="0"/>
        <pt x="433" y="720" on="1"/>
        <pt x="511" y="720" on="0"/>
        <pt x="641" y="686" on="1"/>
        <pt x="603" y="507" on="1"/>
        <pt x="528" y="511" on="1"/>
        <pt x="534" y="572" on="1"/>
        <pt x="535" y="581" on="0"/>
        <pt x="528" y="613" on="1"/>
        <pt x="467" y="627" on="0"/>
        <pt x="367" y="627" on="0"/>
        <pt x="283" y="565" on="0"/>
        <pt x="260" y="514" on="1"/>
        <pt x="213" y="412" on="0"/>
        <pt x="213" y="277" on="1"/>
        <pt x="213" y="187" on="0"/>
        <pt x="275" y="78" on="0"/>
        <pt x="396" y="78" on="0"/>
        <pt x="463" y="93" on="1"/>
        <pt x="464" y="95" on="0"/>
        <pt x="470" y="106" on="1"/>
        <pt x="486" y="137" on="0"/>
        <pt x="486" y="142" on="1"/>
        <pt x="496" y="189" on="1"/>
        <pt x="570" y="191" on="1"/>
        <pt x="553" y="19" on="1"/>
        <pt x="413" y="-15" on="0"/>
      </contour>
      <contour>
        <pt x="358" y="853" on="0"/>
        <pt x="406" y="905" on="0"/>
        <pt x="479" y="905" on="0"/>
        <pt x="514" y="870" on="0"/>
        <pt x="514" y="798" on="0"/>
        <pt x="466" y="746" on="0"/>
        <pt x="393" y="746" on="0"/>
        <pt x="358" y="782" on="0"/>
      </contour>
    </TTGlyph>
    <TTGlyph name="D" xMin="12" yMin="-6" xMax="714" yMax="715">
      <contour>
        <pt x="214" y="705" on="1"/>
        <pt x="416" y="715" on="1"/>
        <pt x="561" y="715" on="0"/>
        <pt x="714" y="552" on="0"/>
        <pt x="714" y="415" on="1"/>
        <pt x="714" y="229" on="0"/>
        <pt x="506" y="-6" on="0"/>
        <pt x="317" y="-6" on="1"/>
        <pt x="108" y="0" on="1"/>
        <pt x="12" y="-5" on="1"/>
        <pt x="17" y="65" on="1"/>
        <pt x="82" y="77" on="1"/>
        <pt x="101" y="143" on="0"/>
        <pt x="103" y="163" on="1"/>
        <pt x="154" y="512" on="1"/>
        <pt x="162" y="556" on="0"/>
        <pt x="162" y="606" on="1"/>
        <pt x="162" y="623" on="1"/>
        <pt x="101" y="635" on="1"/>
        <pt x="117" y="710" on="1"/>
        <pt x="167" y="705" on="0"/>
      </contour>
      <contour>
        <pt x="393" y="632" on="1"/>
        <pt x="375" y="632" on="0"/>
        <pt x="329" y="624" on="1"/>
        <pt x="329" y="623" on="0"/>
        <pt x="315" y="552" on="0"/>
        <pt x="314" y="542" on="1"/>
        <pt x="263" y="193" on="1"/>
        <pt x="255" y="146" on="0"/>
        <pt x="250" y="80" on="1"/>
        <pt x="277" y="77" on="0"/>
        <pt x="310" y="77" on="1"/>
        <pt x="377" y="77" on="0"/>
        <pt x="475" y="139" on="0"/>
        <pt x="500" y="192" on="1"/>
        <pt x="548" y="292" on="0"/>
        <pt x="548" y="423" on="1"/>
        <pt x="548" y="517" on="0"/>
        <pt x="474" y="632" on="0"/>
      </contour>
    </TTGlyph>
    <TTGlyph name="Dcaron" xMin="12" yMin="-6" xMax="714" yMax="929">
      <contour>
        <pt x="214" y="705" on="1"/>
        <pt x="416" y="715" on="1"/>
        <pt x="561" y="715" on="0"/>
        <pt x="714" y="552" on="0"/>
        <pt x="714" y="415" on="1"/>
        <pt x="714" y="229" on="0"/>
        <pt x="506" y="-6" on="0"/>
        <pt x="317" y="-6" on="1"/>
        <pt x="108" y="0" on="1"/>
        <pt x="12" y="-5" on="1"/>
        <pt x="17" y="65" on="1"/>
        <pt x="82" y="77" on="1"/>
        <pt x="101" y="143" on="0"/>
        <pt x="103" y="163" on="1"/>
        <pt x="154" y="512" on="1"/>
        <pt x="162" y="556" on="0"/>
        <pt x="162" y="606" on="1"/>
        <pt x="162" y="623" on="1"/>
        <pt x="101" y="635" on="1"/>
        <pt x="117" y="710" on="1"/>
        <pt x="167" y="705" on="0"/>
      </contour>
      <contour>
        <pt x="393" y="632" on="1"/>
        <pt x="375" y="632" on="0"/>
        <pt x="329" y="624" on="1"/>
        <pt x="329" y="623" on="0"/>
        <pt x="315" y="552" on="0"/>
        <pt x="314" y="542" on="1"/>
        <pt x="263" y="193" on="1"/>
        <pt x="255" y="146" on="0"/>
        <pt x="250" y="80" on="1"/>
        <pt x="277" y="77" on="0"/>
        <pt x="310" y="77" on="1"/>
        <pt x="377" y="77" on="0"/>
        <pt x="475" y="139" on="0"/>
        <pt x="500" y="192" on="1"/>
        <pt x="548" y="292" on="0"/>
        <pt x="548" y="423" on="1"/>
        <pt x="548" y="517" on="0"/>
        <pt x="474" y="632" on="0"/>
      </contour>
      <contour>
        <pt x="563" y="929" on="1"/>
        <pt x="601" y="871" on="1"/>
        <pt x="389" y="738" on="1"/>
        <pt x="217" y="871" on="1"/>
        <pt x="270" y="929" on="1"/>
        <pt x="328" y="880" on="1"/>
        <pt x="404" y="839" on="1"/>
        <pt x="491" y="880" on="1"/>
      </contour>
    </TTGlyph>
    <TTGlyph name="Dcroat" xMin="12" yMin="-6" xMax="714" yMax="715">
      <contour>
        <pt x="317" y="-6" on="1"/>
        <pt x="108" y="0" on="1"/>
        <pt x="12" y="-5" on="1"/>
        <pt x="17" y="65" on="1"/>
        <pt x="82" y="77" on="1"/>
        <pt x="101" y="143" on="0"/>
        <pt x="103" y="163" on="1"/>
        <pt x="126" y="322" on="1"/>
        <pt x="53" y="322" on="1"/>
        <pt x="63" y="395" on="1"/>
        <pt x="137" y="395" on="1"/>
        <pt x="154" y="512" on="1"/>
        <pt x="162" y="556" on="0"/>
        <pt x="162" y="606" on="1"/>
        <pt x="162" y="623" on="1"/>
        <pt x="101" y="635" on="1"/>
        <pt x="117" y="710" on="1"/>
        <pt x="167" y="705" on="0"/>
        <pt x="214" y="705" on="1"/>
        <pt x="416" y="715" on="1"/>
        <pt x="561" y="715" on="0"/>
        <pt x="714" y="552" on="0"/>
        <pt x="714" y="415" on="1"/>
        <pt x="714" y="229" on="0"/>
        <pt x="506" y="-6" on="0"/>
      </contour>
      <contour>
        <pt x="393" y="632" on="1"/>
        <pt x="375" y="632" on="0"/>
        <pt x="329" y="624" on="1"/>
        <pt x="329" y="623" on="0"/>
        <pt x="315" y="552" on="0"/>
        <pt x="314" y="542" on="1"/>
        <pt x="292" y="395" on="1"/>
        <pt x="375" y="395" on="1"/>
        <pt x="359" y="322" on="1"/>
        <pt x="282" y="322" on="1"/>
        <pt x="263" y="193" on="1"/>
        <pt x="255" y="146" on="0"/>
        <pt x="250" y="80" on="1"/>
        <pt x="277" y="77" on="0"/>
        <pt x="310" y="77" on="1"/>
        <pt x="377" y="77" on="0"/>
        <pt x="475" y="139" on="0"/>
        <pt x="500" y="192" on="1"/>
        <pt x="548" y="292" on="0"/>
        <pt x="548" y="423" on="1"/>
        <pt x="548" y="517" on="0"/>
        <pt x="474" y="632" on="0"/>
      </contour>
    </TTGlyph>
    <TTGlyph name="Delta" xMin="-20" yMin="0" xMax="615" yMax="716">
      <contour>
        <pt x="583" y="0" on="1"/>
        <pt x="-3" y="0" on="1"/>
        <pt x="-20" y="66" on="1"/>
        <pt x="68" y="205" on="1"/>
        <pt x="336" y="705" on="1"/>
        <pt x="442" y="716" on="1"/>
        <pt x="576" y="196" on="0"/>
        <pt x="581" y="174" on="1"/>
        <pt x="615" y="69" on="1"/>
      </contour>
      <contour>
        <pt x="138" y="81" on="1"/>
        <pt x="167" y="80" on="0"/>
        <pt x="233" y="80" on="0"/>
        <pt x="425" y="84" on="1"/>
        <pt x="420" y="158" on="0"/>
        <pt x="417" y="175" on="1"/>
        <pt x="338" y="491" on="1"/>
        <pt x="166" y="159" on="1"/>
      </contour>
    </TTGlyph>
    <TTGlyph name="E" xMin="12" yMin="-5" xMax="603" yMax="715">
      <contour>
        <pt x="212" y="705" on="1"/>
        <pt x="475" y="705" on="1"/>
        <pt x="587" y="715" on="1"/>
        <pt x="603" y="697" on="1"/>
        <pt x="587" y="541" on="1"/>
        <pt x="516" y="536" on="1"/>
        <pt x="516" y="595" on="1"/>
        <pt x="516" y="607" on="0"/>
        <pt x="510" y="619" on="1"/>
        <pt x="472" y="623" on="0"/>
        <pt x="434" y="623" on="1"/>
        <pt x="329" y="623" on="1"/>
        <pt x="328" y="617" on="0"/>
        <pt x="315" y="551" on="0"/>
        <pt x="314" y="542" on="1"/>
        <pt x="293" y="399" on="1"/>
        <pt x="302" y="398" on="0"/>
        <pt x="317" y="398" on="1"/>
        <pt x="370" y="398" on="1"/>
        <pt x="390" y="398" on="0"/>
        <pt x="413" y="407" on="1"/>
        <pt x="431" y="471" on="1"/>
        <pt x="491" y="466" on="1"/>
        <pt x="481" y="403" on="0"/>
        <pt x="478" y="383" on="1"/>
        <pt x="463" y="256" on="1"/>
        <pt x="398" y="250" on="1"/>
        <pt x="398" y="310" on="1"/>
        <pt x="358" y="316" on="0"/>
        <pt x="338" y="316" on="1"/>
        <pt x="310" y="316" on="1"/>
        <pt x="287" y="316" on="0"/>
        <pt x="281" y="315" on="1"/>
        <pt x="263" y="193" on="1"/>
        <pt x="256" y="152" on="0"/>
        <pt x="250" y="87" on="1"/>
        <pt x="370" y="87" on="1"/>
        <pt x="405" y="87" on="0"/>
        <pt x="445" y="95" on="1"/>
        <pt x="459" y="116" on="0"/>
        <pt x="470" y="138" on="1"/>
        <pt x="483" y="170" on="0"/>
        <pt x="489" y="195" on="1"/>
        <pt x="557" y="190" on="1"/>
        <pt x="517" y="14" on="1"/>
        <pt x="496" y="-4" on="1"/>
        <pt x="406" y="0" on="0"/>
        <pt x="386" y="0" on="1"/>
        <pt x="109" y="0" on="1"/>
        <pt x="12" y="-5" on="1"/>
        <pt x="17" y="65" on="1"/>
        <pt x="82" y="77" on="1"/>
        <pt x="86" y="85" on="0"/>
        <pt x="102" y="148" on="0"/>
        <pt x="103" y="163" on="1"/>
        <pt x="154" y="512" on="1"/>
        <pt x="163" y="567" on="0"/>
        <pt x="163" y="614" on="0"/>
        <pt x="162" y="623" on="1"/>
        <pt x="101" y="635" on="1"/>
        <pt x="117" y="710" on="1"/>
        <pt x="176" y="705" on="0"/>
      </contour>
    </TTGlyph>
    <TTGlyph name="Eacute" xMin="12" yMin="-5" xMax="603" yMax="898">
      <contour>
        <pt x="212" y="705" on="1"/>
        <pt x="475" y="705" on="1"/>
        <pt x="587" y="715" on="1"/>
        <pt x="603" y="697" on="1"/>
        <pt x="587" y="541" on="1"/>
        <pt x="516" y="536" on="1"/>
        <pt x="516" y="595" on="1"/>
        <pt x="516" y="607" on="0"/>
        <pt x="510" y="619" on="1"/>
        <pt x="472" y="623" on="0"/>
        <pt x="434" y="623" on="1"/>
        <pt x="329" y="623" on="1"/>
        <pt x="328" y="617" on="0"/>
        <pt x="315" y="551" on="0"/>
        <pt x="314" y="542" on="1"/>
        <pt x="293" y="399" on="1"/>
        <pt x="302" y="398" on="0"/>
        <pt x="317" y="398" on="1"/>
        <pt x="370" y="398" on="1"/>
        <pt x="390" y="398" on="0"/>
        <pt x="413" y="407" on="1"/>
        <pt x="431" y="471" on="1"/>
        <pt x="491" y="466" on="1"/>
        <pt x="481" y="403" on="0"/>
        <pt x="478" y="383" on="1"/>
        <pt x="463" y="256" on="1"/>
        <pt x="398" y="250" on="1"/>
        <pt x="398" y="310" on="1"/>
        <pt x="358" y="316" on="0"/>
        <pt x="338" y="316" on="1"/>
        <pt x="310" y="316" on="1"/>
        <pt x="287" y="316" on="0"/>
        <pt x="281" y="315" on="1"/>
        <pt x="263" y="193" on="1"/>
        <pt x="256" y="152" on="0"/>
        <pt x="250" y="87" on="1"/>
        <pt x="370" y="87" on="1"/>
        <pt x="405" y="87" on="0"/>
        <pt x="445" y="95" on="1"/>
        <pt x="459" y="116" on="0"/>
        <pt x="470" y="138" on="1"/>
        <pt x="483" y="170" on="0"/>
        <pt x="489" y="195" on="1"/>
        <pt x="557" y="190" on="1"/>
        <pt x="517" y="14" on="1"/>
        <pt x="496" y="-4" on="1"/>
        <pt x="406" y="0" on="0"/>
        <pt x="386" y="0" on="1"/>
        <pt x="109" y="0" on="1"/>
        <pt x="12" y="-5" on="1"/>
        <pt x="17" y="65" on="1"/>
        <pt x="82" y="77" on="1"/>
        <pt x="86" y="85" on="0"/>
        <pt x="102" y="148" on="0"/>
        <pt x="103" y="163" on="1"/>
        <pt x="154" y="512" on="1"/>
        <pt x="163" y="567" on="0"/>
        <pt x="163" y="614" on="0"/>
        <pt x="162" y="623" on="1"/>
        <pt x="101" y="635" on="1"/>
        <pt x="117" y="710" on="1"/>
        <pt x="176" y="705" on="0"/>
      </contour>
      <contour>
        <pt x="474" y="898" on="1"/>
        <pt x="509" y="814" on="1"/>
        <pt x="370" y="774" on="0"/>
        <pt x="351" y="768" on="1"/>
        <pt x="280" y="730" on="1"/>
        <pt x="244" y="794" on="1"/>
      </contour>
    </TTGlyph>
    <TTGlyph name="Ebreve" xMin="12" yMin="-5" xMax="603" yMax="898">
      <contour>
        <pt x="212" y="705" on="1"/>
        <pt x="475" y="705" on="1"/>
        <pt x="587" y="715" on="1"/>
        <pt x="603" y="697" on="1"/>
        <pt x="587" y="541" on="1"/>
        <pt x="516" y="536" on="1"/>
        <pt x="516" y="595" on="1"/>
        <pt x="516" y="607" on="0"/>
        <pt x="510" y="619" on="1"/>
        <pt x="472" y="623" on="0"/>
        <pt x="434" y="623" on="1"/>
        <pt x="329" y="623" on="1"/>
        <pt x="328" y="617" on="0"/>
        <pt x="315" y="551" on="0"/>
        <pt x="314" y="542" on="1"/>
        <pt x="293" y="399" on="1"/>
        <pt x="302" y="398" on="0"/>
        <pt x="317" y="398" on="1"/>
        <pt x="370" y="398" on="1"/>
        <pt x="390" y="398" on="0"/>
        <pt x="413" y="407" on="1"/>
        <pt x="431" y="471" on="1"/>
        <pt x="491" y="466" on="1"/>
        <pt x="481" y="403" on="0"/>
        <pt x="478" y="383" on="1"/>
        <pt x="463" y="256" on="1"/>
        <pt x="398" y="250" on="1"/>
        <pt x="398" y="310" on="1"/>
        <pt x="358" y="316" on="0"/>
        <pt x="338" y="316" on="1"/>
        <pt x="310" y="316" on="1"/>
        <pt x="287" y="316" on="0"/>
        <pt x="281" y="315" on="1"/>
        <pt x="263" y="193" on="1"/>
        <pt x="256" y="152" on="0"/>
        <pt x="250" y="87" on="1"/>
        <pt x="370" y="87" on="1"/>
        <pt x="405" y="87" on="0"/>
        <pt x="445" y="95" on="1"/>
        <pt x="459" y="116" on="0"/>
        <pt x="470" y="138" on="1"/>
        <pt x="483" y="170" on="0"/>
        <pt x="489" y="195" on="1"/>
        <pt x="557" y="190" on="1"/>
        <pt x="517" y="14" on="1"/>
        <pt x="496" y="-4" on="1"/>
        <pt x="406" y="0" on="0"/>
        <pt x="386" y="0" on="1"/>
        <pt x="109" y="0" on="1"/>
        <pt x="12" y="-5" on="1"/>
        <pt x="17" y="65" on="1"/>
        <pt x="82" y="77" on="1"/>
        <pt x="86" y="85" on="0"/>
        <pt x="102" y="148" on="0"/>
        <pt x="103" y="163" on="1"/>
        <pt x="154" y="512" on="1"/>
        <pt x="163" y="567" on="0"/>
        <pt x="163" y="614" on="0"/>
        <pt x="162" y="623" on="1"/>
        <pt x="101" y="635" on="1"/>
        <pt x="117" y="710" on="1"/>
        <pt x="176" y="705" on="0"/>
      </contour>
      <contour>
        <pt x="427" y="743" on="0"/>
        <pt x="289" y="743" on="0"/>
        <pt x="254" y="784" on="1"/>
        <pt x="228" y="815" on="0"/>
        <pt x="228" y="866" on="1"/>
        <pt x="228" y="881" on="0"/>
        <pt x="230" y="898" on="1"/>
        <pt x="294" y="898" on="1"/>
        <pt x="293" y="891" on="0"/>
        <pt x="293" y="884" on="1"/>
        <pt x="293" y="857" on="0"/>
        <pt x="331" y="819" on="0"/>
        <pt x="406" y="819" on="0"/>
        <pt x="460" y="861" on="0"/>
        <pt x="465" y="898" on="1"/>
        <pt x="529" y="898" on="1"/>
        <pt x="519" y="824" on="0"/>
      </contour>
    </TTGlyph>
    <TTGlyph name="Ecaron" xMin="12" yMin="-5" xMax="603" yMax="919">
      <contour>
        <pt x="212" y="705" on="1"/>
        <pt x="475" y="705" on="1"/>
        <pt x="587" y="715" on="1"/>
        <pt x="603" y="697" on="1"/>
        <pt x="587" y="541" on="1"/>
        <pt x="516" y="536" on="1"/>
        <pt x="516" y="595" on="1"/>
        <pt x="516" y="607" on="0"/>
        <pt x="510" y="619" on="1"/>
        <pt x="472" y="623" on="0"/>
        <pt x="434" y="623" on="1"/>
        <pt x="329" y="623" on="1"/>
        <pt x="328" y="617" on="0"/>
        <pt x="315" y="551" on="0"/>
        <pt x="314" y="542" on="1"/>
        <pt x="293" y="399" on="1"/>
        <pt x="302" y="398" on="0"/>
        <pt x="317" y="398" on="1"/>
        <pt x="370" y="398" on="1"/>
        <pt x="390" y="398" on="0"/>
        <pt x="413" y="407" on="1"/>
        <pt x="431" y="471" on="1"/>
        <pt x="491" y="466" on="1"/>
        <pt x="481" y="403" on="0"/>
        <pt x="478" y="383" on="1"/>
        <pt x="463" y="256" on="1"/>
        <pt x="398" y="250" on="1"/>
        <pt x="398" y="310" on="1"/>
        <pt x="358" y="316" on="0"/>
        <pt x="338" y="316" on="1"/>
        <pt x="310" y="316" on="1"/>
        <pt x="287" y="316" on="0"/>
        <pt x="281" y="315" on="1"/>
        <pt x="263" y="193" on="1"/>
        <pt x="256" y="152" on="0"/>
        <pt x="250" y="87" on="1"/>
        <pt x="370" y="87" on="1"/>
        <pt x="405" y="87" on="0"/>
        <pt x="445" y="95" on="1"/>
        <pt x="459" y="116" on="0"/>
        <pt x="470" y="138" on="1"/>
        <pt x="483" y="170" on="0"/>
        <pt x="489" y="195" on="1"/>
        <pt x="557" y="190" on="1"/>
        <pt x="517" y="14" on="1"/>
        <pt x="496" y="-4" on="1"/>
        <pt x="406" y="0" on="0"/>
        <pt x="386" y="0" on="1"/>
        <pt x="109" y="0" on="1"/>
        <pt x="12" y="-5" on="1"/>
        <pt x="17" y="65" on="1"/>
        <pt x="82" y="77" on="1"/>
        <pt x="86" y="85" on="0"/>
        <pt x="102" y="148" on="0"/>
        <pt x="103" y="163" on="1"/>
        <pt x="154" y="512" on="1"/>
        <pt x="163" y="567" on="0"/>
        <pt x="163" y="614" on="0"/>
        <pt x="162" y="623" on="1"/>
        <pt x="101" y="635" on="1"/>
        <pt x="117" y="710" on="1"/>
        <pt x="176" y="705" on="0"/>
      </contour>
      <contour>
        <pt x="532" y="919" on="1"/>
        <pt x="570" y="861" on="1"/>
        <pt x="358" y="728" on="1"/>
        <pt x="186" y="861" on="1"/>
        <pt x="239" y="919" on="1"/>
        <pt x="297" y="870" on="1"/>
        <pt x="373" y="829" on="1"/>
        <pt x="460" y="870" on="1"/>
      </contour>
    </TTGlyph>
    <TTGlyph name="Ecircumflex" xMin="12" yMin="-5" xMax="603" yMax="943">
      <contour>
        <pt x="212" y="705" on="1"/>
        <pt x="475" y="705" on="1"/>
        <pt x="587" y="715" on="1"/>
        <pt x="603" y="697" on="1"/>
        <pt x="587" y="541" on="1"/>
        <pt x="516" y="536" on="1"/>
        <pt x="516" y="595" on="1"/>
        <pt x="516" y="607" on="0"/>
        <pt x="510" y="619" on="1"/>
        <pt x="472" y="623" on="0"/>
        <pt x="434" y="623" on="1"/>
        <pt x="329" y="623" on="1"/>
        <pt x="328" y="617" on="0"/>
        <pt x="315" y="551" on="0"/>
        <pt x="314" y="542" on="1"/>
        <pt x="293" y="399" on="1"/>
        <pt x="302" y="398" on="0"/>
        <pt x="317" y="398" on="1"/>
        <pt x="370" y="398" on="1"/>
        <pt x="390" y="398" on="0"/>
        <pt x="413" y="407" on="1"/>
        <pt x="431" y="471" on="1"/>
        <pt x="491" y="466" on="1"/>
        <pt x="481" y="403" on="0"/>
        <pt x="478" y="383" on="1"/>
        <pt x="463" y="256" on="1"/>
        <pt x="398" y="250" on="1"/>
        <pt x="398" y="310" on="1"/>
        <pt x="358" y="316" on="0"/>
        <pt x="338" y="316" on="1"/>
        <pt x="310" y="316" on="1"/>
        <pt x="287" y="316" on="0"/>
        <pt x="281" y="315" on="1"/>
        <pt x="263" y="193" on="1"/>
        <pt x="256" y="152" on="0"/>
        <pt x="250" y="87" on="1"/>
        <pt x="370" y="87" on="1"/>
        <pt x="405" y="87" on="0"/>
        <pt x="445" y="95" on="1"/>
        <pt x="459" y="116" on="0"/>
        <pt x="470" y="138" on="1"/>
        <pt x="483" y="170" on="0"/>
        <pt x="489" y="195" on="1"/>
        <pt x="557" y="190" on="1"/>
        <pt x="517" y="14" on="1"/>
        <pt x="496" y="-4" on="1"/>
        <pt x="406" y="0" on="0"/>
        <pt x="386" y="0" on="1"/>
        <pt x="109" y="0" on="1"/>
        <pt x="12" y="-5" on="1"/>
        <pt x="17" y="65" on="1"/>
        <pt x="82" y="77" on="1"/>
        <pt x="86" y="85" on="0"/>
        <pt x="102" y="148" on="0"/>
        <pt x="103" y="163" on="1"/>
        <pt x="154" y="512" on="1"/>
        <pt x="163" y="567" on="0"/>
        <pt x="163" y="614" on="0"/>
        <pt x="162" y="623" on="1"/>
        <pt x="101" y="635" on="1"/>
        <pt x="117" y="710" on="1"/>
        <pt x="176" y="705" on="0"/>
      </contour>
      <contour>
        <pt x="381" y="943" on="1"/>
        <pt x="552" y="810" on="1"/>
        <pt x="497" y="752" on="1"/>
        <pt x="440" y="800" on="1"/>
        <pt x="365" y="842" on="1"/>
        <pt x="277" y="800" on="1"/>
        <pt x="204" y="752" on="1"/>
        <pt x="168" y="810" on="1"/>
      </contour>
    </TTGlyph>
    <TTGlyph name="Edieresis" xMin="12" yMin="-5" xMax="603" yMax="896">
      <contour>
        <pt x="212" y="705" on="1"/>
        <pt x="475" y="705" on="1"/>
        <pt x="587" y="715" on="1"/>
        <pt x="603" y="697" on="1"/>
        <pt x="587" y="541" on="1"/>
        <pt x="516" y="536" on="1"/>
        <pt x="516" y="595" on="1"/>
        <pt x="516" y="607" on="0"/>
        <pt x="510" y="619" on="1"/>
        <pt x="472" y="623" on="0"/>
        <pt x="434" y="623" on="1"/>
        <pt x="329" y="623" on="1"/>
        <pt x="328" y="617" on="0"/>
        <pt x="315" y="551" on="0"/>
        <pt x="314" y="542" on="1"/>
        <pt x="293" y="399" on="1"/>
        <pt x="302" y="398" on="0"/>
        <pt x="317" y="398" on="1"/>
        <pt x="370" y="398" on="1"/>
        <pt x="390" y="398" on="0"/>
        <pt x="413" y="407" on="1"/>
        <pt x="431" y="471" on="1"/>
        <pt x="491" y="466" on="1"/>
        <pt x="481" y="403" on="0"/>
        <pt x="478" y="383" on="1"/>
        <pt x="463" y="256" on="1"/>
        <pt x="398" y="250" on="1"/>
        <pt x="398" y="310" on="1"/>
        <pt x="358" y="316" on="0"/>
        <pt x="338" y="316" on="1"/>
        <pt x="310" y="316" on="1"/>
        <pt x="287" y="316" on="0"/>
        <pt x="281" y="315" on="1"/>
        <pt x="263" y="193" on="1"/>
        <pt x="256" y="152" on="0"/>
        <pt x="250" y="87" on="1"/>
        <pt x="370" y="87" on="1"/>
        <pt x="405" y="87" on="0"/>
        <pt x="445" y="95" on="1"/>
        <pt x="459" y="116" on="0"/>
        <pt x="470" y="138" on="1"/>
        <pt x="483" y="170" on="0"/>
        <pt x="489" y="195" on="1"/>
        <pt x="557" y="190" on="1"/>
        <pt x="517" y="14" on="1"/>
        <pt x="496" y="-4" on="1"/>
        <pt x="406" y="0" on="0"/>
        <pt x="386" y="0" on="1"/>
        <pt x="109" y="0" on="1"/>
        <pt x="12" y="-5" on="1"/>
        <pt x="17" y="65" on="1"/>
        <pt x="82" y="77" on="1"/>
        <pt x="86" y="85" on="0"/>
        <pt x="102" y="148" on="0"/>
        <pt x="103" y="163" on="1"/>
        <pt x="154" y="512" on="1"/>
        <pt x="163" y="567" on="0"/>
        <pt x="163" y="614" on="0"/>
        <pt x="162" y="623" on="1"/>
        <pt x="101" y="635" on="1"/>
        <pt x="117" y="710" on="1"/>
        <pt x="176" y="705" on="0"/>
      </contour>
      <contour>
        <pt x="265" y="896" on="1"/>
        <pt x="321" y="896" on="0"/>
        <pt x="321" y="839" on="1"/>
        <pt x="321" y="803" on="0"/>
        <pt x="281" y="757" on="0"/>
        <pt x="217" y="757" on="0"/>
        <pt x="188" y="788" on="0"/>
        <pt x="188" y="850" on="0"/>
        <pt x="229" y="896" on="0"/>
      </contour>
      <contour>
        <pt x="495" y="896" on="1"/>
        <pt x="551" y="896" on="0"/>
        <pt x="551" y="839" on="1"/>
        <pt x="551" y="803" on="0"/>
        <pt x="511" y="757" on="0"/>
        <pt x="475" y="757" on="1"/>
        <pt x="419" y="757" on="0"/>
        <pt x="419" y="814" on="1"/>
        <pt x="419" y="850" on="0"/>
        <pt x="459" y="896" on="0"/>
      </contour>
    </TTGlyph>
    <TTGlyph name="Edotaccent" xMin="12" yMin="-5" xMax="603" yMax="905">
      <contour>
        <pt x="212" y="705" on="1"/>
        <pt x="475" y="705" on="1"/>
        <pt x="587" y="715" on="1"/>
        <pt x="603" y="697" on="1"/>
        <pt x="587" y="541" on="1"/>
        <pt x="516" y="536" on="1"/>
        <pt x="516" y="595" on="1"/>
        <pt x="516" y="607" on="0"/>
        <pt x="510" y="619" on="1"/>
        <pt x="472" y="623" on="0"/>
        <pt x="434" y="623" on="1"/>
        <pt x="329" y="623" on="1"/>
        <pt x="328" y="617" on="0"/>
        <pt x="315" y="551" on="0"/>
        <pt x="314" y="542" on="1"/>
        <pt x="293" y="399" on="1"/>
        <pt x="302" y="398" on="0"/>
        <pt x="317" y="398" on="1"/>
        <pt x="370" y="398" on="1"/>
        <pt x="390" y="398" on="0"/>
        <pt x="413" y="407" on="1"/>
        <pt x="431" y="471" on="1"/>
        <pt x="491" y="466" on="1"/>
        <pt x="481" y="403" on="0"/>
        <pt x="478" y="383" on="1"/>
        <pt x="463" y="256" on="1"/>
        <pt x="398" y="250" on="1"/>
        <pt x="398" y="310" on="1"/>
        <pt x="358" y="316" on="0"/>
        <pt x="338" y="316" on="1"/>
        <pt x="310" y="316" on="1"/>
        <pt x="287" y="316" on="0"/>
        <pt x="281" y="315" on="1"/>
        <pt x="263" y="193" on="1"/>
        <pt x="256" y="152" on="0"/>
        <pt x="250" y="87" on="1"/>
        <pt x="370" y="87" on="1"/>
        <pt x="405" y="87" on="0"/>
        <pt x="445" y="95" on="1"/>
        <pt x="459" y="116" on="0"/>
        <pt x="470" y="138" on="1"/>
        <pt x="483" y="170" on="0"/>
        <pt x="489" y="195" on="1"/>
        <pt x="557" y="190" on="1"/>
        <pt x="517" y="14" on="1"/>
        <pt x="496" y="-4" on="1"/>
        <pt x="406" y="0" on="0"/>
        <pt x="386" y="0" on="1"/>
        <pt x="109" y="0" on="1"/>
        <pt x="12" y="-5" on="1"/>
        <pt x="17" y="65" on="1"/>
        <pt x="82" y="77" on="1"/>
        <pt x="86" y="85" on="0"/>
        <pt x="102" y="148" on="0"/>
        <pt x="103" y="163" on="1"/>
        <pt x="154" y="512" on="1"/>
        <pt x="163" y="567" on="0"/>
        <pt x="163" y="614" on="0"/>
        <pt x="162" y="623" on="1"/>
        <pt x="101" y="635" on="1"/>
        <pt x="117" y="710" on="1"/>
        <pt x="176" y="705" on="0"/>
      </contour>
      <contour>
        <pt x="300" y="853" on="0"/>
        <pt x="348" y="905" on="0"/>
        <pt x="421" y="905" on="0"/>
        <pt x="456" y="870" on="0"/>
        <pt x="456" y="798" on="0"/>
        <pt x="408" y="746" on="0"/>
        <pt x="335" y="746" on="0"/>
        <pt x="300" y="782" on="0"/>
      </contour>
    </TTGlyph>
    <TTGlyph name="Egrave" xMin="12" yMin="-5" xMax="603" yMax="908">
      <contour>
        <pt x="212" y="705" on="1"/>
        <pt x="475" y="705" on="1"/>
        <pt x="587" y="715" on="1"/>
        <pt x="603" y="697" on="1"/>
        <pt x="587" y="541" on="1"/>
        <pt x="516" y="536" on="1"/>
        <pt x="516" y="595" on="1"/>
        <pt x="516" y="607" on="0"/>
        <pt x="510" y="619" on="1"/>
        <pt x="472" y="623" on="0"/>
        <pt x="434" y="623" on="1"/>
        <pt x="329" y="623" on="1"/>
        <pt x="328" y="617" on="0"/>
        <pt x="315" y="551" on="0"/>
        <pt x="314" y="542" on="1"/>
        <pt x="293" y="399" on="1"/>
        <pt x="302" y="398" on="0"/>
        <pt x="317" y="398" on="1"/>
        <pt x="370" y="398" on="1"/>
        <pt x="390" y="398" on="0"/>
        <pt x="413" y="407" on="1"/>
        <pt x="431" y="471" on="1"/>
        <pt x="491" y="466" on="1"/>
        <pt x="481" y="403" on="0"/>
        <pt x="478" y="383" on="1"/>
        <pt x="463" y="256" on="1"/>
        <pt x="398" y="250" on="1"/>
        <pt x="398" y="310" on="1"/>
        <pt x="358" y="316" on="0"/>
        <pt x="338" y="316" on="1"/>
        <pt x="310" y="316" on="1"/>
        <pt x="287" y="316" on="0"/>
        <pt x="281" y="315" on="1"/>
        <pt x="263" y="193" on="1"/>
        <pt x="256" y="152" on="0"/>
        <pt x="250" y="87" on="1"/>
        <pt x="370" y="87" on="1"/>
        <pt x="405" y="87" on="0"/>
        <pt x="445" y="95" on="1"/>
        <pt x="459" y="116" on="0"/>
        <pt x="470" y="138" on="1"/>
        <pt x="483" y="170" on="0"/>
        <pt x="489" y="195" on="1"/>
        <pt x="557" y="190" on="1"/>
        <pt x="517" y="14" on="1"/>
        <pt x="496" y="-4" on="1"/>
        <pt x="406" y="0" on="0"/>
        <pt x="386" y="0" on="1"/>
        <pt x="109" y="0" on="1"/>
        <pt x="12" y="-5" on="1"/>
        <pt x="17" y="65" on="1"/>
        <pt x="82" y="77" on="1"/>
        <pt x="86" y="85" on="0"/>
        <pt x="102" y="148" on="0"/>
        <pt x="103" y="163" on="1"/>
        <pt x="154" y="512" on="1"/>
        <pt x="163" y="567" on="0"/>
        <pt x="163" y="614" on="0"/>
        <pt x="162" y="623" on="1"/>
        <pt x="101" y="635" on="1"/>
        <pt x="117" y="710" on="1"/>
        <pt x="176" y="705" on="0"/>
      </contour>
      <contour>
        <pt x="482" y="804" on="1"/>
        <pt x="446" y="740" on="1"/>
        <pt x="374" y="778" on="1"/>
        <pt x="217" y="824" on="1"/>
        <pt x="252" y="908" on="1"/>
      </contour>
    </TTGlyph>
    <TTGlyph name="Emacron" xMin="12" yMin="-5" xMax="603" yMax="844">
      <contour>
        <pt x="212" y="705" on="1"/>
        <pt x="475" y="705" on="1"/>
        <pt x="587" y="715" on="1"/>
        <pt x="603" y="697" on="1"/>
        <pt x="587" y="541" on="1"/>
        <pt x="516" y="536" on="1"/>
        <pt x="516" y="595" on="1"/>
        <pt x="516" y="607" on="0"/>
        <pt x="510" y="619" on="1"/>
        <pt x="472" y="623" on="0"/>
        <pt x="434" y="623" on="1"/>
        <pt x="329" y="623" on="1"/>
        <pt x="328" y="617" on="0"/>
        <pt x="315" y="551" on="0"/>
        <pt x="314" y="542" on="1"/>
        <pt x="293" y="399" on="1"/>
        <pt x="302" y="398" on="0"/>
        <pt x="317" y="398" on="1"/>
        <pt x="370" y="398" on="1"/>
        <pt x="390" y="398" on="0"/>
        <pt x="413" y="407" on="1"/>
        <pt x="431" y="471" on="1"/>
        <pt x="491" y="466" on="1"/>
        <pt x="481" y="403" on="0"/>
        <pt x="478" y="383" on="1"/>
        <pt x="463" y="256" on="1"/>
        <pt x="398" y="250" on="1"/>
        <pt x="398" y="310" on="1"/>
        <pt x="358" y="316" on="0"/>
        <pt x="338" y="316" on="1"/>
        <pt x="310" y="316" on="1"/>
        <pt x="287" y="316" on="0"/>
        <pt x="281" y="315" on="1"/>
        <pt x="263" y="193" on="1"/>
        <pt x="256" y="152" on="0"/>
        <pt x="250" y="87" on="1"/>
        <pt x="370" y="87" on="1"/>
        <pt x="405" y="87" on="0"/>
        <pt x="445" y="95" on="1"/>
        <pt x="459" y="116" on="0"/>
        <pt x="470" y="138" on="1"/>
        <pt x="483" y="170" on="0"/>
        <pt x="489" y="195" on="1"/>
        <pt x="557" y="190" on="1"/>
        <pt x="517" y="14" on="1"/>
        <pt x="496" y="-4" on="1"/>
        <pt x="406" y="0" on="0"/>
        <pt x="386" y="0" on="1"/>
        <pt x="109" y="0" on="1"/>
        <pt x="12" y="-5" on="1"/>
        <pt x="17" y="65" on="1"/>
        <pt x="82" y="77" on="1"/>
        <pt x="86" y="85" on="0"/>
        <pt x="102" y="148" on="0"/>
        <pt x="103" y="163" on="1"/>
        <pt x="154" y="512" on="1"/>
        <pt x="163" y="567" on="0"/>
        <pt x="163" y="614" on="0"/>
        <pt x="162" y="623" on="1"/>
        <pt x="101" y="635" on="1"/>
        <pt x="117" y="710" on="1"/>
        <pt x="176" y="705" on="0"/>
      </contour>
      <contour>
        <pt x="542" y="771" on="1"/>
        <pt x="216" y="771" on="1"/>
        <pt x="227" y="844" on="1"/>
        <pt x="560" y="844" on="1"/>
      </contour>
    </TTGlyph>
    <TTGlyph name="Eng" xMin="12" yMin="-200" xMax="823" yMax="710">
      <contour>
        <pt x="214" y="705" on="1"/>
        <pt x="313" y="705" on="1"/>
        <pt x="329" y="685" on="1"/>
        <pt x="382" y="559" on="0"/>
        <pt x="392" y="537" on="1"/>
        <pt x="562" y="230" on="1"/>
        <pt x="603" y="512" on="1"/>
        <pt x="610" y="564" on="0"/>
        <pt x="610" y="623" on="1"/>
        <pt x="549" y="635" on="1"/>
        <pt x="565" y="710" on="1"/>
        <pt x="661" y="705" on="1"/>
        <pt x="823" y="710" on="1"/>
        <pt x="816" y="629" on="1"/>
        <pt x="751" y="623" on="1"/>
        <pt x="735" y="575" on="0"/>
        <pt x="730" y="542" on="1"/>
        <pt x="651" y="0" on="1"/>
        <pt x="650" y="-38" on="0"/>
        <pt x="469" y="-200" on="1"/>
        <pt x="421" y="-169" on="1"/>
        <pt x="513" y="-19" on="0"/>
        <pt x="520" y="0" on="1"/>
        <pt x="271" y="450" on="1"/>
        <pt x="233" y="193" on="1"/>
        <pt x="224" y="127" on="0"/>
        <pt x="224" y="77" on="1"/>
        <pt x="286" y="71" on="1"/>
        <pt x="271" y="-5" on="1"/>
        <pt x="220" y="0" on="0"/>
        <pt x="110" y="0" on="1"/>
        <pt x="12" y="-5" on="1"/>
        <pt x="18" y="65" on="1"/>
        <pt x="84" y="77" on="1"/>
        <pt x="98" y="115" on="0"/>
        <pt x="105" y="163" on="1"/>
        <pt x="156" y="512" on="1"/>
        <pt x="164" y="569" on="0"/>
        <pt x="164" y="623" on="1"/>
        <pt x="103" y="635" on="1"/>
        <pt x="118" y="710" on="1"/>
        <pt x="169" y="705" on="0"/>
      </contour>
    </TTGlyph>
    <TTGlyph name="Eogonek" xMin="12" yMin="-198" xMax="603" yMax="715">
      <contour>
        <pt x="385" y="-94" on="1"/>
        <pt x="385" y="-134" on="0"/>
        <pt x="423" y="-134" on="1"/>
        <pt x="437" y="-134" on="0"/>
        <pt x="457" y="-127" on="1"/>
        <pt x="467" y="-175" on="1"/>
        <pt x="418" y="-198" on="0"/>
        <pt x="328" y="-198" on="0"/>
        <pt x="278" y="-159" on="0"/>
        <pt x="278" y="-122" on="1"/>
        <pt x="278" y="-82" on="0"/>
        <pt x="309" y="-46" on="0"/>
        <pt x="316" y="-40" on="1"/>
        <pt x="328" y="-27" on="0"/>
        <pt x="364" y="0" on="1"/>
        <pt x="109" y="0" on="1"/>
        <pt x="12" y="-5" on="1"/>
        <pt x="17" y="65" on="1"/>
        <pt x="82" y="77" on="1"/>
        <pt x="86" y="85" on="0"/>
        <pt x="102" y="148" on="0"/>
        <pt x="103" y="163" on="1"/>
        <pt x="154" y="512" on="1"/>
        <pt x="163" y="567" on="0"/>
        <pt x="163" y="614" on="0"/>
        <pt x="162" y="623" on="1"/>
        <pt x="101" y="635" on="1"/>
        <pt x="117" y="710" on="1"/>
        <pt x="176" y="705" on="0"/>
        <pt x="212" y="705" on="1"/>
        <pt x="475" y="705" on="1"/>
        <pt x="587" y="715" on="1"/>
        <pt x="603" y="697" on="1"/>
        <pt x="587" y="541" on="1"/>
        <pt x="516" y="536" on="1"/>
        <pt x="516" y="595" on="1"/>
        <pt x="516" y="607" on="0"/>
        <pt x="510" y="619" on="1"/>
        <pt x="472" y="623" on="0"/>
        <pt x="434" y="623" on="1"/>
        <pt x="329" y="623" on="1"/>
        <pt x="328" y="617" on="0"/>
        <pt x="315" y="551" on="0"/>
        <pt x="314" y="542" on="1"/>
        <pt x="293" y="399" on="1"/>
        <pt x="302" y="398" on="0"/>
        <pt x="317" y="398" on="1"/>
        <pt x="370" y="398" on="1"/>
        <pt x="390" y="398" on="0"/>
        <pt x="413" y="407" on="1"/>
        <pt x="431" y="471" on="1"/>
        <pt x="491" y="466" on="1"/>
        <pt x="481" y="403" on="0"/>
        <pt x="478" y="383" on="1"/>
        <pt x="463" y="256" on="1"/>
        <pt x="398" y="250" on="1"/>
        <pt x="398" y="310" on="1"/>
        <pt x="358" y="316" on="0"/>
        <pt x="338" y="316" on="1"/>
        <pt x="310" y="316" on="1"/>
        <pt x="287" y="316" on="0"/>
        <pt x="281" y="315" on="1"/>
        <pt x="263" y="193" on="1"/>
        <pt x="256" y="152" on="0"/>
        <pt x="250" y="87" on="1"/>
        <pt x="370" y="87" on="1"/>
        <pt x="405" y="87" on="0"/>
        <pt x="445" y="95" on="1"/>
        <pt x="459" y="116" on="0"/>
        <pt x="470" y="138" on="1"/>
        <pt x="483" y="170" on="0"/>
        <pt x="489" y="195" on="1"/>
        <pt x="557" y="190" on="1"/>
        <pt x="517" y="14" on="1"/>
        <pt x="496" y="-4" on="1"/>
        <pt x="444" y="-4" on="0"/>
        <pt x="408" y="-40" on="1"/>
        <pt x="385" y="-62" on="0"/>
      </contour>
    </TTGlyph>
    <TTGlyph name="Eth" xMin="12" yMin="-6" xMax="714" yMax="715">
      <contour>
        <pt x="317" y="-6" on="1"/>
        <pt x="108" y="0" on="1"/>
        <pt x="12" y="-5" on="1"/>
        <pt x="17" y="65" on="1"/>
        <pt x="82" y="77" on="1"/>
        <pt x="101" y="143" on="0"/>
        <pt x="103" y="163" on="1"/>
        <pt x="126" y="322" on="1"/>
        <pt x="53" y="322" on="1"/>
        <pt x="63" y="395" on="1"/>
        <pt x="137" y="395" on="1"/>
        <pt x="154" y="512" on="1"/>
        <pt x="162" y="556" on="0"/>
        <pt x="162" y="606" on="1"/>
        <pt x="162" y="623" on="1"/>
        <pt x="101" y="635" on="1"/>
        <pt x="117" y="710" on="1"/>
        <pt x="167" y="705" on="0"/>
        <pt x="214" y="705" on="1"/>
        <pt x="416" y="715" on="1"/>
        <pt x="561" y="715" on="0"/>
        <pt x="714" y="552" on="0"/>
        <pt x="714" y="415" on="1"/>
        <pt x="714" y="229" on="0"/>
        <pt x="506" y="-6" on="0"/>
      </contour>
      <contour>
        <pt x="393" y="632" on="1"/>
        <pt x="375" y="632" on="0"/>
        <pt x="329" y="624" on="1"/>
        <pt x="329" y="623" on="0"/>
        <pt x="315" y="552" on="0"/>
        <pt x="314" y="542" on="1"/>
        <pt x="292" y="395" on="1"/>
        <pt x="375" y="395" on="1"/>
        <pt x="359" y="322" on="1"/>
        <pt x="282" y="322" on="1"/>
        <pt x="263" y="193" on="1"/>
        <pt x="255" y="146" on="0"/>
        <pt x="250" y="80" on="1"/>
        <pt x="277" y="77" on="0"/>
        <pt x="310" y="77" on="1"/>
        <pt x="377" y="77" on="0"/>
        <pt x="475" y="139" on="0"/>
        <pt x="500" y="192" on="1"/>
        <pt x="548" y="292" on="0"/>
        <pt x="548" y="423" on="1"/>
        <pt x="548" y="517" on="0"/>
        <pt x="474" y="632" on="0"/>
      </contour>
    </TTGlyph>
    <TTGlyph name="Etilde" xMin="12" yMin="-5" xMax="603" yMax="883">
      <contour>
        <pt x="212" y="705" on="1"/>
        <pt x="475" y="705" on="1"/>
        <pt x="587" y="715" on="1"/>
        <pt x="603" y="697" on="1"/>
        <pt x="587" y="541" on="1"/>
        <pt x="516" y="536" on="1"/>
        <pt x="516" y="595" on="1"/>
        <pt x="516" y="607" on="0"/>
        <pt x="510" y="619" on="1"/>
        <pt x="472" y="623" on="0"/>
        <pt x="434" y="623" on="1"/>
        <pt x="329" y="623" on="1"/>
        <pt x="328" y="617" on="0"/>
        <pt x="315" y="551" on="0"/>
        <pt x="314" y="542" on="1"/>
        <pt x="293" y="399" on="1"/>
        <pt x="302" y="398" on="0"/>
        <pt x="317" y="398" on="1"/>
        <pt x="370" y="398" on="1"/>
        <pt x="390" y="398" on="0"/>
        <pt x="413" y="407" on="1"/>
        <pt x="431" y="471" on="1"/>
        <pt x="491" y="466" on="1"/>
        <pt x="481" y="403" on="0"/>
        <pt x="478" y="383" on="1"/>
        <pt x="463" y="256" on="1"/>
        <pt x="398" y="250" on="1"/>
        <pt x="398" y="310" on="1"/>
        <pt x="358" y="316" on="0"/>
        <pt x="338" y="316" on="1"/>
        <pt x="310" y="316" on="1"/>
        <pt x="287" y="316" on="0"/>
        <pt x="281" y="315" on="1"/>
        <pt x="263" y="193" on="1"/>
        <pt x="256" y="152" on="0"/>
        <pt x="250" y="87" on="1"/>
        <pt x="370" y="87" on="1"/>
        <pt x="405" y="87" on="0"/>
        <pt x="445" y="95" on="1"/>
        <pt x="459" y="116" on="0"/>
        <pt x="470" y="138" on="1"/>
        <pt x="483" y="170" on="0"/>
        <pt x="489" y="195" on="1"/>
        <pt x="557" y="190" on="1"/>
        <pt x="517" y="14" on="1"/>
        <pt x="496" y="-4" on="1"/>
        <pt x="406" y="0" on="0"/>
        <pt x="386" y="0" on="1"/>
        <pt x="109" y="0" on="1"/>
        <pt x="12" y="-5" on="1"/>
        <pt x="17" y="65" on="1"/>
        <pt x="82" y="77" on="1"/>
        <pt x="86" y="85" on="0"/>
        <pt x="102" y="148" on="0"/>
        <pt x="103" y="163" on="1"/>
        <pt x="154" y="512" on="1"/>
        <pt x="163" y="567" on="0"/>
        <pt x="163" y="614" on="0"/>
        <pt x="162" y="623" on="1"/>
        <pt x="101" y="635" on="1"/>
        <pt x="117" y="710" on="1"/>
        <pt x="176" y="705" on="0"/>
      </contour>
      <contour>
        <pt x="542" y="810" on="0"/>
        <pt x="486" y="754" on="0"/>
        <pt x="444" y="754" on="0"/>
        <pt x="326" y="792" on="0"/>
        <pt x="309" y="792" on="1"/>
        <pt x="282" y="792" on="0"/>
        <pt x="255" y="760" on="1"/>
        <pt x="246" y="750" on="1"/>
        <pt x="203" y="778" on="1"/>
        <pt x="227" y="819" on="0"/>
        <pt x="290" y="883" on="0"/>
        <pt x="331" y="883" on="0"/>
        <pt x="451" y="845" on="0"/>
        <pt x="468" y="845" on="1"/>
        <pt x="495" y="845" on="0"/>
        <pt x="519" y="874" on="1"/>
        <pt x="527" y="883" on="1"/>
        <pt x="572" y="855" on="1"/>
        <pt x="565" y="844" on="0"/>
      </contour>
    </TTGlyph>
    <TTGlyph name="Euro" xMin="30" yMin="-18" xMax="635" yMax="667">
      <contour>
        <pt x="452" y="585" on="1"/>
        <pt x="400" y="585" on="0"/>
        <pt x="322" y="489" on="0"/>
        <pt x="300" y="409" on="1"/>
        <pt x="461" y="416" on="1"/>
        <pt x="453" y="352" on="1"/>
        <pt x="287" y="344" on="1"/>
        <pt x="286" y="341" on="0"/>
        <pt x="281" y="292" on="1"/>
        <pt x="451" y="300" on="1"/>
        <pt x="443" y="236" on="1"/>
        <pt x="279" y="228" on="1"/>
        <pt x="280" y="156" on="0"/>
        <pt x="332" y="64" on="0"/>
        <pt x="423" y="64" on="0"/>
        <pt x="475" y="75" on="1"/>
        <pt x="515" y="192" on="1"/>
        <pt x="574" y="189" on="1"/>
        <pt x="556" y="14" on="1"/>
        <pt x="430" y="-18" on="0"/>
        <pt x="355" y="-18" on="1"/>
        <pt x="238" y="-18" on="0"/>
        <pt x="108" y="109" on="0"/>
        <pt x="101" y="220" on="1"/>
        <pt x="30" y="217" on="1"/>
        <pt x="38" y="282" on="1"/>
        <pt x="101" y="284" on="1"/>
        <pt x="103" y="319" on="0"/>
        <pt x="106" y="336" on="1"/>
        <pt x="40" y="333" on="1"/>
        <pt x="48" y="398" on="1"/>
        <pt x="119" y="401" on="1"/>
        <pt x="153" y="524" on="0"/>
        <pt x="325" y="667" on="0"/>
        <pt x="449" y="667" on="1"/>
        <pt x="507" y="667" on="0"/>
        <pt x="616" y="647" on="1"/>
        <pt x="635" y="618" on="1"/>
        <pt x="588" y="453" on="1"/>
        <pt x="529" y="456" on="1"/>
        <pt x="532" y="574" on="1"/>
        <pt x="481" y="585" on="0"/>
      </contour>
    </TTGlyph>
    <TTGlyph name="F" xMin="12" yMin="-5" xMax="603" yMax="715">
      <contour>
        <pt x="434" y="623" on="1"/>
        <pt x="329" y="623" on="1"/>
        <pt x="328" y="617" on="0"/>
        <pt x="315" y="551" on="0"/>
        <pt x="314" y="542" on="1"/>
        <pt x="291" y="388" on="1"/>
        <pt x="301" y="387" on="0"/>
        <pt x="313" y="387" on="1"/>
        <pt x="368" y="387" on="1"/>
        <pt x="382" y="387" on="0"/>
        <pt x="411" y="396" on="1"/>
        <pt x="429" y="460" on="1"/>
        <pt x="490" y="455" on="1"/>
        <pt x="479" y="392" on="0"/>
        <pt x="477" y="372" on="1"/>
        <pt x="461" y="245" on="1"/>
        <pt x="397" y="239" on="1"/>
        <pt x="397" y="299" on="1"/>
        <pt x="356" y="305" on="0"/>
        <pt x="337" y="305" on="1"/>
        <pt x="302" y="305" on="1"/>
        <pt x="286" y="305" on="0"/>
        <pt x="279" y="304" on="1"/>
        <pt x="262" y="190" on="1"/>
        <pt x="254" y="132" on="0"/>
        <pt x="254" y="86" on="0"/>
        <pt x="255" y="77" on="1"/>
        <pt x="346" y="71" on="1"/>
        <pt x="330" y="-5" on="1"/>
        <pt x="220" y="0" on="0"/>
        <pt x="108" y="0" on="1"/>
        <pt x="12" y="-5" on="1"/>
        <pt x="17" y="65" on="1"/>
        <pt x="82" y="77" on="1"/>
        <pt x="86" y="85" on="0"/>
        <pt x="102" y="148" on="0"/>
        <pt x="103" y="163" on="1"/>
        <pt x="154" y="512" on="1"/>
        <pt x="163" y="569" on="0"/>
        <pt x="163" y="614" on="0"/>
        <pt x="162" y="623" on="1"/>
        <pt x="101" y="635" on="1"/>
        <pt x="117" y="710" on="1"/>
        <pt x="165" y="705" on="0"/>
        <pt x="212" y="705" on="1"/>
        <pt x="475" y="705" on="1"/>
        <pt x="587" y="715" on="1"/>
        <pt x="603" y="697" on="1"/>
        <pt x="587" y="541" on="1"/>
        <pt x="516" y="536" on="1"/>
        <pt x="516" y="595" on="1"/>
        <pt x="511" y="618" on="1"/>
        <pt x="463" y="623" on="0"/>
      </contour>
    </TTGlyph>
    <TTGlyph name="G" xMin="35" yMin="-15" xMax="670" yMax="720">
      <contour>
        <pt x="449" y="720" on="1"/>
        <pt x="534" y="720" on="0"/>
        <pt x="670" y="686" on="1"/>
        <pt x="633" y="521" on="1"/>
        <pt x="556" y="525" on="1"/>
        <pt x="560" y="572" on="1"/>
        <pt x="561" y="581" on="0"/>
        <pt x="554" y="613" on="1"/>
        <pt x="490" y="627" on="0"/>
        <pt x="439" y="627" on="1"/>
        <pt x="362" y="627" on="0"/>
        <pt x="310" y="575" on="1"/>
        <pt x="214" y="480" on="0"/>
        <pt x="214" y="283" on="1"/>
        <pt x="214" y="190" on="0"/>
        <pt x="284" y="78" on="0"/>
        <pt x="358" y="78" on="1"/>
        <pt x="400" y="78" on="0"/>
        <pt x="451" y="86" on="1"/>
        <pt x="462" y="115" on="0"/>
        <pt x="464" y="128" on="1"/>
        <pt x="474" y="196" on="1"/>
        <pt x="473" y="257" on="1"/>
        <pt x="371" y="265" on="1"/>
        <pt x="390" y="363" on="1"/>
        <pt x="498" y="363" on="1"/>
        <pt x="613" y="366" on="1"/>
        <pt x="637" y="341" on="1"/>
        <pt x="615" y="246" on="0"/>
        <pt x="608" y="196" on="1"/>
        <pt x="582" y="19" on="1"/>
        <pt x="452" y="-15" on="0"/>
        <pt x="348" y="-15" on="1"/>
        <pt x="196" y="-15" on="0"/>
        <pt x="35" y="150" on="0"/>
        <pt x="35" y="290" on="1"/>
        <pt x="35" y="480" on="0"/>
        <pt x="252" y="720" on="0"/>
      </contour>
    </TTGlyph>
    <TTGlyph name="Gbreve" xMin="35" yMin="-15" xMax="670" yMax="898">
      <contour>
        <pt x="449" y="720" on="1"/>
        <pt x="534" y="720" on="0"/>
        <pt x="670" y="686" on="1"/>
        <pt x="633" y="521" on="1"/>
        <pt x="556" y="525" on="1"/>
        <pt x="560" y="572" on="1"/>
        <pt x="561" y="581" on="0"/>
        <pt x="554" y="613" on="1"/>
        <pt x="490" y="627" on="0"/>
        <pt x="439" y="627" on="1"/>
        <pt x="362" y="627" on="0"/>
        <pt x="310" y="575" on="1"/>
        <pt x="214" y="480" on="0"/>
        <pt x="214" y="283" on="1"/>
        <pt x="214" y="190" on="0"/>
        <pt x="284" y="78" on="0"/>
        <pt x="358" y="78" on="1"/>
        <pt x="400" y="78" on="0"/>
        <pt x="451" y="86" on="1"/>
        <pt x="462" y="115" on="0"/>
        <pt x="464" y="128" on="1"/>
        <pt x="474" y="196" on="1"/>
        <pt x="473" y="257" on="1"/>
        <pt x="371" y="265" on="1"/>
        <pt x="390" y="363" on="1"/>
        <pt x="498" y="363" on="1"/>
        <pt x="613" y="366" on="1"/>
        <pt x="637" y="341" on="1"/>
        <pt x="615" y="246" on="0"/>
        <pt x="608" y="196" on="1"/>
        <pt x="582" y="19" on="1"/>
        <pt x="452" y="-15" on="0"/>
        <pt x="348" y="-15" on="1"/>
        <pt x="196" y="-15" on="0"/>
        <pt x="35" y="150" on="0"/>
        <pt x="35" y="290" on="1"/>
        <pt x="35" y="480" on="0"/>
        <pt x="252" y="720" on="0"/>
      </contour>
      <contour>
        <pt x="533" y="743" on="0"/>
        <pt x="395" y="743" on="0"/>
        <pt x="360" y="784" on="1"/>
        <pt x="334" y="815" on="0"/>
        <pt x="334" y="866" on="1"/>
        <pt x="334" y="881" on="0"/>
        <pt x="336" y="898" on="1"/>
        <pt x="400" y="898" on="1"/>
        <pt x="399" y="891" on="0"/>
        <pt x="399" y="884" on="1"/>
        <pt x="399" y="857" on="0"/>
        <pt x="437" y="819" on="0"/>
        <pt x="512" y="819" on="0"/>
        <pt x="566" y="861" on="0"/>
        <pt x="571" y="898" on="1"/>
        <pt x="635" y="898" on="1"/>
        <pt x="625" y="824" on="0"/>
      </contour>
    </TTGlyph>
    <TTGlyph name="Gcircumflex" xMin="35" yMin="-15" xMax="670" yMax="933">
      <contour>
        <pt x="449" y="720" on="1"/>
        <pt x="534" y="720" on="0"/>
        <pt x="670" y="686" on="1"/>
        <pt x="633" y="521" on="1"/>
        <pt x="556" y="525" on="1"/>
        <pt x="560" y="572" on="1"/>
        <pt x="561" y="581" on="0"/>
        <pt x="554" y="613" on="1"/>
        <pt x="490" y="627" on="0"/>
        <pt x="439" y="627" on="1"/>
        <pt x="362" y="627" on="0"/>
        <pt x="310" y="575" on="1"/>
        <pt x="214" y="480" on="0"/>
        <pt x="214" y="283" on="1"/>
        <pt x="214" y="190" on="0"/>
        <pt x="284" y="78" on="0"/>
        <pt x="358" y="78" on="1"/>
        <pt x="400" y="78" on="0"/>
        <pt x="451" y="86" on="1"/>
        <pt x="462" y="115" on="0"/>
        <pt x="464" y="128" on="1"/>
        <pt x="474" y="196" on="1"/>
        <pt x="473" y="257" on="1"/>
        <pt x="371" y="265" on="1"/>
        <pt x="390" y="363" on="1"/>
        <pt x="498" y="363" on="1"/>
        <pt x="613" y="366" on="1"/>
        <pt x="637" y="341" on="1"/>
        <pt x="615" y="246" on="0"/>
        <pt x="608" y="196" on="1"/>
        <pt x="582" y="19" on="1"/>
        <pt x="452" y="-15" on="0"/>
        <pt x="348" y="-15" on="1"/>
        <pt x="196" y="-15" on="0"/>
        <pt x="35" y="150" on="0"/>
        <pt x="35" y="290" on="1"/>
        <pt x="35" y="480" on="0"/>
        <pt x="252" y="720" on="0"/>
      </contour>
      <contour>
        <pt x="487" y="933" on="1"/>
        <pt x="658" y="800" on="1"/>
        <pt x="603" y="742" on="1"/>
        <pt x="546" y="790" on="1"/>
        <pt x="471" y="832" on="1"/>
        <pt x="383" y="790" on="1"/>
        <pt x="310" y="742" on="1"/>
        <pt x="274" y="800" on="1"/>
      </contour>
    </TTGlyph>
    <TTGlyph name="Gcommaaccent" xMin="35" yMin="-274" xMax="670" yMax="720">
      <contour>
        <pt x="449" y="720" on="1"/>
        <pt x="534" y="720" on="0"/>
        <pt x="670" y="686" on="1"/>
        <pt x="633" y="521" on="1"/>
        <pt x="556" y="525" on="1"/>
        <pt x="560" y="572" on="1"/>
        <pt x="561" y="581" on="0"/>
        <pt x="554" y="613" on="1"/>
        <pt x="490" y="627" on="0"/>
        <pt x="439" y="627" on="1"/>
        <pt x="362" y="627" on="0"/>
        <pt x="310" y="575" on="1"/>
        <pt x="214" y="480" on="0"/>
        <pt x="214" y="283" on="1"/>
        <pt x="214" y="190" on="0"/>
        <pt x="284" y="78" on="0"/>
        <pt x="358" y="78" on="1"/>
        <pt x="400" y="78" on="0"/>
        <pt x="451" y="86" on="1"/>
        <pt x="462" y="115" on="0"/>
        <pt x="464" y="128" on="1"/>
        <pt x="474" y="196" on="1"/>
        <pt x="473" y="257" on="1"/>
        <pt x="371" y="265" on="1"/>
        <pt x="390" y="363" on="1"/>
        <pt x="498" y="363" on="1"/>
        <pt x="613" y="366" on="1"/>
        <pt x="637" y="341" on="1"/>
        <pt x="615" y="246" on="0"/>
        <pt x="608" y="196" on="1"/>
        <pt x="582" y="19" on="1"/>
        <pt x="452" y="-15" on="0"/>
        <pt x="348" y="-15" on="1"/>
        <pt x="196" y="-15" on="0"/>
        <pt x="35" y="150" on="0"/>
        <pt x="35" y="290" on="1"/>
        <pt x="35" y="480" on="0"/>
        <pt x="252" y="720" on="0"/>
      </contour>
      <contour>
        <pt x="275" y="-167" on="0"/>
        <pt x="275" y="-99" on="0"/>
        <pt x="320" y="-58" on="0"/>
        <pt x="373" y="-58" on="0"/>
        <pt x="402" y="-90" on="0"/>
        <pt x="402" y="-147" on="0"/>
        <pt x="362" y="-225" on="0"/>
        <pt x="342" y="-250" on="1"/>
        <pt x="321" y="-274" on="1"/>
        <pt x="278" y="-262" on="1"/>
        <pt x="303" y="-207" on="0"/>
        <pt x="307" y="-180" on="1"/>
      </contour>
    </TTGlyph>
    <TTGlyph name="Gdieresis" xMin="35" yMin="-15" xMax="670" yMax="896">
      <contour>
        <pt x="449" y="720" on="1"/>
        <pt x="534" y="720" on="0"/>
        <pt x="670" y="686" on="1"/>
        <pt x="633" y="521" on="1"/>
        <pt x="556" y="525" on="1"/>
        <pt x="560" y="572" on="1"/>
        <pt x="561" y="581" on="0"/>
        <pt x="554" y="613" on="1"/>
        <pt x="490" y="627" on="0"/>
        <pt x="439" y="627" on="1"/>
        <pt x="362" y="627" on="0"/>
        <pt x="310" y="575" on="1"/>
        <pt x="214" y="480" on="0"/>
        <pt x="214" y="283" on="1"/>
        <pt x="214" y="190" on="0"/>
        <pt x="284" y="78" on="0"/>
        <pt x="358" y="78" on="1"/>
        <pt x="400" y="78" on="0"/>
        <pt x="451" y="86" on="1"/>
        <pt x="462" y="115" on="0"/>
        <pt x="464" y="128" on="1"/>
        <pt x="474" y="196" on="1"/>
        <pt x="473" y="257" on="1"/>
        <pt x="371" y="265" on="1"/>
        <pt x="390" y="363" on="1"/>
        <pt x="498" y="363" on="1"/>
        <pt x="613" y="366" on="1"/>
        <pt x="637" y="341" on="1"/>
        <pt x="615" y="246" on="0"/>
        <pt x="608" y="196" on="1"/>
        <pt x="582" y="19" on="1"/>
        <pt x="452" y="-15" on="0"/>
        <pt x="348" y="-15" on="1"/>
        <pt x="196" y="-15" on="0"/>
        <pt x="35" y="150" on="0"/>
        <pt x="35" y="290" on="1"/>
        <pt x="35" y="480" on="0"/>
        <pt x="252" y="720" on="0"/>
      </contour>
      <contour>
        <pt x="361" y="896" on="1"/>
        <pt x="417" y="896" on="0"/>
        <pt x="417" y="839" on="1"/>
        <pt x="417" y="803" on="0"/>
        <pt x="377" y="757" on="0"/>
        <pt x="313" y="757" on="0"/>
        <pt x="284" y="788" on="0"/>
        <pt x="284" y="850" on="0"/>
        <pt x="325" y="896" on="0"/>
      </contour>
      <contour>
        <pt x="591" y="896" on="1"/>
        <pt x="647" y="896" on="0"/>
        <pt x="647" y="839" on="1"/>
        <pt x="647" y="803" on="0"/>
        <pt x="607" y="757" on="0"/>
        <pt x="571" y="757" on="1"/>
        <pt x="515" y="757" on="0"/>
        <pt x="515" y="814" on="1"/>
        <pt x="515" y="850" on="0"/>
        <pt x="555" y="896" on="0"/>
      </contour>
    </TTGlyph>
    <TTGlyph name="Gdotaccent" xMin="35" yMin="-15" xMax="670" yMax="905">
      <contour>
        <pt x="449" y="720" on="1"/>
        <pt x="534" y="720" on="0"/>
        <pt x="670" y="686" on="1"/>
        <pt x="633" y="521" on="1"/>
        <pt x="556" y="525" on="1"/>
        <pt x="560" y="572" on="1"/>
        <pt x="561" y="581" on="0"/>
        <pt x="554" y="613" on="1"/>
        <pt x="490" y="627" on="0"/>
        <pt x="439" y="627" on="1"/>
        <pt x="362" y="627" on="0"/>
        <pt x="310" y="575" on="1"/>
        <pt x="214" y="480" on="0"/>
        <pt x="214" y="283" on="1"/>
        <pt x="214" y="190" on="0"/>
        <pt x="284" y="78" on="0"/>
        <pt x="358" y="78" on="1"/>
        <pt x="400" y="78" on="0"/>
        <pt x="451" y="86" on="1"/>
        <pt x="462" y="115" on="0"/>
        <pt x="464" y="128" on="1"/>
        <pt x="474" y="196" on="1"/>
        <pt x="473" y="257" on="1"/>
        <pt x="371" y="265" on="1"/>
        <pt x="390" y="363" on="1"/>
        <pt x="498" y="363" on="1"/>
        <pt x="613" y="366" on="1"/>
        <pt x="637" y="341" on="1"/>
        <pt x="615" y="246" on="0"/>
        <pt x="608" y="196" on="1"/>
        <pt x="582" y="19" on="1"/>
        <pt x="452" y="-15" on="0"/>
        <pt x="348" y="-15" on="1"/>
        <pt x="196" y="-15" on="0"/>
        <pt x="35" y="150" on="0"/>
        <pt x="35" y="290" on="1"/>
        <pt x="35" y="480" on="0"/>
        <pt x="252" y="720" on="0"/>
      </contour>
      <contour>
        <pt x="383" y="853" on="0"/>
        <pt x="431" y="905" on="0"/>
        <pt x="504" y="905" on="0"/>
        <pt x="539" y="870" on="0"/>
        <pt x="539" y="798" on="0"/>
        <pt x="491" y="746" on="0"/>
        <pt x="418" y="746" on="0"/>
        <pt x="383" y="782" on="0"/>
      </contour>
    </TTGlyph>
    <TTGlyph name="Gtilde" xMin="35" yMin="-15" xMax="670" yMax="883">
      <contour>
        <pt x="449" y="720" on="1"/>
        <pt x="534" y="720" on="0"/>
        <pt x="670" y="686" on="1"/>
        <pt x="633" y="521" on="1"/>
        <pt x="556" y="525" on="1"/>
        <pt x="560" y="572" on="1"/>
        <pt x="561" y="581" on="0"/>
        <pt x="554" y="613" on="1"/>
        <pt x="490" y="627" on="0"/>
        <pt x="439" y="627" on="1"/>
        <pt x="362" y="627" on="0"/>
        <pt x="310" y="575" on="1"/>
        <pt x="214" y="480" on="0"/>
        <pt x="214" y="283" on="1"/>
        <pt x="214" y="190" on="0"/>
        <pt x="284" y="78" on="0"/>
        <pt x="358" y="78" on="1"/>
        <pt x="400" y="78" on="0"/>
        <pt x="451" y="86" on="1"/>
        <pt x="462" y="115" on="0"/>
        <pt x="464" y="128" on="1"/>
        <pt x="474" y="196" on="1"/>
        <pt x="473" y="257" on="1"/>
        <pt x="371" y="265" on="1"/>
        <pt x="390" y="363" on="1"/>
        <pt x="498" y="363" on="1"/>
        <pt x="613" y="366" on="1"/>
        <pt x="637" y="341" on="1"/>
        <pt x="615" y="246" on="0"/>
        <pt x="608" y="196" on="1"/>
        <pt x="582" y="19" on="1"/>
        <pt x="452" y="-15" on="0"/>
        <pt x="348" y="-15" on="1"/>
        <pt x="196" y="-15" on="0"/>
        <pt x="35" y="150" on="0"/>
        <pt x="35" y="290" on="1"/>
        <pt x="35" y="480" on="0"/>
        <pt x="252" y="720" on="0"/>
      </contour>
      <contour>
        <pt x="618" y="810" on="0"/>
        <pt x="562" y="754" on="0"/>
        <pt x="520" y="754" on="0"/>
        <pt x="402" y="792" on="0"/>
        <pt x="385" y="792" on="1"/>
        <pt x="358" y="792" on="0"/>
        <pt x="331" y="760" on="1"/>
        <pt x="322" y="750" on="1"/>
        <pt x="279" y="778" on="1"/>
        <pt x="303" y="819" on="0"/>
        <pt x="366" y="883" on="0"/>
        <pt x="407" y="883" on="0"/>
        <pt x="527" y="845" on="0"/>
        <pt x="544" y="845" on="1"/>
        <pt x="571" y="845" on="0"/>
        <pt x="595" y="874" on="1"/>
        <pt x="603" y="883" on="1"/>
        <pt x="648" y="855" on="1"/>
        <pt x="641" y="844" on="0"/>
      </contour>
    </TTGlyph>
    <TTGlyph name="H" xMin="12" yMin="-5" xMax="825" yMax="710">
      <contour>
        <pt x="825" y="710" on="1"/>
        <pt x="818" y="629" on="1"/>
        <pt x="754" y="623" on="1"/>
        <pt x="738" y="575" on="0"/>
        <pt x="733" y="542" on="1"/>
        <pt x="683" y="193" on="1"/>
        <pt x="674" y="144" on="0"/>
        <pt x="674" y="77" on="1"/>
        <pt x="735" y="71" on="1"/>
        <pt x="719" y="-5" on="1"/>
        <pt x="640" y="0" on="0"/>
        <pt x="528" y="0" on="1"/>
        <pt x="432" y="-5" on="1"/>
        <pt x="437" y="65" on="1"/>
        <pt x="502" y="77" on="1"/>
        <pt x="502" y="79" on="0"/>
        <pt x="521" y="151" on="0"/>
        <pt x="523" y="163" on="1"/>
        <pt x="543" y="302" on="1"/>
        <pt x="279" y="302" on="1"/>
        <pt x="263" y="193" on="1"/>
        <pt x="255" y="143" on="0"/>
        <pt x="255" y="77" on="1"/>
        <pt x="315" y="71" on="1"/>
        <pt x="299" y="-5" on="1"/>
        <pt x="220" y="0" on="0"/>
        <pt x="108" y="0" on="1"/>
        <pt x="12" y="-5" on="1"/>
        <pt x="17" y="65" on="1"/>
        <pt x="82" y="77" on="1"/>
        <pt x="101" y="139" on="0"/>
        <pt x="103" y="163" on="1"/>
        <pt x="154" y="512" on="1"/>
        <pt x="156" y="523" on="0"/>
        <pt x="162" y="623" on="1"/>
        <pt x="101" y="635" on="1"/>
        <pt x="117" y="710" on="1"/>
        <pt x="165" y="705" on="0"/>
        <pt x="212" y="705" on="1"/>
        <pt x="405" y="710" on="1"/>
        <pt x="398" y="629" on="1"/>
        <pt x="334" y="623" on="1"/>
        <pt x="320" y="580" on="0"/>
        <pt x="314" y="542" on="1"/>
        <pt x="291" y="389" on="1"/>
        <pt x="557" y="393" on="1"/>
        <pt x="574" y="512" on="1"/>
        <pt x="576" y="526" on="0"/>
        <pt x="582" y="623" on="1"/>
        <pt x="521" y="635" on="1"/>
        <pt x="537" y="710" on="1"/>
        <pt x="585" y="705" on="0"/>
        <pt x="632" y="705" on="1"/>
      </contour>
    </TTGlyph>
    <TTGlyph name="Hbar" xMin="12" yMin="-5" xMax="825" yMax="710">
      <contour>
        <pt x="578" y="551" on="1"/>
        <pt x="582" y="589" on="0"/>
        <pt x="582" y="623" on="1"/>
        <pt x="521" y="635" on="1"/>
        <pt x="537" y="710" on="1"/>
        <pt x="585" y="705" on="0"/>
        <pt x="632" y="705" on="1"/>
        <pt x="825" y="710" on="1"/>
        <pt x="818" y="629" on="1"/>
        <pt x="754" y="623" on="1"/>
        <pt x="745" y="600" on="0"/>
        <pt x="734" y="551" on="1"/>
        <pt x="819" y="551" on="1"/>
        <pt x="810" y="487" on="1"/>
        <pt x="725" y="487" on="1"/>
        <pt x="683" y="193" on="1"/>
        <pt x="674" y="144" on="0"/>
        <pt x="674" y="77" on="1"/>
        <pt x="735" y="71" on="1"/>
        <pt x="719" y="-5" on="1"/>
        <pt x="640" y="0" on="0"/>
        <pt x="528" y="0" on="1"/>
        <pt x="432" y="-5" on="1"/>
        <pt x="437" y="65" on="1"/>
        <pt x="502" y="77" on="1"/>
        <pt x="502" y="79" on="0"/>
        <pt x="521" y="151" on="0"/>
        <pt x="523" y="163" on="1"/>
        <pt x="543" y="302" on="1"/>
        <pt x="279" y="302" on="1"/>
        <pt x="263" y="193" on="1"/>
        <pt x="255" y="143" on="0"/>
        <pt x="255" y="77" on="1"/>
        <pt x="315" y="71" on="1"/>
        <pt x="299" y="-5" on="1"/>
        <pt x="220" y="0" on="0"/>
        <pt x="108" y="0" on="1"/>
        <pt x="12" y="-5" on="1"/>
        <pt x="17" y="65" on="1"/>
        <pt x="82" y="77" on="1"/>
        <pt x="101" y="139" on="0"/>
        <pt x="103" y="163" on="1"/>
        <pt x="150" y="487" on="1"/>
        <pt x="66" y="487" on="1"/>
        <pt x="75" y="551" on="1"/>
        <pt x="159" y="551" on="1"/>
        <pt x="162" y="580" on="0"/>
        <pt x="162" y="623" on="1"/>
        <pt x="101" y="635" on="1"/>
        <pt x="117" y="710" on="1"/>
        <pt x="165" y="705" on="0"/>
        <pt x="212" y="705" on="1"/>
        <pt x="405" y="710" on="1"/>
        <pt x="398" y="629" on="1"/>
        <pt x="334" y="623" on="1"/>
        <pt x="328" y="606" on="0"/>
        <pt x="315" y="551" on="1"/>
      </contour>
      <contour>
        <pt x="291" y="389" on="1"/>
        <pt x="557" y="393" on="1"/>
        <pt x="570" y="487" on="1"/>
        <pt x="305" y="487" on="1"/>
      </contour>
    </TTGlyph>
    <TTGlyph name="Hcircumflex" xMin="12" yMin="-5" xMax="825" yMax="933">
      <contour>
        <pt x="825" y="710" on="1"/>
        <pt x="818" y="629" on="1"/>
        <pt x="754" y="623" on="1"/>
        <pt x="738" y="575" on="0"/>
        <pt x="733" y="542" on="1"/>
        <pt x="683" y="193" on="1"/>
        <pt x="674" y="144" on="0"/>
        <pt x="674" y="77" on="1"/>
        <pt x="735" y="71" on="1"/>
        <pt x="719" y="-5" on="1"/>
        <pt x="640" y="0" on="0"/>
        <pt x="528" y="0" on="1"/>
        <pt x="432" y="-5" on="1"/>
        <pt x="437" y="65" on="1"/>
        <pt x="502" y="77" on="1"/>
        <pt x="502" y="79" on="0"/>
        <pt x="521" y="151" on="0"/>
        <pt x="523" y="163" on="1"/>
        <pt x="543" y="302" on="1"/>
        <pt x="279" y="302" on="1"/>
        <pt x="263" y="193" on="1"/>
        <pt x="255" y="143" on="0"/>
        <pt x="255" y="77" on="1"/>
        <pt x="315" y="71" on="1"/>
        <pt x="299" y="-5" on="1"/>
        <pt x="220" y="0" on="0"/>
        <pt x="108" y="0" on="1"/>
        <pt x="12" y="-5" on="1"/>
        <pt x="17" y="65" on="1"/>
        <pt x="82" y="77" on="1"/>
        <pt x="101" y="139" on="0"/>
        <pt x="103" y="163" on="1"/>
        <pt x="154" y="512" on="1"/>
        <pt x="156" y="523" on="0"/>
        <pt x="162" y="623" on="1"/>
        <pt x="101" y="635" on="1"/>
        <pt x="117" y="710" on="1"/>
        <pt x="165" y="705" on="0"/>
        <pt x="212" y="705" on="1"/>
        <pt x="405" y="710" on="1"/>
        <pt x="398" y="629" on="1"/>
        <pt x="334" y="623" on="1"/>
        <pt x="320" y="580" on="0"/>
        <pt x="314" y="542" on="1"/>
        <pt x="291" y="389" on="1"/>
        <pt x="557" y="393" on="1"/>
        <pt x="574" y="512" on="1"/>
        <pt x="576" y="526" on="0"/>
        <pt x="582" y="623" on="1"/>
        <pt x="521" y="635" on="1"/>
        <pt x="537" y="710" on="1"/>
        <pt x="585" y="705" on="0"/>
        <pt x="632" y="705" on="1"/>
      </contour>
      <contour>
        <pt x="497" y="933" on="1"/>
        <pt x="668" y="800" on="1"/>
        <pt x="613" y="742" on="1"/>
        <pt x="556" y="790" on="1"/>
        <pt x="481" y="832" on="1"/>
        <pt x="393" y="790" on="1"/>
        <pt x="320" y="742" on="1"/>
        <pt x="284" y="800" on="1"/>
      </contour>
    </TTGlyph>
    <TTGlyph name="I" xMin="17" yMin="-5" xMax="410" yMax="710">
      <contour>
        <pt x="410" y="710" on="1"/>
        <pt x="403" y="629" on="1"/>
        <pt x="339" y="623" on="1"/>
        <pt x="323" y="575" on="0"/>
        <pt x="318" y="542" on="1"/>
        <pt x="268" y="193" on="1"/>
        <pt x="259" y="144" on="0"/>
        <pt x="259" y="77" on="1"/>
        <pt x="320" y="71" on="1"/>
        <pt x="304" y="-5" on="1"/>
        <pt x="225" y="0" on="0"/>
        <pt x="113" y="0" on="1"/>
        <pt x="17" y="-5" on="1"/>
        <pt x="22" y="65" on="1"/>
        <pt x="87" y="77" on="1"/>
        <pt x="87" y="79" on="0"/>
        <pt x="106" y="151" on="0"/>
        <pt x="108" y="163" on="1"/>
        <pt x="159" y="512" on="1"/>
        <pt x="161" y="526" on="0"/>
        <pt x="167" y="623" on="1"/>
        <pt x="106" y="635" on="1"/>
        <pt x="122" y="710" on="1"/>
        <pt x="170" y="705" on="0"/>
        <pt x="217" y="705" on="1"/>
      </contour>
    </TTGlyph>
    <TTGlyph name="IJ" xMin="16" yMin="-200" xMax="735" yMax="710">
      <contour>
        <pt x="488" y="512" on="1"/>
        <pt x="496" y="566" on="0"/>
        <pt x="496" y="614" on="0"/>
        <pt x="495" y="623" on="1"/>
        <pt x="417" y="632" on="1"/>
        <pt x="335" y="623" on="1"/>
        <pt x="323" y="595" on="0"/>
        <pt x="315" y="542" on="1"/>
        <pt x="264" y="193" on="1"/>
        <pt x="255" y="127" on="0"/>
        <pt x="255" y="77" on="1"/>
        <pt x="317" y="71" on="1"/>
        <pt x="302" y="-5" on="1"/>
        <pt x="224" y="0" on="0"/>
        <pt x="114" y="0" on="1"/>
        <pt x="16" y="-5" on="1"/>
        <pt x="21" y="65" on="1"/>
        <pt x="88" y="77" on="1"/>
        <pt x="89" y="82" on="0"/>
        <pt x="107" y="152" on="0"/>
        <pt x="109" y="163" on="1"/>
        <pt x="160" y="512" on="1"/>
        <pt x="168" y="569" on="0"/>
        <pt x="168" y="623" on="1"/>
        <pt x="106" y="635" on="1"/>
        <pt x="122" y="710" on="1"/>
        <pt x="173" y="705" on="0"/>
        <pt x="218" y="705" on="1"/>
        <pt x="546" y="705" on="1"/>
        <pt x="735" y="710" on="1"/>
        <pt x="728" y="629" on="1"/>
        <pt x="663" y="623" on="1"/>
        <pt x="647" y="575" on="0"/>
        <pt x="642" y="542" on="1"/>
        <pt x="563" y="0" on="1"/>
        <pt x="560" y="-23" on="0"/>
        <pt x="458" y="-120" on="0"/>
        <pt x="363" y="-200" on="1"/>
        <pt x="314" y="-169" on="1"/>
        <pt x="412" y="-9" on="0"/>
        <pt x="415" y="11" on="1"/>
      </contour>
    </TTGlyph>
    <TTGlyph name="Iacute" xMin="17" yMin="-5" xMax="427" yMax="898">
      <contour>
        <pt x="410" y="710" on="1"/>
        <pt x="403" y="629" on="1"/>
        <pt x="339" y="623" on="1"/>
        <pt x="323" y="575" on="0"/>
        <pt x="318" y="542" on="1"/>
        <pt x="268" y="193" on="1"/>
        <pt x="259" y="144" on="0"/>
        <pt x="259" y="77" on="1"/>
        <pt x="320" y="71" on="1"/>
        <pt x="304" y="-5" on="1"/>
        <pt x="225" y="0" on="0"/>
        <pt x="113" y="0" on="1"/>
        <pt x="17" y="-5" on="1"/>
        <pt x="22" y="65" on="1"/>
        <pt x="87" y="77" on="1"/>
        <pt x="87" y="79" on="0"/>
        <pt x="106" y="151" on="0"/>
        <pt x="108" y="163" on="1"/>
        <pt x="159" y="512" on="1"/>
        <pt x="161" y="526" on="0"/>
        <pt x="167" y="623" on="1"/>
        <pt x="106" y="635" on="1"/>
        <pt x="122" y="710" on="1"/>
        <pt x="170" y="705" on="0"/>
        <pt x="217" y="705" on="1"/>
      </contour>
      <contour>
        <pt x="392" y="898" on="1"/>
        <pt x="427" y="814" on="1"/>
        <pt x="288" y="774" on="0"/>
        <pt x="269" y="768" on="1"/>
        <pt x="198" y="730" on="1"/>
        <pt x="162" y="794" on="1"/>
      </contour>
    </TTGlyph>
    <TTGlyph name="Ibreve" xMin="17" yMin="-5" xMax="443" yMax="898">
      <contour>
        <pt x="410" y="710" on="1"/>
        <pt x="403" y="629" on="1"/>
        <pt x="339" y="623" on="1"/>
        <pt x="323" y="575" on="0"/>
        <pt x="318" y="542" on="1"/>
        <pt x="268" y="193" on="1"/>
        <pt x="259" y="144" on="0"/>
        <pt x="259" y="77" on="1"/>
        <pt x="320" y="71" on="1"/>
        <pt x="304" y="-5" on="1"/>
        <pt x="225" y="0" on="0"/>
        <pt x="113" y="0" on="1"/>
        <pt x="17" y="-5" on="1"/>
        <pt x="22" y="65" on="1"/>
        <pt x="87" y="77" on="1"/>
        <pt x="87" y="79" on="0"/>
        <pt x="106" y="151" on="0"/>
        <pt x="108" y="163" on="1"/>
        <pt x="159" y="512" on="1"/>
        <pt x="161" y="526" on="0"/>
        <pt x="167" y="623" on="1"/>
        <pt x="106" y="635" on="1"/>
        <pt x="122" y="710" on="1"/>
        <pt x="170" y="705" on="0"/>
        <pt x="217" y="705" on="1"/>
      </contour>
      <contour>
        <pt x="341" y="743" on="0"/>
        <pt x="203" y="743" on="0"/>
        <pt x="168" y="784" on="1"/>
        <pt x="142" y="815" on="0"/>
        <pt x="142" y="866" on="1"/>
        <pt x="142" y="881" on="0"/>
        <pt x="144" y="898" on="1"/>
        <pt x="208" y="898" on="1"/>
        <pt x="207" y="891" on="0"/>
        <pt x="207" y="884" on="1"/>
        <pt x="207" y="857" on="0"/>
        <pt x="245" y="819" on="0"/>
        <pt x="320" y="819" on="0"/>
        <pt x="374" y="861" on="0"/>
        <pt x="379" y="898" on="1"/>
        <pt x="443" y="898" on="1"/>
        <pt x="433" y="824" on="0"/>
      </contour>
    </TTGlyph>
    <TTGlyph name="Icircumflex" xMin="17" yMin="-5" xMax="467" yMax="933">
      <contour>
        <pt x="410" y="710" on="1"/>
        <pt x="403" y="629" on="1"/>
        <pt x="339" y="623" on="1"/>
        <pt x="323" y="575" on="0"/>
        <pt x="318" y="542" on="1"/>
        <pt x="268" y="193" on="1"/>
        <pt x="259" y="144" on="0"/>
        <pt x="259" y="77" on="1"/>
        <pt x="320" y="71" on="1"/>
        <pt x="304" y="-5" on="1"/>
        <pt x="225" y="0" on="0"/>
        <pt x="113" y="0" on="1"/>
        <pt x="17" y="-5" on="1"/>
        <pt x="22" y="65" on="1"/>
        <pt x="87" y="77" on="1"/>
        <pt x="87" y="79" on="0"/>
        <pt x="106" y="151" on="0"/>
        <pt x="108" y="163" on="1"/>
        <pt x="159" y="512" on="1"/>
        <pt x="161" y="526" on="0"/>
        <pt x="167" y="623" on="1"/>
        <pt x="106" y="635" on="1"/>
        <pt x="122" y="710" on="1"/>
        <pt x="170" y="705" on="0"/>
        <pt x="217" y="705" on="1"/>
      </contour>
      <contour>
        <pt x="296" y="933" on="1"/>
        <pt x="467" y="800" on="1"/>
        <pt x="412" y="742" on="1"/>
        <pt x="355" y="790" on="1"/>
        <pt x="280" y="832" on="1"/>
        <pt x="192" y="790" on="1"/>
        <pt x="119" y="742" on="1"/>
        <pt x="83" y="800" on="1"/>
      </contour>
    </TTGlyph>
    <TTGlyph name="Idieresis" xMin="17" yMin="-5" xMax="430" yMax="896">
      <contour>
        <pt x="207" y="896" on="1"/>
        <pt x="261" y="896" on="0"/>
        <pt x="261" y="839" on="1"/>
        <pt x="261" y="803" on="0"/>
        <pt x="222" y="757" on="0"/>
        <pt x="161" y="757" on="0"/>
        <pt x="132" y="788" on="0"/>
        <pt x="132" y="849" on="0"/>
        <pt x="173" y="896" on="0"/>
      </contour>
      <contour>
        <pt x="376" y="896" on="1"/>
        <pt x="430" y="896" on="0"/>
        <pt x="430" y="839" on="1"/>
        <pt x="430" y="803" on="0"/>
        <pt x="391" y="757" on="0"/>
        <pt x="330" y="757" on="0"/>
        <pt x="302" y="788" on="0"/>
        <pt x="302" y="850" on="0"/>
        <pt x="341" y="896" on="0"/>
      </contour>
      <contour>
        <pt x="410" y="710" on="1"/>
        <pt x="403" y="629" on="1"/>
        <pt x="339" y="623" on="1"/>
        <pt x="323" y="575" on="0"/>
        <pt x="318" y="542" on="1"/>
        <pt x="268" y="193" on="1"/>
        <pt x="259" y="144" on="0"/>
        <pt x="259" y="77" on="1"/>
        <pt x="320" y="71" on="1"/>
        <pt x="304" y="-5" on="1"/>
        <pt x="225" y="0" on="0"/>
        <pt x="113" y="0" on="1"/>
        <pt x="17" y="-5" on="1"/>
        <pt x="22" y="65" on="1"/>
        <pt x="87" y="77" on="1"/>
        <pt x="87" y="79" on="0"/>
        <pt x="106" y="151" on="0"/>
        <pt x="108" y="163" on="1"/>
        <pt x="159" y="512" on="1"/>
        <pt x="161" y="526" on="0"/>
        <pt x="167" y="623" on="1"/>
        <pt x="106" y="635" on="1"/>
        <pt x="122" y="710" on="1"/>
        <pt x="170" y="705" on="0"/>
        <pt x="217" y="705" on="1"/>
      </contour>
    </TTGlyph>
    <TTGlyph name="Idotaccent" xMin="17" yMin="-5" xMax="410" yMax="905">
      <contour>
        <pt x="410" y="710" on="1"/>
        <pt x="403" y="629" on="1"/>
        <pt x="339" y="623" on="1"/>
        <pt x="323" y="575" on="0"/>
        <pt x="318" y="542" on="1"/>
        <pt x="268" y="193" on="1"/>
        <pt x="259" y="144" on="0"/>
        <pt x="259" y="77" on="1"/>
        <pt x="320" y="71" on="1"/>
        <pt x="304" y="-5" on="1"/>
        <pt x="225" y="0" on="0"/>
        <pt x="113" y="0" on="1"/>
        <pt x="17" y="-5" on="1"/>
        <pt x="22" y="65" on="1"/>
        <pt x="87" y="77" on="1"/>
        <pt x="87" y="79" on="0"/>
        <pt x="106" y="151" on="0"/>
        <pt x="108" y="163" on="1"/>
        <pt x="159" y="512" on="1"/>
        <pt x="161" y="526" on="0"/>
        <pt x="167" y="623" on="1"/>
        <pt x="106" y="635" on="1"/>
        <pt x="122" y="710" on="1"/>
        <pt x="170" y="705" on="0"/>
        <pt x="217" y="705" on="1"/>
      </contour>
      <contour>
        <pt x="200" y="853" on="0"/>
        <pt x="248" y="905" on="0"/>
        <pt x="321" y="905" on="0"/>
        <pt x="356" y="870" on="0"/>
        <pt x="356" y="798" on="0"/>
        <pt x="308" y="746" on="0"/>
        <pt x="235" y="746" on="0"/>
        <pt x="200" y="782" on="0"/>
      </contour>
    </TTGlyph>
    <TTGlyph name="Igrave" xMin="17" yMin="-5" xMax="410" yMax="908">
      <contour>
        <pt x="410" y="710" on="1"/>
        <pt x="403" y="629" on="1"/>
        <pt x="339" y="623" on="1"/>
        <pt x="323" y="575" on="0"/>
        <pt x="318" y="542" on="1"/>
        <pt x="268" y="193" on="1"/>
        <pt x="259" y="144" on="0"/>
        <pt x="259" y="77" on="1"/>
        <pt x="320" y="71" on="1"/>
        <pt x="304" y="-5" on="1"/>
        <pt x="225" y="0" on="0"/>
        <pt x="113" y="0" on="1"/>
        <pt x="17" y="-5" on="1"/>
        <pt x="22" y="65" on="1"/>
        <pt x="87" y="77" on="1"/>
        <pt x="87" y="79" on="0"/>
        <pt x="106" y="151" on="0"/>
        <pt x="108" y="163" on="1"/>
        <pt x="159" y="512" on="1"/>
        <pt x="161" y="526" on="0"/>
        <pt x="167" y="623" on="1"/>
        <pt x="106" y="635" on="1"/>
        <pt x="122" y="710" on="1"/>
        <pt x="170" y="705" on="0"/>
        <pt x="217" y="705" on="1"/>
      </contour>
      <contour>
        <pt x="383" y="804" on="1"/>
        <pt x="347" y="740" on="1"/>
        <pt x="275" y="778" on="1"/>
        <pt x="118" y="824" on="1"/>
        <pt x="153" y="908" on="1"/>
      </contour>
    </TTGlyph>
    <TTGlyph name="Imacron" xMin="17" yMin="-5" xMax="468" yMax="844">
      <contour>
        <pt x="410" y="710" on="1"/>
        <pt x="403" y="629" on="1"/>
        <pt x="339" y="623" on="1"/>
        <pt x="323" y="575" on="0"/>
        <pt x="318" y="542" on="1"/>
        <pt x="268" y="193" on="1"/>
        <pt x="259" y="144" on="0"/>
        <pt x="259" y="77" on="1"/>
        <pt x="320" y="71" on="1"/>
        <pt x="304" y="-5" on="1"/>
        <pt x="225" y="0" on="0"/>
        <pt x="113" y="0" on="1"/>
        <pt x="17" y="-5" on="1"/>
        <pt x="22" y="65" on="1"/>
        <pt x="87" y="77" on="1"/>
        <pt x="87" y="79" on="0"/>
        <pt x="106" y="151" on="0"/>
        <pt x="108" y="163" on="1"/>
        <pt x="159" y="512" on="1"/>
        <pt x="161" y="526" on="0"/>
        <pt x="167" y="623" on="1"/>
        <pt x="106" y="635" on="1"/>
        <pt x="122" y="710" on="1"/>
        <pt x="170" y="705" on="0"/>
        <pt x="217" y="705" on="1"/>
      </contour>
      <contour>
        <pt x="450" y="771" on="1"/>
        <pt x="124" y="771" on="1"/>
        <pt x="135" y="844" on="1"/>
        <pt x="468" y="844" on="1"/>
      </contour>
    </TTGlyph>
    <TTGlyph name="Iogonek" xMin="-35" yMin="-197" xMax="406" yMax="710">
      <contour>
        <pt x="73" y="-93" on="1"/>
        <pt x="73" y="-133" on="0"/>
        <pt x="111" y="-133" on="1"/>
        <pt x="125" y="-133" on="0"/>
        <pt x="145" y="-126" on="1"/>
        <pt x="155" y="-174" on="1"/>
        <pt x="106" y="-197" on="0"/>
        <pt x="16" y="-197" on="0"/>
        <pt x="-35" y="-158" on="0"/>
        <pt x="-35" y="-92" on="0"/>
        <pt x="-11" y="-50" on="0"/>
        <pt x="25" y="-17" on="0"/>
        <pt x="64" y="24" on="0"/>
        <pt x="100" y="106" on="0"/>
        <pt x="108" y="163" on="1"/>
        <pt x="159" y="512" on="1"/>
        <pt x="161" y="526" on="0"/>
        <pt x="167" y="623" on="1"/>
        <pt x="105" y="635" on="1"/>
        <pt x="121" y="710" on="1"/>
        <pt x="172" y="705" on="0"/>
        <pt x="217" y="705" on="1"/>
        <pt x="406" y="710" on="1"/>
        <pt x="399" y="629" on="1"/>
        <pt x="334" y="623" on="1"/>
        <pt x="320" y="580" on="0"/>
        <pt x="314" y="542" on="1"/>
        <pt x="263" y="193" on="1"/>
        <pt x="254" y="129" on="0"/>
        <pt x="254" y="77" on="1"/>
        <pt x="316" y="71" on="1"/>
        <pt x="301" y="-5" on="1"/>
        <pt x="243" y="-1" on="0"/>
        <pt x="159" y="0" on="1"/>
        <pt x="121" y="-6" on="0"/>
        <pt x="73" y="-63" on="0"/>
      </contour>
    </TTGlyph>
    <TTGlyph name="Itilde" xMin="17" yMin="-5" xMax="466" yMax="883">
      <contour>
        <pt x="410" y="710" on="1"/>
        <pt x="403" y="629" on="1"/>
        <pt x="339" y="623" on="1"/>
        <pt x="323" y="575" on="0"/>
        <pt x="318" y="542" on="1"/>
        <pt x="268" y="193" on="1"/>
        <pt x="259" y="144" on="0"/>
        <pt x="259" y="77" on="1"/>
        <pt x="320" y="71" on="1"/>
        <pt x="304" y="-5" on="1"/>
        <pt x="225" y="0" on="0"/>
        <pt x="113" y="0" on="1"/>
        <pt x="17" y="-5" on="1"/>
        <pt x="22" y="65" on="1"/>
        <pt x="87" y="77" on="1"/>
        <pt x="87" y="79" on="0"/>
        <pt x="106" y="151" on="0"/>
        <pt x="108" y="163" on="1"/>
        <pt x="159" y="512" on="1"/>
        <pt x="161" y="526" on="0"/>
        <pt x="167" y="623" on="1"/>
        <pt x="106" y="635" on="1"/>
        <pt x="122" y="710" on="1"/>
        <pt x="170" y="705" on="0"/>
        <pt x="217" y="705" on="1"/>
      </contour>
      <contour>
        <pt x="436" y="810" on="0"/>
        <pt x="380" y="754" on="0"/>
        <pt x="338" y="754" on="0"/>
        <pt x="220" y="792" on="0"/>
        <pt x="203" y="792" on="1"/>
        <pt x="176" y="792" on="0"/>
        <pt x="149" y="760" on="1"/>
        <pt x="140" y="750" on="1"/>
        <pt x="97" y="778" on="1"/>
        <pt x="121" y="819" on="0"/>
        <pt x="184" y="883" on="0"/>
        <pt x="225" y="883" on="0"/>
        <pt x="345" y="845" on="0"/>
        <pt x="362" y="845" on="1"/>
        <pt x="389" y="845" on="0"/>
        <pt x="413" y="874" on="1"/>
        <pt x="421" y="883" on="1"/>
        <pt x="466" y="855" on="1"/>
        <pt x="459" y="844" on="0"/>
      </contour>
    </TTGlyph>
    <TTGlyph name="J" xMin="-31" yMin="-200" xMax="393" yMax="710">
      <contour>
        <pt x="386" y="629" on="1"/>
        <pt x="322" y="623" on="1"/>
        <pt x="306" y="575" on="0"/>
        <pt x="301" y="542" on="1"/>
        <pt x="224" y="10" on="1"/>
        <pt x="220" y="-14" on="0"/>
        <pt x="106" y="-129" on="0"/>
        <pt x="19" y="-200" on="1"/>
        <pt x="-31" y="-169" on="1"/>
        <pt x="66" y="-9" on="0"/>
        <pt x="69" y="11" on="1"/>
        <pt x="142" y="512" on="1"/>
        <pt x="150" y="569" on="0"/>
        <pt x="150" y="623" on="1"/>
        <pt x="89" y="635" on="1"/>
        <pt x="105" y="710" on="1"/>
        <pt x="153" y="705" on="0"/>
        <pt x="200" y="705" on="1"/>
        <pt x="393" y="710" on="1"/>
      </contour>
    </TTGlyph>
    <TTGlyph name="Jcircumflex" xMin="-31" yMin="-200" xMax="437" yMax="933">
      <contour>
        <pt x="386" y="629" on="1"/>
        <pt x="322" y="623" on="1"/>
        <pt x="306" y="575" on="0"/>
        <pt x="301" y="542" on="1"/>
        <pt x="224" y="10" on="1"/>
        <pt x="220" y="-14" on="0"/>
        <pt x="106" y="-129" on="0"/>
        <pt x="19" y="-200" on="1"/>
        <pt x="-31" y="-169" on="1"/>
        <pt x="66" y="-9" on="0"/>
        <pt x="69" y="11" on="1"/>
        <pt x="142" y="512" on="1"/>
        <pt x="150" y="569" on="0"/>
        <pt x="150" y="623" on="1"/>
        <pt x="89" y="635" on="1"/>
        <pt x="105" y="710" on="1"/>
        <pt x="153" y="705" on="0"/>
        <pt x="200" y="705" on="1"/>
        <pt x="393" y="710" on="1"/>
      </contour>
      <contour>
        <pt x="266" y="933" on="1"/>
        <pt x="437" y="800" on="1"/>
        <pt x="382" y="742" on="1"/>
        <pt x="325" y="790" on="1"/>
        <pt x="250" y="832" on="1"/>
        <pt x="162" y="790" on="1"/>
        <pt x="89" y="742" on="1"/>
        <pt x="53" y="800" on="1"/>
      </contour>
    </TTGlyph>
    <TTGlyph name="K" xMin="15" yMin="-5" xMax="757" yMax="710">
      <contour>
        <pt x="713" y="71" on="1"/>
        <pt x="697" y="-5" on="1"/>
        <pt x="608" y="0" on="0"/>
        <pt x="497" y="0" on="1"/>
        <pt x="407" y="-5" on="1"/>
        <pt x="412" y="65" on="1"/>
        <pt x="450" y="73" on="1"/>
        <pt x="406" y="163" on="0"/>
        <pt x="406" y="164" on="1"/>
        <pt x="290" y="353" on="1"/>
        <pt x="478" y="577" on="1"/>
        <pt x="512" y="629" on="1"/>
        <pt x="484" y="635" on="1"/>
        <pt x="500" y="710" on="1"/>
        <pt x="544" y="705" on="0"/>
        <pt x="593" y="705" on="1"/>
        <pt x="757" y="710" on="1"/>
        <pt x="750" y="629" on="1"/>
        <pt x="695" y="623" on="1"/>
        <pt x="653" y="587" on="0"/>
        <pt x="612" y="546" on="1"/>
        <pt x="461" y="370" on="1"/>
        <pt x="561" y="225" on="0"/>
        <pt x="624" y="129" on="1"/>
        <pt x="631" y="119" on="0"/>
        <pt x="668" y="77" on="1"/>
      </contour>
      <contour>
        <pt x="402" y="710" on="1"/>
        <pt x="395" y="629" on="1"/>
        <pt x="334" y="623" on="1"/>
        <pt x="320" y="580" on="0"/>
        <pt x="314" y="542" on="1"/>
        <pt x="263" y="193" on="1"/>
        <pt x="255" y="143" on="0"/>
        <pt x="255" y="77" on="1"/>
        <pt x="311" y="71" on="1"/>
        <pt x="295" y="-5" on="1"/>
        <pt x="218" y="0" on="0"/>
        <pt x="107" y="0" on="1"/>
        <pt x="15" y="-5" on="1"/>
        <pt x="20" y="65" on="1"/>
        <pt x="82" y="77" on="1"/>
        <pt x="101" y="139" on="0"/>
        <pt x="103" y="163" on="1"/>
        <pt x="154" y="512" on="1"/>
        <pt x="156" y="523" on="0"/>
        <pt x="162" y="623" on="1"/>
        <pt x="105" y="635" on="1"/>
        <pt x="120" y="710" on="1"/>
        <pt x="163" y="705" on="0"/>
        <pt x="211" y="705" on="1"/>
      </contour>
    </TTGlyph>
    <TTGlyph name="Kcommaaccent" xMin="15" yMin="-274" xMax="757" yMax="710">
      <contour>
        <pt x="713" y="71" on="1"/>
        <pt x="697" y="-5" on="1"/>
        <pt x="608" y="0" on="0"/>
        <pt x="497" y="0" on="1"/>
        <pt x="407" y="-5" on="1"/>
        <pt x="412" y="65" on="1"/>
        <pt x="450" y="73" on="1"/>
        <pt x="406" y="163" on="0"/>
        <pt x="406" y="164" on="1"/>
        <pt x="290" y="353" on="1"/>
        <pt x="478" y="577" on="1"/>
        <pt x="512" y="629" on="1"/>
        <pt x="484" y="635" on="1"/>
        <pt x="500" y="710" on="1"/>
        <pt x="544" y="705" on="0"/>
        <pt x="593" y="705" on="1"/>
        <pt x="757" y="710" on="1"/>
        <pt x="750" y="629" on="1"/>
        <pt x="695" y="623" on="1"/>
        <pt x="653" y="587" on="0"/>
        <pt x="612" y="546" on="1"/>
        <pt x="461" y="370" on="1"/>
        <pt x="561" y="225" on="0"/>
        <pt x="624" y="129" on="1"/>
        <pt x="631" y="119" on="0"/>
        <pt x="668" y="77" on="1"/>
      </contour>
      <contour>
        <pt x="402" y="710" on="1"/>
        <pt x="395" y="629" on="1"/>
        <pt x="334" y="623" on="1"/>
        <pt x="320" y="580" on="0"/>
        <pt x="314" y="542" on="1"/>
        <pt x="263" y="193" on="1"/>
        <pt x="255" y="143" on="0"/>
        <pt x="255" y="77" on="1"/>
        <pt x="311" y="71" on="1"/>
        <pt x="295" y="-5" on="1"/>
        <pt x="218" y="0" on="0"/>
        <pt x="107" y="0" on="1"/>
        <pt x="15" y="-5" on="1"/>
        <pt x="20" y="65" on="1"/>
        <pt x="82" y="77" on="1"/>
        <pt x="101" y="139" on="0"/>
        <pt x="103" y="163" on="1"/>
        <pt x="154" y="512" on="1"/>
        <pt x="156" y="523" on="0"/>
        <pt x="162" y="623" on="1"/>
        <pt x="105" y="635" on="1"/>
        <pt x="120" y="710" on="1"/>
        <pt x="163" y="705" on="0"/>
        <pt x="211" y="705" on="1"/>
      </contour>
      <contour>
        <pt x="275" y="-167" on="0"/>
        <pt x="275" y="-99" on="0"/>
        <pt x="320" y="-58" on="0"/>
        <pt x="373" y="-58" on="0"/>
        <pt x="402" y="-90" on="0"/>
        <pt x="402" y="-147" on="0"/>
        <pt x="362" y="-225" on="0"/>
        <pt x="342" y="-250" on="1"/>
        <pt x="321" y="-274" on="1"/>
        <pt x="278" y="-262" on="1"/>
        <pt x="303" y="-207" on="0"/>
        <pt x="307" y="-180" on="1"/>
      </contour>
    </TTGlyph>
    <TTGlyph name="L" xMin="12" yMin="-5" xMax="532" yMax="710">
      <contour>
        <pt x="255" y="87" on="1"/>
        <pt x="345" y="87" on="1"/>
        <pt x="382" y="87" on="0"/>
        <pt x="420" y="95" on="1"/>
        <pt x="452" y="149" on="0"/>
        <pt x="464" y="195" on="1"/>
        <pt x="532" y="190" on="1"/>
        <pt x="492" y="14" on="1"/>
        <pt x="471" y="-4" on="1"/>
        <pt x="380" y="0" on="0"/>
        <pt x="361" y="0" on="1"/>
        <pt x="108" y="0" on="1"/>
        <pt x="12" y="-5" on="1"/>
        <pt x="17" y="65" on="1"/>
        <pt x="82" y="77" on="1"/>
        <pt x="101" y="139" on="0"/>
        <pt x="103" y="163" on="1"/>
        <pt x="154" y="512" on="1"/>
        <pt x="156" y="523" on="0"/>
        <pt x="162" y="623" on="1"/>
        <pt x="101" y="635" on="1"/>
        <pt x="117" y="710" on="1"/>
        <pt x="165" y="705" on="0"/>
        <pt x="212" y="705" on="1"/>
        <pt x="405" y="710" on="1"/>
        <pt x="398" y="629" on="1"/>
        <pt x="334" y="623" on="1"/>
        <pt x="320" y="580" on="0"/>
        <pt x="314" y="542" on="1"/>
        <pt x="263" y="193" on="1"/>
        <pt x="255" y="137" on="0"/>
      </contour>
    </TTGlyph>
    <TTGlyph name="Lacute" xMin="12" yMin="-5" xMax="532" yMax="898">
      <contour>
        <pt x="255" y="87" on="1"/>
        <pt x="345" y="87" on="1"/>
        <pt x="382" y="87" on="0"/>
        <pt x="420" y="95" on="1"/>
        <pt x="452" y="149" on="0"/>
        <pt x="464" y="195" on="1"/>
        <pt x="532" y="190" on="1"/>
        <pt x="492" y="14" on="1"/>
        <pt x="471" y="-4" on="1"/>
        <pt x="380" y="0" on="0"/>
        <pt x="361" y="0" on="1"/>
        <pt x="108" y="0" on="1"/>
        <pt x="12" y="-5" on="1"/>
        <pt x="17" y="65" on="1"/>
        <pt x="82" y="77" on="1"/>
        <pt x="101" y="139" on="0"/>
        <pt x="103" y="163" on="1"/>
        <pt x="154" y="512" on="1"/>
        <pt x="156" y="523" on="0"/>
        <pt x="162" y="623" on="1"/>
        <pt x="101" y="635" on="1"/>
        <pt x="117" y="710" on="1"/>
        <pt x="165" y="705" on="0"/>
        <pt x="212" y="705" on="1"/>
        <pt x="405" y="710" on="1"/>
        <pt x="398" y="629" on="1"/>
        <pt x="334" y="623" on="1"/>
        <pt x="320" y="580" on="0"/>
        <pt x="314" y="542" on="1"/>
        <pt x="263" y="193" on="1"/>
        <pt x="255" y="137" on="0"/>
      </contour>
      <contour>
        <pt x="346" y="898" on="1"/>
        <pt x="381" y="814" on="1"/>
        <pt x="242" y="774" on="0"/>
        <pt x="223" y="768" on="1"/>
        <pt x="152" y="730" on="1"/>
        <pt x="116" y="794" on="1"/>
      </contour>
    </TTGlyph>
    <TTGlyph name="Lcaron" xMin="12" yMin="-5" xMax="561" yMax="710">
      <contour>
        <pt x="446" y="597" on="1"/>
        <pt x="561" y="597" on="1"/>
        <pt x="514" y="353" on="1"/>
        <pt x="428" y="358" on="1"/>
        <pt x="443" y="451" on="1"/>
      </contour>
      <contour>
        <pt x="255" y="87" on="1"/>
        <pt x="345" y="87" on="1"/>
        <pt x="382" y="87" on="0"/>
        <pt x="420" y="95" on="1"/>
        <pt x="452" y="149" on="0"/>
        <pt x="464" y="195" on="1"/>
        <pt x="532" y="190" on="1"/>
        <pt x="492" y="14" on="1"/>
        <pt x="471" y="-4" on="1"/>
        <pt x="380" y="0" on="0"/>
        <pt x="361" y="0" on="1"/>
        <pt x="108" y="0" on="1"/>
        <pt x="12" y="-5" on="1"/>
        <pt x="17" y="65" on="1"/>
        <pt x="82" y="77" on="1"/>
        <pt x="101" y="139" on="0"/>
        <pt x="103" y="163" on="1"/>
        <pt x="154" y="512" on="1"/>
        <pt x="156" y="523" on="0"/>
        <pt x="162" y="623" on="1"/>
        <pt x="101" y="635" on="1"/>
        <pt x="117" y="710" on="1"/>
        <pt x="165" y="705" on="0"/>
        <pt x="212" y="705" on="1"/>
        <pt x="405" y="710" on="1"/>
        <pt x="398" y="629" on="1"/>
        <pt x="334" y="623" on="1"/>
        <pt x="320" y="580" on="0"/>
        <pt x="314" y="542" on="1"/>
        <pt x="263" y="193" on="1"/>
        <pt x="255" y="137" on="0"/>
      </contour>
    </TTGlyph>
    <TTGlyph name="Lcommaaccent" xMin="12" yMin="-274" xMax="532" yMax="710">
      <contour>
        <pt x="255" y="87" on="1"/>
        <pt x="345" y="87" on="1"/>
        <pt x="382" y="87" on="0"/>
        <pt x="420" y="95" on="1"/>
        <pt x="452" y="149" on="0"/>
        <pt x="464" y="195" on="1"/>
        <pt x="532" y="190" on="1"/>
        <pt x="492" y="14" on="1"/>
        <pt x="471" y="-4" on="1"/>
        <pt x="380" y="0" on="0"/>
        <pt x="361" y="0" on="1"/>
        <pt x="108" y="0" on="1"/>
        <pt x="12" y="-5" on="1"/>
        <pt x="17" y="65" on="1"/>
        <pt x="82" y="77" on="1"/>
        <pt x="101" y="139" on="0"/>
        <pt x="103" y="163" on="1"/>
        <pt x="154" y="512" on="1"/>
        <pt x="156" y="523" on="0"/>
        <pt x="162" y="623" on="1"/>
        <pt x="101" y="635" on="1"/>
        <pt x="117" y="710" on="1"/>
        <pt x="165" y="705" on="0"/>
        <pt x="212" y="705" on="1"/>
        <pt x="405" y="710" on="1"/>
        <pt x="398" y="629" on="1"/>
        <pt x="334" y="623" on="1"/>
        <pt x="320" y="580" on="0"/>
        <pt x="314" y="542" on="1"/>
        <pt x="263" y="193" on="1"/>
        <pt x="255" y="137" on="0"/>
      </contour>
      <contour>
        <pt x="203" y="-167" on="0"/>
        <pt x="203" y="-99" on="0"/>
        <pt x="248" y="-58" on="0"/>
        <pt x="301" y="-58" on="0"/>
        <pt x="330" y="-90" on="0"/>
        <pt x="330" y="-147" on="0"/>
        <pt x="290" y="-225" on="0"/>
        <pt x="270" y="-250" on="1"/>
        <pt x="249" y="-274" on="1"/>
        <pt x="206" y="-262" on="1"/>
        <pt x="231" y="-207" on="0"/>
        <pt x="235" y="-180" on="1"/>
      </contour>
    </TTGlyph>
    <TTGlyph name="Ldot" xMin="12" yMin="-5" xMax="534" yMax="710">
      <contour>
        <pt x="377" y="440" on="0"/>
        <pt x="427" y="496" on="0"/>
        <pt x="499" y="496" on="0"/>
        <pt x="534" y="459" on="0"/>
        <pt x="534" y="383" on="0"/>
        <pt x="484" y="327" on="0"/>
        <pt x="412" y="327" on="0"/>
        <pt x="377" y="365" on="0"/>
      </contour>
      <contour>
        <pt x="255" y="87" on="1"/>
        <pt x="345" y="87" on="1"/>
        <pt x="382" y="87" on="0"/>
        <pt x="420" y="95" on="1"/>
        <pt x="452" y="149" on="0"/>
        <pt x="464" y="195" on="1"/>
        <pt x="532" y="190" on="1"/>
        <pt x="492" y="14" on="1"/>
        <pt x="471" y="-4" on="1"/>
        <pt x="380" y="0" on="0"/>
        <pt x="361" y="0" on="1"/>
        <pt x="108" y="0" on="1"/>
        <pt x="12" y="-5" on="1"/>
        <pt x="17" y="65" on="1"/>
        <pt x="82" y="77" on="1"/>
        <pt x="101" y="139" on="0"/>
        <pt x="103" y="163" on="1"/>
        <pt x="154" y="512" on="1"/>
        <pt x="156" y="523" on="0"/>
        <pt x="162" y="623" on="1"/>
        <pt x="101" y="635" on="1"/>
        <pt x="117" y="710" on="1"/>
        <pt x="165" y="705" on="0"/>
        <pt x="212" y="705" on="1"/>
        <pt x="405" y="710" on="1"/>
        <pt x="398" y="629" on="1"/>
        <pt x="334" y="623" on="1"/>
        <pt x="320" y="580" on="0"/>
        <pt x="314" y="542" on="1"/>
        <pt x="263" y="193" on="1"/>
        <pt x="255" y="137" on="0"/>
      </contour>
    </TTGlyph>
    <TTGlyph name="Lslash" xMin="12" yMin="-5" xMax="532" yMax="710">
      <contour>
        <pt x="255" y="87" on="1"/>
        <pt x="345" y="87" on="1"/>
        <pt x="382" y="87" on="0"/>
        <pt x="420" y="95" on="1"/>
        <pt x="452" y="149" on="0"/>
        <pt x="464" y="195" on="1"/>
        <pt x="532" y="190" on="1"/>
        <pt x="492" y="14" on="1"/>
        <pt x="471" y="-4" on="1"/>
        <pt x="380" y="0" on="0"/>
        <pt x="361" y="0" on="1"/>
        <pt x="108" y="0" on="1"/>
        <pt x="12" y="-5" on="1"/>
        <pt x="17" y="65" on="1"/>
        <pt x="82" y="77" on="1"/>
        <pt x="101" y="139" on="0"/>
        <pt x="103" y="163" on="1"/>
        <pt x="125" y="318" on="1"/>
        <pt x="30" y="284" on="1"/>
        <pt x="17" y="344" on="1"/>
        <pt x="135" y="386" on="1"/>
        <pt x="154" y="512" on="1"/>
        <pt x="156" y="523" on="0"/>
        <pt x="162" y="623" on="1"/>
        <pt x="101" y="635" on="1"/>
        <pt x="117" y="710" on="1"/>
        <pt x="165" y="705" on="0"/>
        <pt x="212" y="705" on="1"/>
        <pt x="405" y="710" on="1"/>
        <pt x="398" y="629" on="1"/>
        <pt x="334" y="623" on="1"/>
        <pt x="320" y="580" on="0"/>
        <pt x="314" y="542" on="1"/>
        <pt x="300" y="444" on="1"/>
        <pt x="439" y="494" on="1"/>
        <pt x="451" y="434" on="1"/>
        <pt x="290" y="376" on="1"/>
        <pt x="263" y="193" on="1"/>
        <pt x="255" y="137" on="0"/>
      </contour>
    </TTGlyph>
    <TTGlyph name="M" xMin="5" yMin="-5" xMax="938" yMax="710">
      <contour>
        <pt x="824" y="132" on="1"/>
        <pt x="828" y="74" on="1"/>
        <pt x="891" y="68" on="1"/>
        <pt x="876" y="-5" on="1"/>
        <pt x="806" y="0" on="0"/>
        <pt x="699" y="0" on="1"/>
        <pt x="600" y="-5" on="1"/>
        <pt x="605" y="62" on="1"/>
        <pt x="671" y="74" on="1"/>
        <pt x="677" y="102" on="0"/>
        <pt x="688" y="162" on="1"/>
        <pt x="725" y="518" on="1"/>
        <pt x="473" y="0" on="1"/>
        <pt x="380" y="0" on="1"/>
        <pt x="285" y="518" on="1"/>
        <pt x="215" y="162" on="1"/>
        <pt x="208" y="125" on="0"/>
        <pt x="206" y="74" on="1"/>
        <pt x="270" y="68" on="1"/>
        <pt x="253" y="-5" on="1"/>
        <pt x="210" y="0" on="0"/>
        <pt x="103" y="0" on="1"/>
        <pt x="5" y="-5" on="1"/>
        <pt x="10" y="62" on="1"/>
        <pt x="77" y="74" on="1"/>
        <pt x="92" y="113" on="0"/>
        <pt x="98" y="132" on="1"/>
        <pt x="190" y="569" on="1"/>
        <pt x="192" y="593" on="0"/>
        <pt x="192" y="626" on="1"/>
        <pt x="130" y="638" on="1"/>
        <pt x="145" y="710" on="1"/>
        <pt x="202" y="705" on="0"/>
        <pt x="245" y="705" on="1"/>
        <pt x="388" y="705" on="1"/>
        <pt x="404" y="685" on="1"/>
        <pt x="417" y="571" on="0"/>
        <pt x="423" y="534" on="1"/>
        <pt x="475" y="221" on="1"/>
        <pt x="630" y="549" on="1"/>
        <pt x="689" y="685" on="1"/>
        <pt x="711" y="705" on="1"/>
        <pt x="810" y="705" on="1"/>
        <pt x="938" y="710" on="1"/>
        <pt x="931" y="638" on="1"/>
        <pt x="868" y="627" on="1"/>
        <pt x="861" y="597" on="0"/>
        <pt x="857" y="569" on="1"/>
      </contour>
    </TTGlyph>
    <TTGlyph name="N" xMin="12" yMin="-5" xMax="824" yMax="710">
      <contour>
        <pt x="213" y="705" on="1"/>
        <pt x="316" y="705" on="1"/>
        <pt x="331" y="685" on="1"/>
        <pt x="383" y="559" on="0"/>
        <pt x="394" y="537" on="1"/>
        <pt x="560" y="230" on="1"/>
        <pt x="601" y="512" on="1"/>
        <pt x="608" y="564" on="0"/>
        <pt x="608" y="623" on="1"/>
        <pt x="548" y="635" on="1"/>
        <pt x="564" y="710" on="1"/>
        <pt x="661" y="705" on="1"/>
        <pt x="824" y="710" on="1"/>
        <pt x="817" y="629" on="1"/>
        <pt x="753" y="623" on="1"/>
        <pt x="739" y="580" on="0"/>
        <pt x="733" y="542" on="1"/>
        <pt x="654" y="0" on="1"/>
        <pt x="517" y="0" on="1"/>
        <pt x="273" y="450" on="1"/>
        <pt x="235" y="193" on="1"/>
        <pt x="227" y="134" on="0"/>
        <pt x="227" y="77" on="1"/>
        <pt x="288" y="71" on="1"/>
        <pt x="272" y="-5" on="1"/>
        <pt x="221" y="0" on="0"/>
        <pt x="109" y="0" on="1"/>
        <pt x="12" y="-5" on="1"/>
        <pt x="17" y="65" on="1"/>
        <pt x="82" y="77" on="1"/>
        <pt x="99" y="124" on="0"/>
        <pt x="103" y="163" on="1"/>
        <pt x="154" y="512" on="1"/>
        <pt x="162" y="562" on="0"/>
        <pt x="162" y="623" on="1"/>
        <pt x="102" y="635" on="1"/>
        <pt x="117" y="710" on="1"/>
        <pt x="165" y="705" on="0"/>
      </contour>
    </TTGlyph>
    <TTGlyph name="Nacute" xMin="12" yMin="-5" xMax="824" yMax="898">
      <contour>
        <pt x="213" y="705" on="1"/>
        <pt x="316" y="705" on="1"/>
        <pt x="331" y="685" on="1"/>
        <pt x="383" y="559" on="0"/>
        <pt x="394" y="537" on="1"/>
        <pt x="560" y="230" on="1"/>
        <pt x="601" y="512" on="1"/>
        <pt x="608" y="564" on="0"/>
        <pt x="608" y="623" on="1"/>
        <pt x="548" y="635" on="1"/>
        <pt x="564" y="710" on="1"/>
        <pt x="661" y="705" on="1"/>
        <pt x="824" y="710" on="1"/>
        <pt x="817" y="629" on="1"/>
        <pt x="753" y="623" on="1"/>
        <pt x="739" y="580" on="0"/>
        <pt x="733" y="542" on="1"/>
        <pt x="654" y="0" on="1"/>
        <pt x="517" y="0" on="1"/>
        <pt x="273" y="450" on="1"/>
        <pt x="235" y="193" on="1"/>
        <pt x="227" y="134" on="0"/>
        <pt x="227" y="77" on="1"/>
        <pt x="288" y="71" on="1"/>
        <pt x="272" y="-5" on="1"/>
        <pt x="221" y="0" on="0"/>
        <pt x="109" y="0" on="1"/>
        <pt x="12" y="-5" on="1"/>
        <pt x="17" y="65" on="1"/>
        <pt x="82" y="77" on="1"/>
        <pt x="99" y="124" on="0"/>
        <pt x="103" y="163" on="1"/>
        <pt x="154" y="512" on="1"/>
        <pt x="162" y="562" on="0"/>
        <pt x="162" y="623" on="1"/>
        <pt x="102" y="635" on="1"/>
        <pt x="117" y="710" on="1"/>
        <pt x="165" y="705" on="0"/>
      </contour>
      <contour>
        <pt x="577" y="898" on="1"/>
        <pt x="612" y="814" on="1"/>
        <pt x="473" y="774" on="0"/>
        <pt x="454" y="768" on="1"/>
        <pt x="383" y="730" on="1"/>
        <pt x="347" y="794" on="1"/>
      </contour>
    </TTGlyph>
    <TTGlyph name="Ncaron" xMin="12" yMin="-5" xMax="824" yMax="889">
      <contour>
        <pt x="213" y="705" on="1"/>
        <pt x="316" y="705" on="1"/>
        <pt x="331" y="685" on="1"/>
        <pt x="383" y="559" on="0"/>
        <pt x="394" y="537" on="1"/>
        <pt x="560" y="230" on="1"/>
        <pt x="601" y="512" on="1"/>
        <pt x="608" y="564" on="0"/>
        <pt x="608" y="623" on="1"/>
        <pt x="548" y="635" on="1"/>
        <pt x="564" y="710" on="1"/>
        <pt x="661" y="705" on="1"/>
        <pt x="824" y="710" on="1"/>
        <pt x="817" y="629" on="1"/>
        <pt x="753" y="623" on="1"/>
        <pt x="739" y="580" on="0"/>
        <pt x="733" y="542" on="1"/>
        <pt x="654" y="0" on="1"/>
        <pt x="517" y="0" on="1"/>
        <pt x="273" y="450" on="1"/>
        <pt x="235" y="193" on="1"/>
        <pt x="227" y="134" on="0"/>
        <pt x="227" y="77" on="1"/>
        <pt x="288" y="71" on="1"/>
        <pt x="272" y="-5" on="1"/>
        <pt x="221" y="0" on="0"/>
        <pt x="109" y="0" on="1"/>
        <pt x="12" y="-5" on="1"/>
        <pt x="17" y="65" on="1"/>
        <pt x="82" y="77" on="1"/>
        <pt x="99" y="124" on="0"/>
        <pt x="103" y="163" on="1"/>
        <pt x="154" y="512" on="1"/>
        <pt x="162" y="562" on="0"/>
        <pt x="162" y="623" on="1"/>
        <pt x="102" y="635" on="1"/>
        <pt x="117" y="710" on="1"/>
        <pt x="165" y="705" on="0"/>
      </contour>
      <contour>
        <pt x="622" y="889" on="1"/>
        <pt x="660" y="831" on="1"/>
        <pt x="448" y="698" on="1"/>
        <pt x="276" y="831" on="1"/>
        <pt x="329" y="889" on="1"/>
        <pt x="387" y="840" on="1"/>
        <pt x="463" y="799" on="1"/>
        <pt x="550" y="840" on="1"/>
      </contour>
    </TTGlyph>
    <TTGlyph name="Ncommaaccent" xMin="12" yMin="-274" xMax="824" yMax="710">
      <contour>
        <pt x="213" y="705" on="1"/>
        <pt x="316" y="705" on="1"/>
        <pt x="331" y="685" on="1"/>
        <pt x="383" y="559" on="0"/>
        <pt x="394" y="537" on="1"/>
        <pt x="560" y="230" on="1"/>
        <pt x="601" y="512" on="1"/>
        <pt x="608" y="564" on="0"/>
        <pt x="608" y="623" on="1"/>
        <pt x="548" y="635" on="1"/>
        <pt x="564" y="710" on="1"/>
        <pt x="661" y="705" on="1"/>
        <pt x="824" y="710" on="1"/>
        <pt x="817" y="629" on="1"/>
        <pt x="753" y="623" on="1"/>
        <pt x="739" y="580" on="0"/>
        <pt x="733" y="542" on="1"/>
        <pt x="654" y="0" on="1"/>
        <pt x="517" y="0" on="1"/>
        <pt x="273" y="450" on="1"/>
        <pt x="235" y="193" on="1"/>
        <pt x="227" y="134" on="0"/>
        <pt x="227" y="77" on="1"/>
        <pt x="288" y="71" on="1"/>
        <pt x="272" y="-5" on="1"/>
        <pt x="221" y="0" on="0"/>
        <pt x="109" y="0" on="1"/>
        <pt x="12" y="-5" on="1"/>
        <pt x="17" y="65" on="1"/>
        <pt x="82" y="77" on="1"/>
        <pt x="99" y="124" on="0"/>
        <pt x="103" y="163" on="1"/>
        <pt x="154" y="512" on="1"/>
        <pt x="162" y="562" on="0"/>
        <pt x="162" y="623" on="1"/>
        <pt x="102" y="635" on="1"/>
        <pt x="117" y="710" on="1"/>
        <pt x="165" y="705" on="0"/>
      </contour>
      <contour>
        <pt x="304" y="-167" on="0"/>
        <pt x="304" y="-99" on="0"/>
        <pt x="349" y="-58" on="0"/>
        <pt x="402" y="-58" on="0"/>
        <pt x="431" y="-90" on="0"/>
        <pt x="431" y="-147" on="0"/>
        <pt x="390" y="-225" on="0"/>
        <pt x="370" y="-250" on="1"/>
        <pt x="350" y="-274" on="1"/>
        <pt x="307" y="-262" on="1"/>
        <pt x="332" y="-207" on="0"/>
        <pt x="336" y="-180" on="1"/>
      </contour>
    </TTGlyph>
    <TTGlyph name="Ntilde" xMin="12" yMin="-5" xMax="824" yMax="883">
      <contour>
        <pt x="213" y="705" on="1"/>
        <pt x="316" y="705" on="1"/>
        <pt x="331" y="685" on="1"/>
        <pt x="383" y="559" on="0"/>
        <pt x="394" y="537" on="1"/>
        <pt x="560" y="230" on="1"/>
        <pt x="601" y="512" on="1"/>
        <pt x="608" y="564" on="0"/>
        <pt x="608" y="623" on="1"/>
        <pt x="548" y="635" on="1"/>
        <pt x="564" y="710" on="1"/>
        <pt x="661" y="705" on="1"/>
        <pt x="824" y="710" on="1"/>
        <pt x="817" y="629" on="1"/>
        <pt x="753" y="623" on="1"/>
        <pt x="739" y="580" on="0"/>
        <pt x="733" y="542" on="1"/>
        <pt x="654" y="0" on="1"/>
        <pt x="517" y="0" on="1"/>
        <pt x="273" y="450" on="1"/>
        <pt x="235" y="193" on="1"/>
        <pt x="227" y="134" on="0"/>
        <pt x="227" y="77" on="1"/>
        <pt x="288" y="71" on="1"/>
        <pt x="272" y="-5" on="1"/>
        <pt x="221" y="0" on="0"/>
        <pt x="109" y="0" on="1"/>
        <pt x="12" y="-5" on="1"/>
        <pt x="17" y="65" on="1"/>
        <pt x="82" y="77" on="1"/>
        <pt x="99" y="124" on="0"/>
        <pt x="103" y="163" on="1"/>
        <pt x="154" y="512" on="1"/>
        <pt x="162" y="562" on="0"/>
        <pt x="162" y="623" on="1"/>
        <pt x="102" y="635" on="1"/>
        <pt x="117" y="710" on="1"/>
        <pt x="165" y="705" on="0"/>
      </contour>
      <contour>
        <pt x="633" y="810" on="0"/>
        <pt x="577" y="754" on="0"/>
        <pt x="535" y="754" on="0"/>
        <pt x="417" y="792" on="0"/>
        <pt x="400" y="792" on="1"/>
        <pt x="373" y="792" on="0"/>
        <pt x="346" y="760" on="1"/>
        <pt x="337" y="750" on="1"/>
        <pt x="294" y="778" on="1"/>
        <pt x="318" y="819" on="0"/>
        <pt x="381" y="883" on="0"/>
        <pt x="422" y="883" on="0"/>
        <pt x="542" y="845" on="0"/>
        <pt x="558" y="845" on="1"/>
        <pt x="586" y="845" on="0"/>
        <pt x="610" y="874" on="1"/>
        <pt x="618" y="883" on="1"/>
        <pt x="663" y="855" on="1"/>
        <pt x="656" y="844" on="0"/>
      </contour>
    </TTGlyph>
    <TTGlyph name="O" xMin="35" yMin="-19" xMax="743" yMax="724">
      <contour>
        <pt x="743" y="412" on="1"/>
        <pt x="743" y="221" on="0"/>
        <pt x="516" y="-19" on="0"/>
        <pt x="338" y="-19" on="1"/>
        <pt x="198" y="-19" on="0"/>
        <pt x="35" y="150" on="0"/>
        <pt x="35" y="292" on="1"/>
        <pt x="35" y="483" on="0"/>
        <pt x="262" y="724" on="0"/>
        <pt x="440" y="724" on="1"/>
        <pt x="580" y="724" on="0"/>
        <pt x="743" y="555" on="0"/>
      </contour>
      <contour>
        <pt x="212" y="271" on="1"/>
        <pt x="212" y="78" on="0"/>
        <pt x="349" y="78" on="1"/>
        <pt x="460" y="78" on="0"/>
        <pt x="565" y="266" on="0"/>
        <pt x="565" y="433" on="1"/>
        <pt x="565" y="627" on="0"/>
        <pt x="429" y="627" on="1"/>
        <pt x="317" y="627" on="0"/>
        <pt x="212" y="438" on="0"/>
      </contour>
    </TTGlyph>
    <TTGlyph name="OE" xMin="35" yMin="-19" xMax="1010" yMax="724">
      <contour>
        <pt x="792" y="0" on="1"/>
        <pt x="519" y="0" on="1"/>
        <pt x="449" y="-3" on="1"/>
        <pt x="395" y="-19" on="0"/>
        <pt x="332" y="-19" on="1"/>
        <pt x="193" y="-19" on="0"/>
        <pt x="35" y="149" on="0"/>
        <pt x="35" y="292" on="1"/>
        <pt x="35" y="483" on="0"/>
        <pt x="263" y="724" on="0"/>
        <pt x="441" y="724" on="1"/>
        <pt x="504" y="724" on="0"/>
        <pt x="551" y="708" on="1"/>
        <pt x="614" y="705" on="0"/>
        <pt x="622" y="705" on="1"/>
        <pt x="882" y="705" on="1"/>
        <pt x="993" y="715" on="1"/>
        <pt x="1010" y="697" on="1"/>
        <pt x="994" y="541" on="1"/>
        <pt x="923" y="536" on="1"/>
        <pt x="924" y="556" on="0"/>
        <pt x="924" y="586" on="0"/>
        <pt x="918" y="615" on="0"/>
        <pt x="916" y="619" on="1"/>
        <pt x="880" y="623" on="0"/>
        <pt x="841" y="623" on="1"/>
        <pt x="734" y="623" on="1"/>
        <pt x="721" y="563" on="0"/>
        <pt x="718" y="542" on="1"/>
        <pt x="697" y="399" on="1"/>
        <pt x="707" y="398" on="0"/>
        <pt x="722" y="398" on="1"/>
        <pt x="777" y="398" on="1"/>
        <pt x="797" y="398" on="0"/>
        <pt x="820" y="407" on="1"/>
        <pt x="839" y="471" on="1"/>
        <pt x="898" y="466" on="1"/>
        <pt x="888" y="406" on="0"/>
        <pt x="885" y="386" on="1"/>
        <pt x="870" y="259" on="1"/>
        <pt x="807" y="253" on="1"/>
        <pt x="807" y="313" on="1"/>
        <pt x="766" y="319" on="0"/>
        <pt x="746" y="319" on="1"/>
        <pt x="716" y="319" on="1"/>
        <pt x="693" y="319" on="0"/>
        <pt x="685" y="318" on="1"/>
        <pt x="667" y="193" on="1"/>
        <pt x="661" y="149" on="0"/>
        <pt x="655" y="87" on="1"/>
        <pt x="776" y="87" on="1"/>
        <pt x="812" y="87" on="0"/>
        <pt x="852" y="95" on="1"/>
        <pt x="882" y="140" on="0"/>
        <pt x="896" y="195" on="1"/>
        <pt x="964" y="190" on="1"/>
        <pt x="923" y="14" on="1"/>
        <pt x="902" y="-4" on="1"/>
        <pt x="812" y="0" on="0"/>
      </contour>
      <contour>
        <pt x="426" y="627" on="1"/>
        <pt x="313" y="627" on="0"/>
        <pt x="207" y="439" on="0"/>
        <pt x="207" y="272" on="1"/>
        <pt x="207" y="78" on="0"/>
        <pt x="346" y="78" on="1"/>
        <pt x="413" y="78" on="0"/>
        <pt x="491" y="135" on="0"/>
        <pt x="527" y="196" on="1"/>
        <pt x="576" y="536" on="1"/>
        <pt x="556" y="571" on="0"/>
        <pt x="531" y="602" on="0"/>
        <pt x="472" y="627" on="0"/>
      </contour>
    </TTGlyph>
    <TTGlyph name="Oacute" xMin="35" yMin="-19" xMax="743" yMax="908">
      <contour>
        <pt x="743" y="412" on="1"/>
        <pt x="743" y="221" on="0"/>
        <pt x="516" y="-19" on="0"/>
        <pt x="338" y="-19" on="1"/>
        <pt x="198" y="-19" on="0"/>
        <pt x="35" y="150" on="0"/>
        <pt x="35" y="292" on="1"/>
        <pt x="35" y="483" on="0"/>
        <pt x="262" y="724" on="0"/>
        <pt x="440" y="724" on="1"/>
        <pt x="580" y="724" on="0"/>
        <pt x="743" y="555" on="0"/>
      </contour>
      <contour>
        <pt x="212" y="271" on="1"/>
        <pt x="212" y="78" on="0"/>
        <pt x="349" y="78" on="1"/>
        <pt x="460" y="78" on="0"/>
        <pt x="565" y="266" on="0"/>
        <pt x="565" y="433" on="1"/>
        <pt x="565" y="627" on="0"/>
        <pt x="429" y="627" on="1"/>
        <pt x="317" y="627" on="0"/>
        <pt x="212" y="438" on="0"/>
      </contour>
      <contour>
        <pt x="549" y="908" on="1"/>
        <pt x="584" y="824" on="1"/>
        <pt x="445" y="784" on="0"/>
        <pt x="426" y="778" on="1"/>
        <pt x="355" y="740" on="1"/>
        <pt x="319" y="804" on="1"/>
      </contour>
    </TTGlyph>
    <TTGlyph name="Obreve" xMin="35" yMin="-19" xMax="743" yMax="908">
      <contour>
        <pt x="743" y="412" on="1"/>
        <pt x="743" y="221" on="0"/>
        <pt x="516" y="-19" on="0"/>
        <pt x="338" y="-19" on="1"/>
        <pt x="198" y="-19" on="0"/>
        <pt x="35" y="150" on="0"/>
        <pt x="35" y="292" on="1"/>
        <pt x="35" y="483" on="0"/>
        <pt x="262" y="724" on="0"/>
        <pt x="440" y="724" on="1"/>
        <pt x="580" y="724" on="0"/>
        <pt x="743" y="555" on="0"/>
      </contour>
      <contour>
        <pt x="212" y="271" on="1"/>
        <pt x="212" y="78" on="0"/>
        <pt x="349" y="78" on="1"/>
        <pt x="460" y="78" on="0"/>
        <pt x="565" y="266" on="0"/>
        <pt x="565" y="433" on="1"/>
        <pt x="565" y="627" on="0"/>
        <pt x="429" y="627" on="1"/>
        <pt x="317" y="627" on="0"/>
        <pt x="212" y="438" on="0"/>
      </contour>
      <contour>
        <pt x="493" y="753" on="0"/>
        <pt x="355" y="753" on="0"/>
        <pt x="320" y="794" on="1"/>
        <pt x="294" y="825" on="0"/>
        <pt x="294" y="876" on="1"/>
        <pt x="294" y="891" on="0"/>
        <pt x="296" y="908" on="1"/>
        <pt x="360" y="908" on="1"/>
        <pt x="359" y="901" on="0"/>
        <pt x="359" y="894" on="1"/>
        <pt x="359" y="867" on="0"/>
        <pt x="397" y="829" on="0"/>
        <pt x="472" y="829" on="0"/>
        <pt x="526" y="871" on="0"/>
        <pt x="531" y="908" on="1"/>
        <pt x="595" y="908" on="1"/>
        <pt x="585" y="834" on="0"/>
      </contour>
    </TTGlyph>
    <TTGlyph name="Ocircumflex" xMin="35" yMin="-19" xMax="743" yMax="933">
      <contour>
        <pt x="743" y="412" on="1"/>
        <pt x="743" y="221" on="0"/>
        <pt x="516" y="-19" on="0"/>
        <pt x="338" y="-19" on="1"/>
        <pt x="198" y="-19" on="0"/>
        <pt x="35" y="150" on="0"/>
        <pt x="35" y="292" on="1"/>
        <pt x="35" y="483" on="0"/>
        <pt x="262" y="724" on="0"/>
        <pt x="440" y="724" on="1"/>
        <pt x="580" y="724" on="0"/>
        <pt x="743" y="555" on="0"/>
      </contour>
      <contour>
        <pt x="212" y="271" on="1"/>
        <pt x="212" y="78" on="0"/>
        <pt x="349" y="78" on="1"/>
        <pt x="460" y="78" on="0"/>
        <pt x="565" y="266" on="0"/>
        <pt x="565" y="433" on="1"/>
        <pt x="565" y="627" on="0"/>
        <pt x="429" y="627" on="1"/>
        <pt x="317" y="627" on="0"/>
        <pt x="212" y="438" on="0"/>
      </contour>
      <contour>
        <pt x="457" y="933" on="1"/>
        <pt x="628" y="800" on="1"/>
        <pt x="573" y="742" on="1"/>
        <pt x="516" y="790" on="1"/>
        <pt x="441" y="832" on="1"/>
        <pt x="353" y="790" on="1"/>
        <pt x="280" y="742" on="1"/>
        <pt x="244" y="800" on="1"/>
      </contour>
    </TTGlyph>
    <TTGlyph name="Odieresis" xMin="35" yMin="-19" xMax="743" yMax="896">
      <contour>
        <pt x="743" y="412" on="1"/>
        <pt x="743" y="221" on="0"/>
        <pt x="516" y="-19" on="0"/>
        <pt x="338" y="-19" on="1"/>
        <pt x="198" y="-19" on="0"/>
        <pt x="35" y="150" on="0"/>
        <pt x="35" y="292" on="1"/>
        <pt x="35" y="483" on="0"/>
        <pt x="262" y="724" on="0"/>
        <pt x="440" y="724" on="1"/>
        <pt x="580" y="724" on="0"/>
        <pt x="743" y="555" on="0"/>
      </contour>
      <contour>
        <pt x="212" y="271" on="1"/>
        <pt x="212" y="78" on="0"/>
        <pt x="349" y="78" on="1"/>
        <pt x="460" y="78" on="0"/>
        <pt x="565" y="266" on="0"/>
        <pt x="565" y="433" on="1"/>
        <pt x="565" y="627" on="0"/>
        <pt x="429" y="627" on="1"/>
        <pt x="317" y="627" on="0"/>
        <pt x="212" y="438" on="0"/>
      </contour>
      <contour>
        <pt x="331" y="896" on="1"/>
        <pt x="387" y="896" on="0"/>
        <pt x="387" y="839" on="1"/>
        <pt x="387" y="803" on="0"/>
        <pt x="347" y="757" on="0"/>
        <pt x="283" y="757" on="0"/>
        <pt x="254" y="788" on="0"/>
        <pt x="254" y="850" on="0"/>
        <pt x="295" y="896" on="0"/>
      </contour>
      <contour>
        <pt x="561" y="896" on="1"/>
        <pt x="617" y="896" on="0"/>
        <pt x="617" y="839" on="1"/>
        <pt x="617" y="803" on="0"/>
        <pt x="577" y="757" on="0"/>
        <pt x="541" y="757" on="1"/>
        <pt x="485" y="757" on="0"/>
        <pt x="485" y="814" on="1"/>
        <pt x="485" y="850" on="0"/>
        <pt x="525" y="896" on="0"/>
      </contour>
    </TTGlyph>
    <TTGlyph name="Ograve" xMin="35" yMin="-19" xMax="743" yMax="908">
      <contour>
        <pt x="743" y="412" on="1"/>
        <pt x="743" y="221" on="0"/>
        <pt x="516" y="-19" on="0"/>
        <pt x="338" y="-19" on="1"/>
        <pt x="198" y="-19" on="0"/>
        <pt x="35" y="150" on="0"/>
        <pt x="35" y="292" on="1"/>
        <pt x="35" y="483" on="0"/>
        <pt x="262" y="724" on="0"/>
        <pt x="440" y="724" on="1"/>
        <pt x="580" y="724" on="0"/>
        <pt x="743" y="555" on="0"/>
      </contour>
      <contour>
        <pt x="212" y="271" on="1"/>
        <pt x="212" y="78" on="0"/>
        <pt x="349" y="78" on="1"/>
        <pt x="460" y="78" on="0"/>
        <pt x="565" y="266" on="0"/>
        <pt x="565" y="433" on="1"/>
        <pt x="565" y="627" on="0"/>
        <pt x="429" y="627" on="1"/>
        <pt x="317" y="627" on="0"/>
        <pt x="212" y="438" on="0"/>
      </contour>
      <contour>
        <pt x="548" y="804" on="1"/>
        <pt x="512" y="740" on="1"/>
        <pt x="440" y="778" on="1"/>
        <pt x="283" y="824" on="1"/>
        <pt x="318" y="908" on="1"/>
      </contour>
    </TTGlyph>
    <TTGlyph name="Ohungarumlaut" xMin="35" yMin="-19" xMax="743" yMax="918">
      <contour>
        <pt x="743" y="412" on="1"/>
        <pt x="743" y="221" on="0"/>
        <pt x="516" y="-19" on="0"/>
        <pt x="338" y="-19" on="1"/>
        <pt x="198" y="-19" on="0"/>
        <pt x="35" y="150" on="0"/>
        <pt x="35" y="292" on="1"/>
        <pt x="35" y="483" on="0"/>
        <pt x="262" y="724" on="0"/>
        <pt x="440" y="724" on="1"/>
        <pt x="580" y="724" on="0"/>
        <pt x="743" y="555" on="0"/>
      </contour>
      <contour>
        <pt x="212" y="271" on="1"/>
        <pt x="212" y="78" on="0"/>
        <pt x="349" y="78" on="1"/>
        <pt x="460" y="78" on="0"/>
        <pt x="565" y="266" on="0"/>
        <pt x="565" y="433" on="1"/>
        <pt x="565" y="627" on="0"/>
        <pt x="429" y="627" on="1"/>
        <pt x="317" y="627" on="0"/>
        <pt x="212" y="438" on="0"/>
      </contour>
      <contour>
        <pt x="462" y="918" on="1"/>
        <pt x="497" y="839" on="1"/>
        <pt x="362" y="780" on="0"/>
        <pt x="344" y="774" on="1"/>
        <pt x="272" y="734" on="1"/>
        <pt x="234" y="797" on="1"/>
      </contour>
      <contour>
        <pt x="681" y="913" on="1"/>
        <pt x="715" y="829" on="1"/>
        <pt x="577" y="778" on="0"/>
        <pt x="558" y="772" on="1"/>
        <pt x="487" y="734" on="1"/>
        <pt x="452" y="796" on="1"/>
      </contour>
    </TTGlyph>
    <TTGlyph name="Omacron" xMin="35" yMin="-19" xMax="743" yMax="844">
      <contour>
        <pt x="743" y="412" on="1"/>
        <pt x="743" y="221" on="0"/>
        <pt x="516" y="-19" on="0"/>
        <pt x="338" y="-19" on="1"/>
        <pt x="198" y="-19" on="0"/>
        <pt x="35" y="150" on="0"/>
        <pt x="35" y="292" on="1"/>
        <pt x="35" y="483" on="0"/>
        <pt x="262" y="724" on="0"/>
        <pt x="440" y="724" on="1"/>
        <pt x="580" y="724" on="0"/>
        <pt x="743" y="555" on="0"/>
      </contour>
      <contour>
        <pt x="212" y="271" on="1"/>
        <pt x="212" y="78" on="0"/>
        <pt x="349" y="78" on="1"/>
        <pt x="460" y="78" on="0"/>
        <pt x="565" y="266" on="0"/>
        <pt x="565" y="433" on="1"/>
        <pt x="565" y="627" on="0"/>
        <pt x="429" y="627" on="1"/>
        <pt x="317" y="627" on="0"/>
        <pt x="212" y="438" on="0"/>
      </contour>
      <contour>
        <pt x="625" y="771" on="1"/>
        <pt x="299" y="771" on="1"/>
        <pt x="310" y="844" on="1"/>
        <pt x="643" y="844" on="1"/>
      </contour>
    </TTGlyph>
    <TTGlyph name="Omega" xMin="-15" yMin="-4" xMax="821" yMax="720">
      <contour>
        <pt x="66" y="188" on="1"/>
        <pt x="66" y="148" on="0"/>
        <pt x="78" y="96" on="1"/>
        <pt x="116" y="88" on="0"/>
        <pt x="158" y="85" on="1"/>
        <pt x="242" y="82" on="1"/>
        <pt x="167" y="112" on="0"/>
        <pt x="90" y="239" on="0"/>
        <pt x="90" y="324" on="1"/>
        <pt x="90" y="497" on="0"/>
        <pt x="310" y="720" on="0"/>
        <pt x="485" y="720" on="1"/>
        <pt x="628" y="720" on="0"/>
        <pt x="783" y="572" on="0"/>
        <pt x="783" y="321" on="0"/>
        <pt x="654" y="123" on="0"/>
        <pt x="541" y="82" on="1"/>
        <pt x="628" y="85" on="1"/>
        <pt x="669" y="88" on="0"/>
        <pt x="711" y="96" on="1"/>
        <pt x="742" y="159" on="0"/>
        <pt x="752" y="195" on="1"/>
        <pt x="821" y="190" on="1"/>
        <pt x="780" y="14" on="1"/>
        <pt x="759" y="-4" on="1"/>
        <pt x="665" y="0" on="0"/>
        <pt x="645" y="0" on="1"/>
        <pt x="447" y="0" on="1"/>
        <pt x="453" y="128" on="1"/>
        <pt x="519" y="152" on="0"/>
        <pt x="603" y="333" on="0"/>
        <pt x="603" y="444" on="1"/>
        <pt x="603" y="525" on="0"/>
        <pt x="535" y="623" on="0"/>
        <pt x="471" y="623" on="1"/>
        <pt x="380" y="623" on="0"/>
        <pt x="267" y="432" on="0"/>
        <pt x="267" y="159" on="0"/>
        <pt x="345" y="128" on="1"/>
        <pt x="313" y="0" on="1"/>
        <pt x="115" y="0" on="1"/>
        <pt x="1" y="-4" on="1"/>
        <pt x="-15" y="14" on="1"/>
        <pt x="-4" y="190" on="1"/>
        <pt x="66" y="195" on="1"/>
      </contour>
    </TTGlyph>
    <TTGlyph name="Oslash" xMin="35" yMin="-137" xMax="739" yMax="838">
      <contour>
        <pt x="739" y="413" on="1"/>
        <pt x="739" y="222" on="0"/>
        <pt x="511" y="-19" on="0"/>
        <pt x="332" y="-19" on="1"/>
        <pt x="260" y="-19" on="0"/>
        <pt x="197" y="7" on="1"/>
        <pt x="102" y="-137" on="1"/>
        <pt x="51" y="-108" on="1"/>
        <pt x="146" y="37" on="1"/>
        <pt x="35" y="119" on="0"/>
        <pt x="35" y="292" on="1"/>
        <pt x="35" y="483" on="0"/>
        <pt x="263" y="724" on="0"/>
        <pt x="441" y="724" on="1"/>
        <pt x="516" y="724" on="0"/>
        <pt x="578" y="697" on="1"/>
        <pt x="671" y="838" on="1"/>
        <pt x="724" y="809" on="1"/>
        <pt x="630" y="666" on="1"/>
        <pt x="739" y="583" on="0"/>
      </contour>
      <contour>
        <pt x="207" y="272" on="1"/>
        <pt x="207" y="202" on="0"/>
        <pt x="225" y="157" on="1"/>
        <pt x="514" y="598" on="1"/>
        <pt x="480" y="627" on="0"/>
        <pt x="426" y="627" on="1"/>
        <pt x="313" y="627" on="0"/>
        <pt x="207" y="439" on="0"/>
      </contour>
      <contour>
        <pt x="566" y="432" on="1"/>
        <pt x="566" y="498" on="0"/>
        <pt x="549" y="544" on="1"/>
        <pt x="261" y="105" on="1"/>
        <pt x="294" y="78" on="0"/>
        <pt x="346" y="78" on="1"/>
        <pt x="566" y="78" on="0"/>
      </contour>
    </TTGlyph>
    <TTGlyph name="Oslashacute" xMin="35" yMin="-137" xMax="739" yMax="898">
      <contour>
        <pt x="739" y="413" on="1"/>
        <pt x="739" y="222" on="0"/>
        <pt x="511" y="-19" on="0"/>
        <pt x="332" y="-19" on="1"/>
        <pt x="260" y="-19" on="0"/>
        <pt x="197" y="7" on="1"/>
        <pt x="102" y="-137" on="1"/>
        <pt x="51" y="-108" on="1"/>
        <pt x="146" y="37" on="1"/>
        <pt x="35" y="119" on="0"/>
        <pt x="35" y="292" on="1"/>
        <pt x="35" y="483" on="0"/>
        <pt x="263" y="724" on="0"/>
        <pt x="441" y="724" on="1"/>
        <pt x="516" y="724" on="0"/>
        <pt x="578" y="697" on="1"/>
        <pt x="671" y="838" on="1"/>
        <pt x="724" y="809" on="1"/>
        <pt x="630" y="666" on="1"/>
        <pt x="739" y="583" on="0"/>
      </contour>
      <contour>
        <pt x="207" y="272" on="1"/>
        <pt x="207" y="202" on="0"/>
        <pt x="225" y="157" on="1"/>
        <pt x="514" y="598" on="1"/>
        <pt x="480" y="627" on="0"/>
        <pt x="426" y="627" on="1"/>
        <pt x="313" y="627" on="0"/>
        <pt x="207" y="439" on="0"/>
      </contour>
      <contour>
        <pt x="566" y="432" on="1"/>
        <pt x="566" y="498" on="0"/>
        <pt x="549" y="544" on="1"/>
        <pt x="261" y="105" on="1"/>
        <pt x="294" y="78" on="0"/>
        <pt x="346" y="78" on="1"/>
        <pt x="566" y="78" on="0"/>
      </contour>
      <contour>
        <pt x="539" y="898" on="1"/>
        <pt x="574" y="814" on="1"/>
        <pt x="435" y="774" on="0"/>
        <pt x="416" y="768" on="1"/>
        <pt x="345" y="730" on="1"/>
        <pt x="309" y="794" on="1"/>
      </contour>
    </TTGlyph>
    <TTGlyph name="Otilde" xMin="35" yMin="-19" xMax="743" yMax="883">
      <contour>
        <pt x="743" y="412" on="1"/>
        <pt x="743" y="221" on="0"/>
        <pt x="516" y="-19" on="0"/>
        <pt x="338" y="-19" on="1"/>
        <pt x="198" y="-19" on="0"/>
        <pt x="35" y="150" on="0"/>
        <pt x="35" y="292" on="1"/>
        <pt x="35" y="483" on="0"/>
        <pt x="262" y="724" on="0"/>
        <pt x="440" y="724" on="1"/>
        <pt x="580" y="724" on="0"/>
        <pt x="743" y="555" on="0"/>
      </contour>
      <contour>
        <pt x="212" y="271" on="1"/>
        <pt x="212" y="78" on="0"/>
        <pt x="349" y="78" on="1"/>
        <pt x="460" y="78" on="0"/>
        <pt x="565" y="266" on="0"/>
        <pt x="565" y="433" on="1"/>
        <pt x="565" y="627" on="0"/>
        <pt x="429" y="627" on="1"/>
        <pt x="317" y="627" on="0"/>
        <pt x="212" y="438" on="0"/>
      </contour>
      <contour>
        <pt x="595" y="810" on="0"/>
        <pt x="539" y="754" on="0"/>
        <pt x="497" y="754" on="0"/>
        <pt x="379" y="792" on="0"/>
        <pt x="362" y="792" on="1"/>
        <pt x="335" y="792" on="0"/>
        <pt x="308" y="760" on="1"/>
        <pt x="299" y="750" on="1"/>
        <pt x="256" y="778" on="1"/>
        <pt x="280" y="819" on="0"/>
        <pt x="343" y="883" on="0"/>
        <pt x="384" y="883" on="0"/>
        <pt x="504" y="845" on="0"/>
        <pt x="520" y="845" on="1"/>
        <pt x="548" y="845" on="0"/>
        <pt x="572" y="874" on="1"/>
        <pt x="580" y="883" on="1"/>
        <pt x="625" y="855" on="1"/>
        <pt x="618" y="844" on="0"/>
      </contour>
    </TTGlyph>
    <TTGlyph name="P" xMin="12" yMin="-5" xMax="626" yMax="715">
      <contour>
        <pt x="226" y="705" on="1"/>
        <pt x="425" y="715" on="1"/>
        <pt x="518" y="715" on="0"/>
        <pt x="626" y="617" on="0"/>
        <pt x="626" y="529" on="1"/>
        <pt x="626" y="412" on="0"/>
        <pt x="445" y="271" on="0"/>
        <pt x="325" y="271" on="1"/>
        <pt x="274" y="271" on="1"/>
        <pt x="263" y="193" on="1"/>
        <pt x="255" y="143" on="0"/>
        <pt x="255" y="77" on="1"/>
        <pt x="325" y="71" on="1"/>
        <pt x="309" y="-5" on="1"/>
        <pt x="220" y="0" on="0"/>
        <pt x="108" y="0" on="1"/>
        <pt x="12" y="-5" on="1"/>
        <pt x="17" y="65" on="1"/>
        <pt x="82" y="77" on="1"/>
        <pt x="101" y="139" on="0"/>
        <pt x="103" y="163" on="1"/>
        <pt x="154" y="512" on="1"/>
        <pt x="156" y="523" on="0"/>
        <pt x="162" y="623" on="1"/>
        <pt x="101" y="635" on="1"/>
        <pt x="117" y="710" on="1"/>
        <pt x="165" y="705" on="0"/>
        <pt x="212" y="705" on="1"/>
      </contour>
      <contour>
        <pt x="299" y="353" on="1"/>
        <pt x="375" y="353" on="0"/>
        <pt x="465" y="446" on="0"/>
        <pt x="465" y="529" on="1"/>
        <pt x="465" y="582" on="0"/>
        <pt x="412" y="633" on="0"/>
        <pt x="355" y="633" on="1"/>
        <pt x="341" y="633" on="0"/>
        <pt x="330" y="632" on="1"/>
        <pt x="317" y="569" on="0"/>
        <pt x="314" y="542" on="1"/>
        <pt x="286" y="353" on="1"/>
      </contour>
    </TTGlyph>
    <TTGlyph name="Q" xMin="35" yMin="-224" xMax="743" yMax="724">
      <contour>
        <pt x="338" y="-19" on="1"/>
        <pt x="198" y="-19" on="0"/>
        <pt x="35" y="150" on="0"/>
        <pt x="35" y="292" on="1"/>
        <pt x="35" y="483" on="0"/>
        <pt x="262" y="724" on="0"/>
        <pt x="440" y="724" on="1"/>
        <pt x="580" y="724" on="0"/>
        <pt x="743" y="555" on="0"/>
        <pt x="743" y="273" on="0"/>
        <pt x="615" y="63" on="0"/>
        <pt x="503" y="14" on="1"/>
        <pt x="562" y="-32" on="1"/>
        <pt x="705" y="-100" on="1"/>
        <pt x="598" y="-224" on="1"/>
        <pt x="357" y="-19" on="1"/>
      </contour>
      <contour>
        <pt x="212" y="271" on="1"/>
        <pt x="212" y="78" on="0"/>
        <pt x="349" y="78" on="1"/>
        <pt x="460" y="78" on="0"/>
        <pt x="565" y="266" on="0"/>
        <pt x="565" y="433" on="1"/>
        <pt x="565" y="627" on="0"/>
        <pt x="429" y="627" on="1"/>
        <pt x="317" y="627" on="0"/>
        <pt x="212" y="438" on="0"/>
      </contour>
    </TTGlyph>
    <TTGlyph name="R" xMin="12" yMin="-5" xMax="635" yMax="715">
      <contour>
        <pt x="223" y="705" on="1"/>
        <pt x="430" y="715" on="1"/>
        <pt x="524" y="715" on="0"/>
        <pt x="635" y="618" on="0"/>
        <pt x="635" y="461" on="0"/>
        <pt x="552" y="346" on="0"/>
        <pt x="483" y="313" on="1"/>
        <pt x="508" y="243" on="0"/>
        <pt x="582" y="86" on="0"/>
        <pt x="587" y="75" on="1"/>
        <pt x="634" y="71" on="1"/>
        <pt x="619" y="-5" on="1"/>
        <pt x="542" y="0" on="0"/>
        <pt x="429" y="0" on="1"/>
        <pt x="406" y="92" on="0"/>
        <pt x="397" y="116" on="1"/>
        <pt x="338" y="277" on="1"/>
        <pt x="325" y="277" on="1"/>
        <pt x="306" y="277" on="0"/>
        <pt x="280" y="280" on="1"/>
        <pt x="267" y="193" on="1"/>
        <pt x="258" y="137" on="0"/>
        <pt x="258" y="77" on="1"/>
        <pt x="322" y="71" on="1"/>
        <pt x="305" y="-5" on="1"/>
        <pt x="225" y="0" on="0"/>
        <pt x="112" y="0" on="1"/>
        <pt x="12" y="-5" on="1"/>
        <pt x="17" y="65" on="1"/>
        <pt x="85" y="77" on="1"/>
        <pt x="104" y="139" on="0"/>
        <pt x="106" y="163" on="1"/>
        <pt x="160" y="512" on="1"/>
        <pt x="168" y="568" on="0"/>
        <pt x="168" y="623" on="1"/>
        <pt x="104" y="635" on="1"/>
        <pt x="120" y="710" on="1"/>
        <pt x="173" y="705" on="0"/>
      </contour>
      <contour>
        <pt x="360" y="633" on="1"/>
        <pt x="348" y="633" on="0"/>
        <pt x="339" y="632" on="1"/>
        <pt x="319" y="542" on="1"/>
        <pt x="292" y="361" on="1"/>
        <pt x="316" y="361" on="1"/>
        <pt x="474" y="361" on="0"/>
        <pt x="474" y="530" on="1"/>
        <pt x="474" y="633" on="0"/>
      </contour>
    </TTGlyph>
    <TTGlyph name="Racute" xMin="12" yMin="-5" xMax="635" yMax="898">
      <contour>
        <pt x="223" y="705" on="1"/>
        <pt x="430" y="715" on="1"/>
        <pt x="524" y="715" on="0"/>
        <pt x="635" y="618" on="0"/>
        <pt x="635" y="461" on="0"/>
        <pt x="552" y="346" on="0"/>
        <pt x="483" y="313" on="1"/>
        <pt x="508" y="243" on="0"/>
        <pt x="582" y="86" on="0"/>
        <pt x="587" y="75" on="1"/>
        <pt x="634" y="71" on="1"/>
        <pt x="619" y="-5" on="1"/>
        <pt x="542" y="0" on="0"/>
        <pt x="429" y="0" on="1"/>
        <pt x="406" y="92" on="0"/>
        <pt x="397" y="116" on="1"/>
        <pt x="338" y="277" on="1"/>
        <pt x="325" y="277" on="1"/>
        <pt x="306" y="277" on="0"/>
        <pt x="280" y="280" on="1"/>
        <pt x="267" y="193" on="1"/>
        <pt x="258" y="137" on="0"/>
        <pt x="258" y="77" on="1"/>
        <pt x="322" y="71" on="1"/>
        <pt x="305" y="-5" on="1"/>
        <pt x="225" y="0" on="0"/>
        <pt x="112" y="0" on="1"/>
        <pt x="12" y="-5" on="1"/>
        <pt x="17" y="65" on="1"/>
        <pt x="85" y="77" on="1"/>
        <pt x="104" y="139" on="0"/>
        <pt x="106" y="163" on="1"/>
        <pt x="160" y="512" on="1"/>
        <pt x="168" y="568" on="0"/>
        <pt x="168" y="623" on="1"/>
        <pt x="104" y="635" on="1"/>
        <pt x="120" y="710" on="1"/>
        <pt x="173" y="705" on="0"/>
      </contour>
      <contour>
        <pt x="360" y="633" on="1"/>
        <pt x="348" y="633" on="0"/>
        <pt x="339" y="632" on="1"/>
        <pt x="319" y="542" on="1"/>
        <pt x="292" y="361" on="1"/>
        <pt x="316" y="361" on="1"/>
        <pt x="474" y="361" on="0"/>
        <pt x="474" y="530" on="1"/>
        <pt x="474" y="633" on="0"/>
      </contour>
      <contour>
        <pt x="499" y="898" on="1"/>
        <pt x="534" y="814" on="1"/>
        <pt x="395" y="774" on="0"/>
        <pt x="376" y="768" on="1"/>
        <pt x="305" y="730" on="1"/>
        <pt x="269" y="794" on="1"/>
      </contour>
    </TTGlyph>
    <TTGlyph name="Rcaron" xMin="12" yMin="-5" xMax="635" yMax="919">
      <contour>
        <pt x="223" y="705" on="1"/>
        <pt x="430" y="715" on="1"/>
        <pt x="524" y="715" on="0"/>
        <pt x="635" y="618" on="0"/>
        <pt x="635" y="461" on="0"/>
        <pt x="552" y="346" on="0"/>
        <pt x="483" y="313" on="1"/>
        <pt x="508" y="243" on="0"/>
        <pt x="582" y="86" on="0"/>
        <pt x="587" y="75" on="1"/>
        <pt x="634" y="71" on="1"/>
        <pt x="619" y="-5" on="1"/>
        <pt x="542" y="0" on="0"/>
        <pt x="429" y="0" on="1"/>
        <pt x="406" y="92" on="0"/>
        <pt x="397" y="116" on="1"/>
        <pt x="338" y="277" on="1"/>
        <pt x="325" y="277" on="1"/>
        <pt x="306" y="277" on="0"/>
        <pt x="280" y="280" on="1"/>
        <pt x="267" y="193" on="1"/>
        <pt x="258" y="137" on="0"/>
        <pt x="258" y="77" on="1"/>
        <pt x="322" y="71" on="1"/>
        <pt x="305" y="-5" on="1"/>
        <pt x="225" y="0" on="0"/>
        <pt x="112" y="0" on="1"/>
        <pt x="12" y="-5" on="1"/>
        <pt x="17" y="65" on="1"/>
        <pt x="85" y="77" on="1"/>
        <pt x="104" y="139" on="0"/>
        <pt x="106" y="163" on="1"/>
        <pt x="160" y="512" on="1"/>
        <pt x="168" y="568" on="0"/>
        <pt x="168" y="623" on="1"/>
        <pt x="104" y="635" on="1"/>
        <pt x="120" y="710" on="1"/>
        <pt x="173" y="705" on="0"/>
      </contour>
      <contour>
        <pt x="360" y="633" on="1"/>
        <pt x="348" y="633" on="0"/>
        <pt x="339" y="632" on="1"/>
        <pt x="319" y="542" on="1"/>
        <pt x="292" y="361" on="1"/>
        <pt x="316" y="361" on="1"/>
        <pt x="474" y="361" on="0"/>
        <pt x="474" y="530" on="1"/>
        <pt x="474" y="633" on="0"/>
      </contour>
      <contour>
        <pt x="544" y="919" on="1"/>
        <pt x="582" y="861" on="1"/>
        <pt x="370" y="728" on="1"/>
        <pt x="198" y="861" on="1"/>
        <pt x="251" y="919" on="1"/>
        <pt x="309" y="870" on="1"/>
        <pt x="385" y="829" on="1"/>
        <pt x="472" y="870" on="1"/>
      </contour>
    </TTGlyph>
    <TTGlyph name="Rcommaaccent" xMin="12" yMin="-274" xMax="635" yMax="715">
      <contour>
        <pt x="223" y="705" on="1"/>
        <pt x="430" y="715" on="1"/>
        <pt x="524" y="715" on="0"/>
        <pt x="635" y="618" on="0"/>
        <pt x="635" y="461" on="0"/>
        <pt x="552" y="346" on="0"/>
        <pt x="483" y="313" on="1"/>
        <pt x="508" y="243" on="0"/>
        <pt x="582" y="86" on="0"/>
        <pt x="587" y="75" on="1"/>
        <pt x="634" y="71" on="1"/>
        <pt x="619" y="-5" on="1"/>
        <pt x="542" y="0" on="0"/>
        <pt x="429" y="0" on="1"/>
        <pt x="406" y="92" on="0"/>
        <pt x="397" y="116" on="1"/>
        <pt x="338" y="277" on="1"/>
        <pt x="325" y="277" on="1"/>
        <pt x="306" y="277" on="0"/>
        <pt x="280" y="280" on="1"/>
        <pt x="267" y="193" on="1"/>
        <pt x="258" y="137" on="0"/>
        <pt x="258" y="77" on="1"/>
        <pt x="322" y="71" on="1"/>
        <pt x="305" y="-5" on="1"/>
        <pt x="225" y="0" on="0"/>
        <pt x="112" y="0" on="1"/>
        <pt x="12" y="-5" on="1"/>
        <pt x="17" y="65" on="1"/>
        <pt x="85" y="77" on="1"/>
        <pt x="104" y="139" on="0"/>
        <pt x="106" y="163" on="1"/>
        <pt x="160" y="512" on="1"/>
        <pt x="168" y="568" on="0"/>
        <pt x="168" y="623" on="1"/>
        <pt x="104" y="635" on="1"/>
        <pt x="120" y="710" on="1"/>
        <pt x="173" y="705" on="0"/>
      </contour>
      <contour>
        <pt x="360" y="633" on="1"/>
        <pt x="348" y="633" on="0"/>
        <pt x="339" y="632" on="1"/>
        <pt x="319" y="542" on="1"/>
        <pt x="292" y="361" on="1"/>
        <pt x="316" y="361" on="1"/>
        <pt x="474" y="361" on="0"/>
        <pt x="474" y="530" on="1"/>
        <pt x="474" y="633" on="0"/>
      </contour>
      <contour>
        <pt x="285" y="-167" on="0"/>
        <pt x="285" y="-99" on="0"/>
        <pt x="330" y="-58" on="0"/>
        <pt x="383" y="-58" on="0"/>
        <pt x="412" y="-90" on="0"/>
        <pt x="412" y="-147" on="0"/>
        <pt x="372" y="-225" on="0"/>
        <pt x="352" y="-250" on="1"/>
        <pt x="331" y="-274" on="1"/>
        <pt x="288" y="-262" on="1"/>
        <pt x="313" y="-207" on="0"/>
        <pt x="317" y="-180" on="1"/>
      </contour>
    </TTGlyph>
    <TTGlyph name="S" xMin="17" yMin="-15" xMax="551" yMax="720">
      <contour>
        <pt x="141" y="221" on="1"/>
        <pt x="131" y="153" on="0"/>
        <pt x="131" y="140" on="0"/>
        <pt x="139" y="110" on="1"/>
        <pt x="185" y="82" on="0"/>
        <pt x="286" y="82" on="0"/>
        <pt x="351" y="132" on="0"/>
        <pt x="351" y="212" on="0"/>
        <pt x="295" y="266" on="0"/>
        <pt x="216" y="307" on="0"/>
        <pt x="137" y="354" on="0"/>
        <pt x="81" y="437" on="0"/>
        <pt x="81" y="492" on="1"/>
        <pt x="81" y="595" on="0"/>
        <pt x="227" y="720" on="0"/>
        <pt x="440" y="720" on="0"/>
        <pt x="551" y="684" on="1"/>
        <pt x="510" y="491" on="1"/>
        <pt x="428" y="496" on="1"/>
        <pt x="439" y="568" on="0"/>
        <pt x="439" y="576" on="0"/>
        <pt x="432" y="604" on="1"/>
        <pt x="398" y="627" on="0"/>
        <pt x="311" y="627" on="0"/>
        <pt x="251" y="578" on="0"/>
        <pt x="251" y="504" on="0"/>
        <pt x="307" y="454" on="0"/>
        <pt x="386" y="413" on="0"/>
        <pt x="466" y="366" on="0"/>
        <pt x="522" y="286" on="0"/>
        <pt x="522" y="232" on="1"/>
        <pt x="522" y="120" on="0"/>
        <pt x="359" y="-15" on="0"/>
        <pt x="240" y="-15" on="1"/>
        <pt x="182" y="-15" on="0"/>
        <pt x="70" y="9" on="0"/>
        <pt x="44" y="21" on="1"/>
        <pt x="17" y="33" on="1"/>
        <pt x="60" y="226" on="1"/>
      </contour>
    </TTGlyph>
    <TTGlyph name="Sacute" xMin="17" yMin="-15" xMax="551" yMax="898">
      <contour>
        <pt x="141" y="221" on="1"/>
        <pt x="131" y="153" on="0"/>
        <pt x="131" y="140" on="0"/>
        <pt x="139" y="110" on="1"/>
        <pt x="185" y="82" on="0"/>
        <pt x="286" y="82" on="0"/>
        <pt x="351" y="132" on="0"/>
        <pt x="351" y="212" on="0"/>
        <pt x="295" y="266" on="0"/>
        <pt x="216" y="307" on="0"/>
        <pt x="137" y="354" on="0"/>
        <pt x="81" y="437" on="0"/>
        <pt x="81" y="492" on="1"/>
        <pt x="81" y="595" on="0"/>
        <pt x="227" y="720" on="0"/>
        <pt x="440" y="720" on="0"/>
        <pt x="551" y="684" on="1"/>
        <pt x="510" y="491" on="1"/>
        <pt x="428" y="496" on="1"/>
        <pt x="439" y="568" on="0"/>
        <pt x="439" y="576" on="0"/>
        <pt x="432" y="604" on="1"/>
        <pt x="398" y="627" on="0"/>
        <pt x="311" y="627" on="0"/>
        <pt x="251" y="578" on="0"/>
        <pt x="251" y="504" on="0"/>
        <pt x="307" y="454" on="0"/>
        <pt x="386" y="413" on="0"/>
        <pt x="466" y="366" on="0"/>
        <pt x="522" y="286" on="0"/>
        <pt x="522" y="232" on="1"/>
        <pt x="522" y="120" on="0"/>
        <pt x="359" y="-15" on="0"/>
        <pt x="240" y="-15" on="1"/>
        <pt x="182" y="-15" on="0"/>
        <pt x="70" y="9" on="0"/>
        <pt x="44" y="21" on="1"/>
        <pt x="17" y="33" on="1"/>
        <pt x="60" y="226" on="1"/>
      </contour>
      <contour>
        <pt x="459" y="898" on="1"/>
        <pt x="494" y="814" on="1"/>
        <pt x="355" y="774" on="0"/>
        <pt x="336" y="768" on="1"/>
        <pt x="265" y="730" on="1"/>
        <pt x="229" y="794" on="1"/>
      </contour>
    </TTGlyph>
    <TTGlyph name="Scaron" xMin="17" yMin="-15" xMax="551" yMax="919">
      <contour>
        <pt x="141" y="221" on="1"/>
        <pt x="131" y="153" on="0"/>
        <pt x="131" y="140" on="0"/>
        <pt x="139" y="110" on="1"/>
        <pt x="185" y="82" on="0"/>
        <pt x="286" y="82" on="0"/>
        <pt x="351" y="132" on="0"/>
        <pt x="351" y="212" on="0"/>
        <pt x="295" y="266" on="0"/>
        <pt x="216" y="307" on="0"/>
        <pt x="137" y="354" on="0"/>
        <pt x="81" y="437" on="0"/>
        <pt x="81" y="492" on="1"/>
        <pt x="81" y="595" on="0"/>
        <pt x="227" y="720" on="0"/>
        <pt x="440" y="720" on="0"/>
        <pt x="551" y="684" on="1"/>
        <pt x="510" y="491" on="1"/>
        <pt x="428" y="496" on="1"/>
        <pt x="439" y="568" on="0"/>
        <pt x="439" y="576" on="0"/>
        <pt x="432" y="604" on="1"/>
        <pt x="398" y="627" on="0"/>
        <pt x="311" y="627" on="0"/>
        <pt x="251" y="578" on="0"/>
        <pt x="251" y="504" on="0"/>
        <pt x="307" y="454" on="0"/>
        <pt x="386" y="413" on="0"/>
        <pt x="466" y="366" on="0"/>
        <pt x="522" y="286" on="0"/>
        <pt x="522" y="232" on="1"/>
        <pt x="522" y="120" on="0"/>
        <pt x="359" y="-15" on="0"/>
        <pt x="240" y="-15" on="1"/>
        <pt x="182" y="-15" on="0"/>
        <pt x="70" y="9" on="0"/>
        <pt x="44" y="21" on="1"/>
        <pt x="17" y="33" on="1"/>
        <pt x="60" y="226" on="1"/>
      </contour>
      <contour>
        <pt x="505" y="919" on="1"/>
        <pt x="543" y="861" on="1"/>
        <pt x="331" y="728" on="1"/>
        <pt x="159" y="861" on="1"/>
        <pt x="212" y="919" on="1"/>
        <pt x="270" y="870" on="1"/>
        <pt x="346" y="829" on="1"/>
        <pt x="433" y="870" on="1"/>
      </contour>
    </TTGlyph>
    <TTGlyph name="Scedilla" xMin="17" yMin="-235" xMax="551" yMax="720">
      <contour>
        <pt x="141" y="221" on="1"/>
        <pt x="131" y="153" on="0"/>
        <pt x="131" y="140" on="0"/>
        <pt x="139" y="110" on="1"/>
        <pt x="185" y="82" on="0"/>
        <pt x="286" y="82" on="0"/>
        <pt x="351" y="132" on="0"/>
        <pt x="351" y="212" on="0"/>
        <pt x="295" y="266" on="0"/>
        <pt x="216" y="307" on="0"/>
        <pt x="137" y="354" on="0"/>
        <pt x="81" y="437" on="0"/>
        <pt x="81" y="492" on="1"/>
        <pt x="81" y="595" on="0"/>
        <pt x="227" y="720" on="0"/>
        <pt x="440" y="720" on="0"/>
        <pt x="551" y="684" on="1"/>
        <pt x="510" y="491" on="1"/>
        <pt x="428" y="496" on="1"/>
        <pt x="439" y="568" on="0"/>
        <pt x="439" y="576" on="0"/>
        <pt x="432" y="604" on="1"/>
        <pt x="398" y="627" on="0"/>
        <pt x="311" y="627" on="0"/>
        <pt x="251" y="578" on="0"/>
        <pt x="251" y="504" on="0"/>
        <pt x="307" y="454" on="0"/>
        <pt x="386" y="413" on="0"/>
        <pt x="466" y="366" on="0"/>
        <pt x="522" y="286" on="0"/>
        <pt x="522" y="232" on="1"/>
        <pt x="522" y="126" on="0"/>
        <pt x="372" y="-8" on="0"/>
        <pt x="260" y="-14" on="1"/>
        <pt x="245" y="-59" on="1"/>
        <pt x="284" y="-60" on="0"/>
        <pt x="332" y="-100" on="0"/>
        <pt x="332" y="-134" on="1"/>
        <pt x="332" y="-184" on="0"/>
        <pt x="261" y="-235" on="0"/>
        <pt x="152" y="-235" on="0"/>
        <pt x="116" y="-217" on="1"/>
        <pt x="141" y="-168" on="1"/>
        <pt x="174" y="-179" on="0"/>
        <pt x="193" y="-179" on="1"/>
        <pt x="244" y="-179" on="0"/>
        <pt x="244" y="-141" on="1"/>
        <pt x="244" y="-115" on="0"/>
        <pt x="207" y="-115" on="1"/>
        <pt x="187" y="-116" on="1"/>
        <pt x="178" y="-102" on="1"/>
        <pt x="199" y="-13" on="1"/>
        <pt x="151" y="-9" on="0"/>
        <pt x="60" y="14" on="0"/>
        <pt x="38" y="24" on="1"/>
        <pt x="17" y="33" on="1"/>
        <pt x="60" y="226" on="1"/>
      </contour>
    </TTGlyph>
    <TTGlyph name="Scircumflex" xMin="17" yMin="-15" xMax="551" yMax="933">
      <contour>
        <pt x="141" y="221" on="1"/>
        <pt x="131" y="153" on="0"/>
        <pt x="131" y="140" on="0"/>
        <pt x="139" y="110" on="1"/>
        <pt x="185" y="82" on="0"/>
        <pt x="286" y="82" on="0"/>
        <pt x="351" y="132" on="0"/>
        <pt x="351" y="212" on="0"/>
        <pt x="295" y="266" on="0"/>
        <pt x="216" y="307" on="0"/>
        <pt x="137" y="354" on="0"/>
        <pt x="81" y="437" on="0"/>
        <pt x="81" y="492" on="1"/>
        <pt x="81" y="595" on="0"/>
        <pt x="227" y="720" on="0"/>
        <pt x="440" y="720" on="0"/>
        <pt x="551" y="684" on="1"/>
        <pt x="510" y="491" on="1"/>
        <pt x="428" y="496" on="1"/>
        <pt x="439" y="568" on="0"/>
        <pt x="439" y="576" on="0"/>
        <pt x="432" y="604" on="1"/>
        <pt x="398" y="627" on="0"/>
        <pt x="311" y="627" on="0"/>
        <pt x="251" y="578" on="0"/>
        <pt x="251" y="504" on="0"/>
        <pt x="307" y="454" on="0"/>
        <pt x="386" y="413" on="0"/>
        <pt x="466" y="366" on="0"/>
        <pt x="522" y="286" on="0"/>
        <pt x="522" y="232" on="1"/>
        <pt x="522" y="120" on="0"/>
        <pt x="359" y="-15" on="0"/>
        <pt x="240" y="-15" on="1"/>
        <pt x="182" y="-15" on="0"/>
        <pt x="70" y="9" on="0"/>
        <pt x="44" y="21" on="1"/>
        <pt x="17" y="33" on="1"/>
        <pt x="60" y="226" on="1"/>
      </contour>
      <contour>
        <pt x="377" y="933" on="1"/>
        <pt x="548" y="800" on="1"/>
        <pt x="493" y="742" on="1"/>
        <pt x="436" y="790" on="1"/>
        <pt x="361" y="832" on="1"/>
        <pt x="273" y="790" on="1"/>
        <pt x="200" y="742" on="1"/>
        <pt x="164" y="800" on="1"/>
      </contour>
    </TTGlyph>
    <TTGlyph name="Scommaaccent" xMin="17" yMin="-274" xMax="551" yMax="720">
      <contour>
        <pt x="141" y="221" on="1"/>
        <pt x="131" y="153" on="0"/>
        <pt x="131" y="140" on="0"/>
        <pt x="139" y="110" on="1"/>
        <pt x="185" y="82" on="0"/>
        <pt x="286" y="82" on="0"/>
        <pt x="351" y="132" on="0"/>
        <pt x="351" y="212" on="0"/>
        <pt x="295" y="266" on="0"/>
        <pt x="216" y="307" on="0"/>
        <pt x="137" y="354" on="0"/>
        <pt x="81" y="437" on="0"/>
        <pt x="81" y="492" on="1"/>
        <pt x="81" y="595" on="0"/>
        <pt x="227" y="720" on="0"/>
        <pt x="440" y="720" on="0"/>
        <pt x="551" y="684" on="1"/>
        <pt x="510" y="491" on="1"/>
        <pt x="428" y="496" on="1"/>
        <pt x="439" y="568" on="0"/>
        <pt x="439" y="576" on="0"/>
        <pt x="432" y="604" on="1"/>
        <pt x="398" y="627" on="0"/>
        <pt x="311" y="627" on="0"/>
        <pt x="251" y="578" on="0"/>
        <pt x="251" y="504" on="0"/>
        <pt x="307" y="454" on="0"/>
        <pt x="386" y="413" on="0"/>
        <pt x="466" y="366" on="0"/>
        <pt x="522" y="286" on="0"/>
        <pt x="522" y="232" on="1"/>
        <pt x="522" y="120" on="0"/>
        <pt x="359" y="-15" on="0"/>
        <pt x="240" y="-15" on="1"/>
        <pt x="182" y="-15" on="0"/>
        <pt x="70" y="9" on="0"/>
        <pt x="44" y="21" on="1"/>
        <pt x="17" y="33" on="1"/>
        <pt x="60" y="226" on="1"/>
      </contour>
      <contour>
        <pt x="188" y="-167" on="0"/>
        <pt x="188" y="-99" on="0"/>
        <pt x="233" y="-58" on="0"/>
        <pt x="286" y="-58" on="0"/>
        <pt x="315" y="-90" on="0"/>
        <pt x="315" y="-147" on="0"/>
        <pt x="274" y="-225" on="0"/>
        <pt x="254" y="-250" on="1"/>
        <pt x="234" y="-274" on="1"/>
        <pt x="191" y="-262" on="1"/>
        <pt x="216" y="-207" on="0"/>
        <pt x="220" y="-180" on="1"/>
      </contour>
    </TTGlyph>
    <TTGlyph name="T" xMin="51" yMin="-5" xMax="659" yMax="715">
      <contour>
        <pt x="571" y="526" on="1"/>
        <pt x="573" y="557" on="0"/>
        <pt x="573" y="572" on="1"/>
        <pt x="573" y="594" on="0"/>
        <pt x="568" y="618" on="1"/>
        <pt x="526" y="623" on="0"/>
        <pt x="495" y="623" on="1"/>
        <pt x="446" y="623" on="1"/>
        <pt x="431" y="575" on="0"/>
        <pt x="426" y="542" on="1"/>
        <pt x="375" y="193" on="1"/>
        <pt x="367" y="136" on="0"/>
        <pt x="367" y="77" on="1"/>
        <pt x="427" y="71" on="1"/>
        <pt x="411" y="-5" on="1"/>
        <pt x="332" y="0" on="0"/>
        <pt x="221" y="0" on="1"/>
        <pt x="124" y="-5" on="1"/>
        <pt x="129" y="65" on="1"/>
        <pt x="194" y="77" on="1"/>
        <pt x="212" y="138" on="0"/>
        <pt x="216" y="163" on="1"/>
        <pt x="266" y="512" on="1"/>
        <pt x="274" y="556" on="0"/>
        <pt x="274" y="623" on="1"/>
        <pt x="229" y="623" on="1"/>
        <pt x="201" y="623" on="0"/>
        <pt x="151" y="618" on="1"/>
        <pt x="140" y="597" on="0"/>
        <pt x="130" y="569" on="0"/>
        <pt x="121" y="526" on="1"/>
        <pt x="51" y="531" on="1"/>
        <pt x="82" y="697" on="1"/>
        <pt x="103" y="715" on="1"/>
        <pt x="193" y="705" on="0"/>
        <pt x="212" y="705" on="1"/>
        <pt x="531" y="705" on="1"/>
        <pt x="643" y="715" on="1"/>
        <pt x="659" y="697" on="1"/>
        <pt x="642" y="531" on="1"/>
      </contour>
    </TTGlyph>
    <TTGlyph name="Tbar" xMin="51" yMin="-5" xMax="659" yMax="715">
      <contour>
        <pt x="571" y="526" on="1"/>
        <pt x="573" y="557" on="0"/>
        <pt x="573" y="572" on="1"/>
        <pt x="573" y="594" on="0"/>
        <pt x="568" y="618" on="1"/>
        <pt x="526" y="623" on="0"/>
        <pt x="495" y="623" on="1"/>
        <pt x="446" y="623" on="1"/>
        <pt x="431" y="575" on="0"/>
        <pt x="426" y="542" on="1"/>
        <pt x="408" y="421" on="1"/>
        <pt x="553" y="421" on="1"/>
        <pt x="544" y="357" on="1"/>
        <pt x="399" y="357" on="1"/>
        <pt x="375" y="193" on="1"/>
        <pt x="367" y="136" on="0"/>
        <pt x="367" y="77" on="1"/>
        <pt x="427" y="71" on="1"/>
        <pt x="411" y="-5" on="1"/>
        <pt x="332" y="0" on="0"/>
        <pt x="221" y="0" on="1"/>
        <pt x="124" y="-5" on="1"/>
        <pt x="129" y="65" on="1"/>
        <pt x="194" y="77" on="1"/>
        <pt x="212" y="138" on="0"/>
        <pt x="216" y="163" on="1"/>
        <pt x="244" y="357" on="1"/>
        <pt x="119" y="357" on="1"/>
        <pt x="128" y="421" on="1"/>
        <pt x="253" y="421" on="1"/>
        <pt x="266" y="512" on="1"/>
        <pt x="274" y="556" on="0"/>
        <pt x="274" y="623" on="1"/>
        <pt x="229" y="623" on="1"/>
        <pt x="201" y="623" on="0"/>
        <pt x="151" y="618" on="1"/>
        <pt x="140" y="597" on="0"/>
        <pt x="130" y="569" on="0"/>
        <pt x="121" y="526" on="1"/>
        <pt x="51" y="531" on="1"/>
        <pt x="82" y="697" on="1"/>
        <pt x="103" y="715" on="1"/>
        <pt x="193" y="705" on="0"/>
        <pt x="212" y="705" on="1"/>
        <pt x="531" y="705" on="1"/>
        <pt x="643" y="715" on="1"/>
        <pt x="659" y="697" on="1"/>
        <pt x="642" y="531" on="1"/>
      </contour>
    </TTGlyph>
    <TTGlyph name="Tcaron" xMin="51" yMin="-5" xMax="659" yMax="919">
      <contour>
        <pt x="571" y="526" on="1"/>
        <pt x="573" y="557" on="0"/>
        <pt x="573" y="572" on="1"/>
        <pt x="573" y="594" on="0"/>
        <pt x="568" y="618" on="1"/>
        <pt x="526" y="623" on="0"/>
        <pt x="495" y="623" on="1"/>
        <pt x="446" y="623" on="1"/>
        <pt x="431" y="575" on="0"/>
        <pt x="426" y="542" on="1"/>
        <pt x="375" y="193" on="1"/>
        <pt x="367" y="136" on="0"/>
        <pt x="367" y="77" on="1"/>
        <pt x="427" y="71" on="1"/>
        <pt x="411" y="-5" on="1"/>
        <pt x="332" y="0" on="0"/>
        <pt x="221" y="0" on="1"/>
        <pt x="124" y="-5" on="1"/>
        <pt x="129" y="65" on="1"/>
        <pt x="194" y="77" on="1"/>
        <pt x="212" y="138" on="0"/>
        <pt x="216" y="163" on="1"/>
        <pt x="266" y="512" on="1"/>
        <pt x="274" y="556" on="0"/>
        <pt x="274" y="623" on="1"/>
        <pt x="229" y="623" on="1"/>
        <pt x="201" y="623" on="0"/>
        <pt x="151" y="618" on="1"/>
        <pt x="140" y="597" on="0"/>
        <pt x="130" y="569" on="0"/>
        <pt x="121" y="526" on="1"/>
        <pt x="51" y="531" on="1"/>
        <pt x="82" y="697" on="1"/>
        <pt x="103" y="715" on="1"/>
        <pt x="193" y="705" on="0"/>
        <pt x="212" y="705" on="1"/>
        <pt x="531" y="705" on="1"/>
        <pt x="643" y="715" on="1"/>
        <pt x="659" y="697" on="1"/>
        <pt x="642" y="531" on="1"/>
      </contour>
      <contour>
        <pt x="547" y="919" on="1"/>
        <pt x="585" y="861" on="1"/>
        <pt x="373" y="728" on="1"/>
        <pt x="201" y="861" on="1"/>
        <pt x="254" y="919" on="1"/>
        <pt x="312" y="870" on="1"/>
        <pt x="388" y="829" on="1"/>
        <pt x="475" y="870" on="1"/>
      </contour>
    </TTGlyph>
    <TTGlyph name="Tcedilla" xMin="51" yMin="-235" xMax="659" yMax="715">
      <contour>
        <pt x="571" y="526" on="1"/>
        <pt x="573" y="557" on="0"/>
        <pt x="573" y="572" on="1"/>
        <pt x="573" y="594" on="0"/>
        <pt x="568" y="618" on="1"/>
        <pt x="526" y="623" on="0"/>
        <pt x="495" y="623" on="1"/>
        <pt x="446" y="623" on="1"/>
        <pt x="431" y="575" on="0"/>
        <pt x="426" y="542" on="1"/>
        <pt x="375" y="193" on="1"/>
        <pt x="367" y="136" on="0"/>
        <pt x="367" y="77" on="1"/>
        <pt x="427" y="71" on="1"/>
        <pt x="411" y="-5" on="1"/>
        <pt x="367" y="-2" on="0"/>
        <pt x="301" y="0" on="1"/>
        <pt x="281" y="-59" on="1"/>
        <pt x="320" y="-60" on="0"/>
        <pt x="368" y="-100" on="0"/>
        <pt x="368" y="-134" on="1"/>
        <pt x="368" y="-184" on="0"/>
        <pt x="297" y="-235" on="0"/>
        <pt x="188" y="-235" on="0"/>
        <pt x="152" y="-217" on="1"/>
        <pt x="177" y="-168" on="1"/>
        <pt x="210" y="-179" on="0"/>
        <pt x="229" y="-179" on="1"/>
        <pt x="280" y="-179" on="0"/>
        <pt x="280" y="-141" on="1"/>
        <pt x="280" y="-115" on="0"/>
        <pt x="243" y="-115" on="1"/>
        <pt x="223" y="-116" on="1"/>
        <pt x="214" y="-102" on="1"/>
        <pt x="238" y="0" on="1"/>
        <pt x="221" y="0" on="1"/>
        <pt x="124" y="-5" on="1"/>
        <pt x="129" y="65" on="1"/>
        <pt x="194" y="77" on="1"/>
        <pt x="212" y="138" on="0"/>
        <pt x="216" y="163" on="1"/>
        <pt x="266" y="512" on="1"/>
        <pt x="274" y="556" on="0"/>
        <pt x="274" y="623" on="1"/>
        <pt x="229" y="623" on="1"/>
        <pt x="201" y="623" on="0"/>
        <pt x="151" y="618" on="1"/>
        <pt x="140" y="597" on="0"/>
        <pt x="130" y="569" on="0"/>
        <pt x="121" y="526" on="1"/>
        <pt x="51" y="531" on="1"/>
        <pt x="82" y="697" on="1"/>
        <pt x="103" y="715" on="1"/>
        <pt x="193" y="705" on="0"/>
        <pt x="212" y="705" on="1"/>
        <pt x="531" y="705" on="1"/>
        <pt x="643" y="715" on="1"/>
        <pt x="659" y="697" on="1"/>
        <pt x="642" y="531" on="1"/>
      </contour>
    </TTGlyph>
    <TTGlyph name="Thorn" xMin="10" yMin="-5" xMax="600" yMax="710">
      <contour>
        <pt x="252" y="146" on="1"/>
        <pt x="249" y="95" on="0"/>
        <pt x="249" y="77" on="1"/>
        <pt x="311" y="71" on="1"/>
        <pt x="295" y="-5" on="1"/>
        <pt x="217" y="0" on="0"/>
        <pt x="108" y="0" on="1"/>
        <pt x="10" y="-5" on="1"/>
        <pt x="15" y="65" on="1"/>
        <pt x="81" y="77" on="1"/>
        <pt x="99" y="138" on="0"/>
        <pt x="103" y="163" on="1"/>
        <pt x="154" y="512" on="1"/>
        <pt x="161" y="562" on="0"/>
        <pt x="161" y="623" on="1"/>
        <pt x="100" y="635" on="1"/>
        <pt x="116" y="710" on="1"/>
        <pt x="166" y="705" on="0"/>
        <pt x="212" y="705" on="1"/>
        <pt x="401" y="710" on="1"/>
        <pt x="394" y="629" on="1"/>
        <pt x="329" y="623" on="1"/>
        <pt x="323" y="608" on="0"/>
        <pt x="313" y="566" on="1"/>
        <pt x="379" y="570" on="0"/>
        <pt x="399" y="570" on="1"/>
        <pt x="492" y="570" on="0"/>
        <pt x="600" y="474" on="0"/>
        <pt x="600" y="389" on="1"/>
        <pt x="600" y="277" on="0"/>
        <pt x="439" y="146" on="0"/>
        <pt x="324" y="146" on="1"/>
      </contour>
      <contour>
        <pt x="278" y="228" on="1"/>
        <pt x="355" y="228" on="0"/>
        <pt x="444" y="310" on="0"/>
        <pt x="444" y="386" on="1"/>
        <pt x="444" y="488" on="0"/>
        <pt x="331" y="488" on="1"/>
        <pt x="313" y="488" on="0"/>
        <pt x="300" y="487" on="1"/>
        <pt x="262" y="228" on="1"/>
      </contour>
    </TTGlyph>
    <TTGlyph name="U" xMin="82" yMin="-15" xMax="797" yMax="710">
      <contour>
        <pt x="478" y="-15" on="0"/>
        <pt x="204" y="-15" on="0"/>
        <pt x="142" y="61" on="1"/>
        <pt x="96" y="119" on="0"/>
        <pt x="96" y="209" on="1"/>
        <pt x="96" y="237" on="0"/>
        <pt x="100" y="268" on="1"/>
        <pt x="135" y="512" on="1"/>
        <pt x="144" y="566" on="0"/>
        <pt x="144" y="614" on="0"/>
        <pt x="143" y="623" on="1"/>
        <pt x="82" y="635" on="1"/>
        <pt x="98" y="710" on="1"/>
        <pt x="146" y="705" on="0"/>
        <pt x="193" y="705" on="1"/>
        <pt x="391" y="710" on="1"/>
        <pt x="384" y="629" on="1"/>
        <pt x="320" y="623" on="1"/>
        <pt x="304" y="578" on="0"/>
        <pt x="300" y="542" on="1"/>
        <pt x="258" y="260" on="1"/>
        <pt x="256" y="243" on="0"/>
        <pt x="256" y="227" on="1"/>
        <pt x="256" y="179" on="0"/>
        <pt x="278" y="144" on="1"/>
        <pt x="309" y="99" on="0"/>
        <pt x="447" y="99" on="0"/>
        <pt x="521" y="181" on="0"/>
        <pt x="532" y="260" on="1"/>
        <pt x="569" y="512" on="1"/>
        <pt x="570" y="520" on="0"/>
        <pt x="577" y="623" on="1"/>
        <pt x="516" y="635" on="1"/>
        <pt x="532" y="710" on="1"/>
        <pt x="580" y="705" on="0"/>
        <pt x="628" y="705" on="1"/>
        <pt x="797" y="710" on="1"/>
        <pt x="790" y="629" on="1"/>
        <pt x="726" y="623" on="1"/>
        <pt x="712" y="585" on="0"/>
        <pt x="706" y="542" on="1"/>
        <pt x="666" y="268" on="1"/>
        <pt x="647" y="137" on="0"/>
      </contour>
    </TTGlyph>
    <TTGlyph name="Uacute" xMin="82" yMin="-15" xMax="797" yMax="898">
      <contour>
        <pt x="478" y="-15" on="0"/>
        <pt x="204" y="-15" on="0"/>
        <pt x="142" y="61" on="1"/>
        <pt x="96" y="119" on="0"/>
        <pt x="96" y="209" on="1"/>
        <pt x="96" y="237" on="0"/>
        <pt x="100" y="268" on="1"/>
        <pt x="135" y="512" on="1"/>
        <pt x="144" y="566" on="0"/>
        <pt x="144" y="614" on="0"/>
        <pt x="143" y="623" on="1"/>
        <pt x="82" y="635" on="1"/>
        <pt x="98" y="710" on="1"/>
        <pt x="146" y="705" on="0"/>
        <pt x="193" y="705" on="1"/>
        <pt x="391" y="710" on="1"/>
        <pt x="384" y="629" on="1"/>
        <pt x="320" y="623" on="1"/>
        <pt x="304" y="578" on="0"/>
        <pt x="300" y="542" on="1"/>
        <pt x="258" y="260" on="1"/>
        <pt x="256" y="243" on="0"/>
        <pt x="256" y="227" on="1"/>
        <pt x="256" y="179" on="0"/>
        <pt x="278" y="144" on="1"/>
        <pt x="309" y="99" on="0"/>
        <pt x="447" y="99" on="0"/>
        <pt x="521" y="181" on="0"/>
        <pt x="532" y="260" on="1"/>
        <pt x="569" y="512" on="1"/>
        <pt x="570" y="520" on="0"/>
        <pt x="577" y="623" on="1"/>
        <pt x="516" y="635" on="1"/>
        <pt x="532" y="710" on="1"/>
        <pt x="580" y="705" on="0"/>
        <pt x="628" y="705" on="1"/>
        <pt x="797" y="710" on="1"/>
        <pt x="790" y="629" on="1"/>
        <pt x="726" y="623" on="1"/>
        <pt x="712" y="585" on="0"/>
        <pt x="706" y="542" on="1"/>
        <pt x="666" y="268" on="1"/>
        <pt x="647" y="137" on="0"/>
      </contour>
      <contour>
        <pt x="576" y="898" on="1"/>
        <pt x="611" y="814" on="1"/>
        <pt x="472" y="774" on="0"/>
        <pt x="453" y="768" on="1"/>
        <pt x="382" y="730" on="1"/>
        <pt x="346" y="794" on="1"/>
      </contour>
    </TTGlyph>
</ttFont>
